<?xml version="1.0" standalone="no"?>
<!DOCTYPE svg PUBLIC "-//W3C//DTD SVG 20010904//EN"
 "http://www.w3.org/TR/2001/REC-SVG-20010904/DTD/svg10.dtd">
<svg version="1.0" xmlns="http://www.w3.org/2000/svg"
 width="960.000000pt" height="960.000000pt" viewBox="0 0 960.000000 960.000000"
 preserveAspectRatio="xMidYMid meet">
<metadata>
Created by potrace 1.11, written by Peter Selinger 2001-2013
</metadata>
<g transform="translate(0.000000,960.000000) scale(0.100000,-0.100000)"
fill="#000000" stroke="none">
<path d="M5298 8475 c-2 -2 -34 -6 -73 -9 -38 -3 -86 -7 -105 -10 -19 -3 -53
-8 -76 -11 -118 -17 -341 -71 -424 -102 -8 -3 -19 -7 -25 -8 -5 -2 -41 -15
-80 -29 -409 -155 -757 -394 -1071 -737 -50 -54 -214 -264 -214 -274 0 -3 -11
-21 -24 -38 -43 -57 -117 -189 -178 -317 -32 -69 -63 -133 -68 -142 -6 -10
-10 -22 -10 -28 0 -6 -7 -27 -16 -48 -10 -20 -18 -42 -20 -49 -1 -7 -11 -41
-23 -75 -11 -35 -25 -83 -32 -108 -7 -25 -14 -49 -15 -55 -4 -12 -24 -101 -30
-135 -2 -14 -7 -31 -9 -38 -2 -7 -7 -40 -11 -75 -3 -34 -8 -64 -9 -67 -18 -30
-26 -436 -12 -590 12 -135 14 -152 52 -345 3 -16 11 -48 17 -70 5 -22 11 -47
13 -55 6 -31 84 -257 104 -303 11 -26 21 -51 22 -55 6 -23 100 -209 143 -282
90 -154 238 -360 320 -446 6 -6 33 -34 60 -63 26 -29 50 -51 52 -49 7 5 3757
3755 3792 3791 l34 35 -45 43 c-25 24 -56 53 -69 63 -68 56 -143 122 -146 129
-2 4 -8 7 -13 7 -5 0 -35 19 -66 43 -32 24 -83 58 -113 77 -30 19 -57 37 -60
40 -3 3 -21 13 -40 24 -178 94 -229 119 -320 156 -58 23 -114 46 -125 51 -23
9 -69 22 -72 21 -2 -1 -18 5 -38 14 -19 8 -37 14 -40 14 -6 -1 -81 19 -115 31
-14 4 -38 10 -55 13 -16 2 -65 11 -109 20 -43 9 -83 13 -87 10 -5 -3 -9 -1 -9
3 0 5 -17 10 -37 11 -21 1 -54 4 -73 7 -38 5 -447 14 -452 10z"/>
<path d="M4051 3858 l-1912 -1911 64 -61 c57 -54 108 -99 169 -146 10 -8 33
-27 51 -42 18 -15 37 -28 44 -28 6 0 13 -4 15 -8 4 -11 155 -112 167 -112 5 0
11 -3 13 -7 6 -15 185 -108 359 -186 61 -28 298 -105 303 -99 4 3 6 1 6 -4 0
-5 8 -10 18 -11 15 -1 51 -8 132 -27 14 -4 36 -8 50 -11 14 -3 36 -7 50 -10
14 -3 43 -8 65 -10 22 -3 51 -7 65 -10 126 -24 536 -24 676 -1 16 3 49 8 74
11 80 11 233 44 325 70 112 32 106 31 130 39 11 5 31 12 45 16 65 22 166 63
179 74 8 6 16 10 17 9 14 -10 261 124 395 213 189 126 418 328 549 483 70 84
74 88 94 116 11 14 30 38 43 53 13 15 26 35 29 45 3 9 10 17 15 17 5 0 9 4 9
10 0 5 16 32 35 59 19 26 35 53 35 59 0 6 3 12 8 14 11 5 46 69 118 218 65
133 75 156 89 195 4 11 22 62 41 113 18 51 33 95 33 97 1 3 1 6 2 8 0 1 2 9 4
17 2 8 13 53 25 100 12 47 24 95 26 108 2 12 6 34 9 50 3 15 8 42 10 61 3 19
8 48 11 65 10 58 25 266 25 371 1 63 -10 262 -16 295 -2 14 -7 45 -10 70 -3
25 -7 56 -10 70 -3 14 -8 41 -11 60 -3 19 -9 51 -14 70 -5 19 -11 46 -14 60
-21 107 -90 317 -136 417 -11 24 -20 45 -20 49 0 3 -23 51 -51 107 -43 86 -80
151 -172 302 -7 10 -18 25 -25 33 -7 8 -30 40 -51 71 -22 31 -47 65 -58 76
-10 11 -29 33 -41 50 -36 46 -156 175 -163 175 -4 0 -867 -860 -1918 -1912z"/>
</g>
</svg>
