<svg width="669" height="566" viewBox="0 0 669 566" fill="none" xmlns="http://www.w3.org/2000/svg">
<path d="M512.5 565.81C552 565.81 596 565.81 629.5 518.5C663.825 457.265 669 443.716 669 362.165C669 280.615 663.826 167.99 649.5 126.49C626.439 59.6875 600 38.99 547.5 16.99C495 -5.01003 401.458 -6.30731 343 16.9899C316.745 28.3136 263.531 40.8326 292.5 126.49C313.27 187.975 273.819 216.884 239 228.99C205.292 240.711 177.592 255.229 142.169 257.908C118.108 259.724 93.4843 261.819 71.35 271.791C17.8281 295.883 -7.2594 362.155 1.82497 419.198C10.9093 476.241 47.0359 524.851 87.339 565.81H371.5H512.5Z" fill="white"/>
<path d="M277.5 507.188C148.5 409.688 231.5 258.187 449 203.688C298 349.687 372 420.519 449 511.188C381 501.688 326.5 504.188 277.5 507.188Z" fill="#103F4A"/>
<path d="M556.024 179.259C487.755 218.675 480.825 206.672 472.279 191.87C467.86 184.218 463.874 177.314 470.486 166.987C472.386 164.018 475.164 160.761 479.063 157.124C487.824 148.945 502.245 138.828 525.072 125.649C533.849 120.581 543.293 117.066 552.618 114.656C557.106 113.494 561.564 112.59 565.911 111.892C571.231 111.036 576.383 110.489 581.196 110.161C584.43 109.936 587.516 109.813 590.4 109.758C603.712 109.509 612.768 110.757 612.768 110.757C612.768 110.757 593.728 157.491 556.024 179.259Z" fill="#103F4A"/>
<path d="M556.024 179.259C487.755 218.675 480.825 206.672 472.279 191.87C467.86 184.218 463.874 177.314 470.486 166.987C472.386 164.018 475.164 160.761 479.063 157.124C487.824 148.945 502.245 138.828 525.072 125.649C533.849 120.581 543.293 117.066 552.618 114.656C557.106 113.494 561.564 112.59 565.911 111.892C571.231 111.036 576.383 110.489 581.196 110.161C584.43 109.936 587.516 109.813 590.4 109.758C603.712 109.509 612.768 110.757 612.768 110.757C612.768 110.757 593.728 157.491 556.024 179.259Z" stroke="white"/>
<path d="M508.745 205.113C510.752 208.31 512.244 214.114 506.408 222.674C496.931 236.576 468.47 239.39 468.47 239.39C468.47 239.39 486.053 226.766 475.796 208.521L458.896 179.25C448.224 161.244 429.439 171.786 429.439 171.786C429.439 171.786 446.105 148.545 462.883 147.288C473.214 146.514 477.495 150.708 479.26 154.045L508.745 205.113Z" fill="#103F4A"/>
<path d="M508.745 205.113C510.752 208.31 512.244 214.114 506.408 222.674C496.931 236.576 468.47 239.39 468.47 239.39C468.47 239.39 486.053 226.766 475.796 208.521L458.896 179.25C448.224 161.244 429.439 171.786 429.439 171.786C429.439 171.786 446.105 148.545 462.883 147.288C473.214 146.514 477.495 150.708 479.26 154.045L508.745 205.113Z" stroke="white"/>
</svg>
