<svg viewBox="0 0 1442 743" fill="none" xmlns="http://www.w3.org/2000/svg">
<path fill-rule="evenodd" clip-rule="evenodd" d="M0 286.24C1.77076 281.061 2.83436 278.188 2.83436 278.188C79.0628 71.1414 618.966 50.6771 864.273 99.6301C1173.14 161.267 1335.46 105.832 1442 40.7569V480.168C1441.45 482.438 1440.9 484.689 1440.36 486.918L1440.35 486.971C1413.39 598.511 1398.84 658.703 912.265 538.518C513.793 440.094 311.754 503.911 178.471 546.01C122.384 563.726 78.473 577.596 37.2231 573.912C22.0777 572.559 9.81964 568.003 0 560.958V286.24Z" fill="#103F4A"/>
<path fill-rule="evenodd" clip-rule="evenodd" d="M1442 364.582C1441.82 468.533 1430.67 602.777 913 483.097C515.392 391.173 318.748 450.739 188.679 490.138C133.8 506.761 90.7732 519.795 49.5039 516.345C0.00267792 512.207 0.000613689 373.345 0.00267696 373.345C0.00474024 373.344 0 304.344 0 304.344V272.345L1.50391 255.845L4.83043 239.769C80.9531 46.2447 620.108 27.117 865.074 72.8728C1428.46 178.104 1441.76 11.8116 1442 0L1442 83.8447V149.845V223.845V253.845V279.345V304.345V354.345L1442 364.582Z" fill="#46C894"/>
<path d="M529.062 192.213C464.704 243.574 454.454 233.605 441.813 221.312C435.278 214.956 429.383 209.222 434.104 198.073C435.46 194.868 437.696 191.209 441.049 186.961C448.583 177.409 461.762 164.862 483.281 147.689C491.556 141.086 500.909 135.818 510.39 131.624C514.953 129.604 519.543 127.834 524.062 126.283C529.592 124.382 535.012 122.809 540.119 121.512C543.549 120.637 546.844 119.889 549.936 119.247C564.213 116.287 574.255 115.618 574.255 115.618C574.255 115.618 564.606 163.848 529.062 192.213Z" fill="white"/>
<path d="M529.062 192.213C464.704 243.574 454.454 233.605 441.813 221.312C435.278 214.956 429.383 209.222 434.104 198.073C435.46 194.868 437.696 191.209 441.049 186.961C448.583 177.409 461.762 164.862 483.281 147.689C491.556 141.086 500.909 135.818 510.39 131.624C514.953 129.604 519.543 127.834 524.062 126.283C529.592 124.382 535.012 122.809 540.119 121.512C543.549 120.637 546.844 119.889 549.936 119.247C564.213 116.287 574.255 115.618 574.255 115.618C574.255 115.618 564.606 163.848 529.062 192.213Z" stroke="white"/>
<path d="M484.154 226.413C487.059 229.035 490.013 234.236 485.717 243.55C478.741 258.678 448.748 267.17 448.748 267.17C448.748 267.17 464.75 251.597 449.467 236.388L424.471 212.078C408.797 197.18 391.018 211.024 391.018 211.024C391.018 211.024 403.567 185.567 421.342 180.942C432.286 178.094 437.869 181.196 440.545 184.001L484.154 226.413Z" fill="white"/>
<path d="M484.154 226.413C487.059 229.035 490.013 234.236 485.717 243.55C478.741 258.678 448.748 267.17 448.748 267.17C448.748 267.17 464.75 251.597 449.467 236.388L424.471 212.078C408.797 197.18 391.018 211.024 391.018 211.024C391.018 211.024 403.567 185.567 421.342 180.942C432.286 178.094 437.869 181.196 440.545 184.001L484.154 226.413Z" stroke="white"/>
<path d="M190.298 742.827C-161.701 596.327 404.602 247.845 404.602 247.845C404.602 247.845 173.299 649.827 404.602 742.827" fill="white"/>
</svg>
