<svg viewBox="0 0 644 421" fill="none" xmlns="http://www.w3.org/2000/svg">
<path d="M104.071 409L103.927 348.52L74.2626 398.344H63.7506L34.2306 349.816V409H12.3426V308.2H31.6386L69.3666 370.84L106.519 308.2H125.671L125.959 409H104.071ZM148.29 331.528H170.754V409H148.29V331.528ZM159.522 320.728C155.394 320.728 152.034 319.528 149.442 317.128C146.85 314.728 145.554 311.752 145.554 308.2C145.554 304.648 146.85 301.672 149.442 299.272C152.034 296.872 155.394 295.672 159.522 295.672C163.65 295.672 167.01 296.824 169.602 299.128C172.194 301.432 173.49 304.312 173.49 307.768C173.49 311.512 172.194 314.632 169.602 317.128C167.01 319.528 163.65 320.728 159.522 320.728ZM270.514 302.152V409H249.058V400.072C243.49 406.792 235.426 410.152 224.866 410.152C217.57 410.152 210.946 408.52 204.994 405.256C199.138 401.992 194.53 397.336 191.17 391.288C187.81 385.24 186.13 378.232 186.13 370.264C186.13 362.296 187.81 355.288 191.17 349.24C194.53 343.192 199.138 338.536 204.994 335.272C210.946 332.008 217.57 330.376 224.866 330.376C234.754 330.376 242.482 333.496 248.05 339.736V302.152H270.514ZM228.754 391.72C234.418 391.72 239.122 389.8 242.866 385.96C246.61 382.024 248.482 376.792 248.482 370.264C248.482 363.736 246.61 358.552 242.866 354.712C239.122 350.776 234.418 348.808 228.754 348.808C222.994 348.808 218.242 350.776 214.498 354.712C210.754 358.552 208.882 363.736 208.882 370.264C208.882 376.792 210.754 382.024 214.498 385.96C218.242 389.8 222.994 391.72 228.754 391.72ZM415.722 331.528L387.642 409H366.042L348.618 360.904L330.618 409H309.018L281.082 331.528H302.25L320.538 383.944L339.546 331.528H358.554L376.986 383.944L395.85 331.528H415.722ZM499.944 370.552C499.944 370.84 499.8 372.856 499.512 376.6H440.904C441.96 381.4 444.456 385.192 448.392 387.976C452.328 390.76 457.224 392.152 463.08 392.152C467.112 392.152 470.664 391.576 473.736 390.424C476.904 389.176 479.832 387.256 482.52 384.664L494.472 397.624C487.176 405.976 476.52 410.152 462.504 410.152C453.768 410.152 446.04 408.472 439.32 405.112C432.6 401.656 427.416 396.904 423.768 390.856C420.12 384.808 418.296 377.944 418.296 370.264C418.296 362.68 420.072 355.864 423.624 349.816C427.272 343.672 432.216 338.92 438.456 335.56C444.792 332.104 451.848 330.376 459.624 330.376C467.208 330.376 474.072 332.008 480.216 335.272C486.36 338.536 491.16 343.24 494.616 349.384C498.168 355.432 499.944 362.488 499.944 370.552ZM459.768 347.368C454.68 347.368 450.408 348.808 446.952 351.688C443.496 354.568 441.384 358.504 440.616 363.496H478.776C478.008 358.6 475.896 354.712 472.44 351.832C468.984 348.856 464.76 347.368 459.768 347.368ZM540.963 410.152C534.531 410.152 528.243 409.384 522.099 407.848C515.955 406.216 511.059 404.2 507.411 401.8L514.899 385.672C518.355 387.88 522.531 389.704 527.427 391.144C532.323 392.488 537.123 393.16 541.827 393.16C551.331 393.16 556.083 390.808 556.083 386.104C556.083 383.896 554.787 382.312 552.195 381.352C549.603 380.392 545.619 379.576 540.243 378.904C533.907 377.944 528.675 376.84 524.547 375.592C520.419 374.344 516.819 372.136 513.747 368.968C510.771 365.8 509.283 361.288 509.283 355.432C509.283 350.536 510.675 346.216 513.459 342.472C516.339 338.632 520.467 335.656 525.843 333.544C531.315 331.432 537.747 330.376 545.139 330.376C550.611 330.376 556.035 331 561.411 332.248C566.883 333.4 571.395 335.032 574.947 337.144L567.459 353.128C560.643 349.288 553.203 347.368 545.139 347.368C540.339 347.368 536.739 348.04 534.339 349.384C531.939 350.728 530.739 352.456 530.739 354.568C530.739 356.968 532.035 358.648 534.627 359.608C537.219 360.568 541.347 361.48 547.011 362.344C553.347 363.4 558.531 364.552 562.563 365.8C566.595 366.952 570.099 369.112 573.075 372.28C576.051 375.448 577.539 379.864 577.539 385.528C577.539 390.328 576.099 394.6 573.219 398.344C570.339 402.088 566.115 405.016 560.547 407.128C555.075 409.144 548.547 410.152 540.963 410.152ZM641.367 405.256C639.159 406.888 636.423 408.136 633.159 409C629.991 409.768 626.631 410.152 623.079 410.152C613.863 410.152 606.711 407.8 601.623 403.096C596.631 398.392 594.135 391.48 594.135 382.36V350.536H582.183V333.256H594.135V314.392H616.599V333.256H635.895V350.536H616.599V382.072C616.599 385.336 617.415 387.88 619.047 389.704C620.775 391.432 623.175 392.296 626.247 392.296C629.799 392.296 632.823 391.336 635.319 389.416L641.367 405.256Z" fill="white"/>
<path d="M412.951 219.436L413.231 219.53L413.837 218.259L414.536 216.189L415.608 216.472L417.053 219.295V219.765L415.795 220.659L417.053 220.8L419.477 219.624L419.337 216.048L418.172 215.201L417.24 214.26L417.426 212.378L422.32 211.673L434.299 210.308L437.422 210.026L440.032 210.073L439.799 209.038L439.1 208.662L438.681 208.144L439.147 206.921L438.96 204.474L438.215 202.357L438.587 199.957L439.38 197.699L439.287 196.899L438.448 196.57L438.215 194.876L436.956 193.276L436.024 190.218L435.371 187.066L434.532 184.714L432.761 177.186L431.13 173.469L430.757 170.834L430.803 169.799L426.608 170.175L415.701 171.211L410.015 171.587L409.922 174.598L410.015 182.455L409.689 197.04L409.549 203.674L410.854 212.52L411.6 219.436H412.951Z" fill="#989898"/>
<path d="M393.748 162.835L390.765 162.506L391.185 161.047L392.63 159.824L392.909 158.742L392.07 157.378L377.201 157.942L366.341 158.272L355.341 158.413L356.04 161.659L356.086 165.658L356.739 170.787L356.879 188.759L357.858 189.512L359.256 188.947L360.608 189.512L360.794 194.264L372.54 194.17L385.032 193.794L385.451 192.9L385.312 191.112L384.519 189.653L385.218 188.995L384.566 187.959L384.892 186.83L385.405 184.054L386.663 182.972L386.29 181.937L388.155 179.302L389.32 178.785L389.274 177.985L389.041 177.185L390.392 174.456L391.558 173.939L391.651 172.386L392.63 171.728L393.049 169.799L392.397 167.917L394.354 166.787L394.494 165.799L395.053 163.823L395.473 162.365L393.748 162.835Z" fill="#989898"/>
<path d="M182.972 183.349L182.832 184.054L183.065 184.525L191.875 189.559L197.515 193.135L204.367 197.181L212.197 201.886L217.93 203.015L229.77 204.285L232.566 185.654L235.829 160.671L237.88 146.086L226.414 144.392L198.121 139.217L198.027 139.734L196.816 147.497L195.837 149.285L194.532 149.191L193.972 147.968L192.76 147.78L192.201 147.262L191.688 147.309L190.71 148.109L190.57 151.308L190.43 152.014L190.197 157.895L189.498 159.024L189.311 160.577L190.616 162.929L191.129 165.517L191.455 166.035L191.968 166.458L191.782 167.587L190.989 168.152L189.404 168.905L188.659 169.752L187.913 171.445L187.68 173.751L186.281 175.115L185.396 175.539L185.349 178.267L185.07 179.02L185.303 179.397L187.12 179.585L186.701 180.996L185.909 182.125L184.184 182.314L182.972 183.349Z" fill="#989898"/>
<path d="M177.192 181.561L168.01 180.291L163.349 179.585L163.116 178.738V174.315L162.976 172.81L161.764 170.834L161.391 169.752L159.573 167.776L158.222 165.564L156.963 165.47L155.472 165.094L155.332 164.623L156.031 164.341L155.751 162.835L155.052 161.847L152.815 161.471L150.997 160.483L150.484 159.401L149.272 157.143L147.921 155.684H146.569L144.751 154.696L142.654 153.849L140.696 153.614L139.577 152.344L139.81 151.45L140.649 148.109L141.022 147.215V146.086L140.276 145.616L140.043 144.251L139.344 143.028L137.759 140.299L137.153 138.841L136.454 136.629L135.709 134.136L134.217 132.065L133.984 130.701L134.357 128.866H134.87L135.848 128.113L136.361 126.42L135.895 125.149L134.636 124.914L133.751 123.691L132.772 121.95L132.679 118.092L132.958 117.198L133.238 116.116L133.471 114.987L130.814 112.023V111.035L130.954 110.799L131.094 109.294L130.488 107.412L129.416 105.153L128.158 103.036L127.319 101.201L127.785 99.4606L128.064 96.7318L128.903 95.2732L129.043 92.2151L128.53 90.5213L127.785 88.5452L126.526 86.5692L126.899 85.0636L127.598 83.0876L128.437 82.7112L128.577 82.1936L130.022 80.9704L132.446 75.4186L132.539 71.937L133.327 69.6316L151.36 75.1834L163.293 78.2886L159.564 93.0149L155.523 108.588L161.41 117.621L181.061 146.933L189.032 159.213L188.845 160.671L190.15 163.118L190.663 165.658L191.129 166.364L191.455 166.646L191.362 167.305L190.71 167.776L189.125 168.528L188.239 169.516L187.447 171.351L187.214 173.563L186.002 174.739L184.93 175.256L184.883 178.173L184.603 179.067L185.07 179.867L186.468 180.008L186.281 180.761L185.629 181.702L183.811 181.984L177.192 181.561ZM142.747 158.554L143.353 159.26L143.259 159.871L141.768 159.824L141.488 159.26L141.209 158.554H142.747ZM143.632 158.554L144.192 158.272L145.87 159.26L147.315 159.824L146.895 160.107L144.798 160.013L144.052 159.26L143.632 158.554ZM153.281 167.87L154.12 168.952L154.493 169.422L155.192 169.705L155.472 168.999L155.005 168.152L153.747 167.211L153.234 167.305V167.87H153.281ZM152.628 171.963L153.467 173.468L154.027 174.362L153.327 174.457L152.722 173.892C152.722 173.892 152.395 173.186 152.395 172.998V171.963H152.628Z" fill="#989898"/>
<path d="M297.216 110.8L280.436 109.153L243.567 105.107L242.542 115.505L239.279 139.218L238.393 145.663L254.241 147.498L271.72 149.568L287.894 150.98L294.559 151.262L297.216 110.8Z" fill="#989898"/>
<path d="M517.127 89.8158L518.804 88.3102L519.69 87.3222L520.063 87.6045L521.321 86.8988L523.745 86.3812L527.008 84.7345L526.728 82.7584L526.355 80.6883L525.61 77.8654L523.605 78.3829L513.444 80.5942L513.724 82.0527L514.423 85.4873V89.3923L514.004 90.3804L514.796 91.4155L517.127 89.8158Z" fill="#989898"/>
<path d="M508.925 116.305L508.459 116.54L506.781 115.411L505.942 113.199L505.056 111.506L503.984 111.035L503.005 109.341L503.238 108.4L503.471 107.318L503.518 106.801L503.238 106.848L502.446 107.318L501.514 108.118L501.42 108.259L502.073 110.188L503.145 112.823L504.87 120.398L507.2 120.257L509.997 119.739L508.925 116.305Z" fill="#989898"/>
<path d="M469.678 209.461L467.254 209.132L466.927 209.508L467.627 211.578L467.44 214.025L465.529 213.554L465.436 212.237H463.525L461.055 212.566L445.953 213.46L442.13 213.319L441.338 212.519L440.173 210.543H437.423L434.346 210.778L417.846 212.754L417.706 214.072L418.452 214.825L419.804 215.765L419.944 219.718L421.482 219.435L424.278 218.447L427.075 218.212L429.126 217.93L432.668 218.777L436.444 220.612L437.19 221.317L438.541 221.835L439.287 222.729L439.427 223.999L440.919 223.387H442.736L444.414 222.493L446.139 220.8L447.584 220.894L447.817 220.376L447.444 219.906L447.537 219.012L449.402 218.635H450.614L451.965 219.341L453.923 220.047L455.042 221.788L456.3 222.258L456.813 223.858L458.398 224.611L459.143 225.834L460.029 226.116L462.453 226.728L463.059 228.186L464.457 229.927V234.397L463.758 236.608L463.898 237.878L464.504 240.137L465.343 242.019L465.716 241.784L466.415 239.666L465.203 239.196L465.063 238.914L465.809 238.631L467.906 239.102L468 239.855L466.508 242.442L465.529 243.571L467.207 245.312L468.419 246.771L469.771 249.264L471.122 251.099L472.101 253.452L472.94 253.593L473.686 252.605L474.525 253.122L475.737 255.004L476.017 256.698L477.462 258.768L477.834 258.157L479.652 258.298L481.33 259.38L482.915 261.826L483.288 263.426L483.428 264.79L483.94 265.261L484.546 265.496L485.665 265.026L486.364 264.273L488.182 264.179L489.627 263.473L490.886 261.968L490.652 261.074L490.513 259.944L490.792 259.051L490.652 258.157L491.771 257.545L491.911 255.945L491.631 255.098L491.398 249.453L490.792 245.877L488.695 242.019L487.017 239.29L485.805 236.796L484.453 235.432L483.101 231.95L483.428 231.292L483.94 230.68L483.195 229.316L481.33 227.575L479.093 224.987L477.368 222.023L474.898 217.6L473.173 213.037L472.101 209.602L469.678 209.461ZM477.928 271.895L479.046 271.613L479.652 271.518L480.351 270.436L481.424 269.684L482.029 269.919L482.822 270.06L483.008 270.577L481.377 271.142L479.419 271.848L478.347 272.412L477.928 271.895ZM484.22 269.542L484.779 270.06L486.038 269.072L488.508 267.096L490.233 265.261L491.398 262.156L491.864 261.356L491.958 259.756L491.631 259.991L491.165 261.309L490.466 263.473L488.974 265.967L486.924 267.943L485.339 268.837L484.22 269.542Z" fill="#989898"/>
<path d="M469.676 208.991L467.066 208.662L466.414 209.415L467.159 211.626L467.02 213.461L465.994 213.178L465.901 211.767H463.477L461.007 212.096L445.951 212.99L442.362 212.849L441.71 212.285L440.545 210.261L440.172 208.709L439.426 208.285L439.193 208.05L439.612 207.015L439.426 204.427L438.68 202.31L439.053 200.005L439.845 197.746L439.752 196.57L438.866 196.241L438.68 194.735L437.375 193.089L436.489 190.172L435.79 186.878L434.998 184.62L433.227 177.092L431.595 173.328L431.222 170.835L431.269 169.752L432.807 169.611L439.146 168.858L447.816 167.918L450.752 167.4L450.985 168.059L449.96 168.482L449.54 169.517L449.727 170.458L450.379 171.211L452.384 172.481L453.875 172.434L455.367 174.645L455.646 175.398L456.719 176.716L456.952 177.515L459.142 178.362L460.541 179.397L461.613 180.809L462.685 181.421L463.617 182.267L464.27 183.538L465.248 184.432L467.159 185.279L468.418 188.101L469.21 190.501L470.515 190.83L471.494 191.724L472.426 194.406L473.778 195.159L474.571 194.782L474.757 195.347L473.219 198.264L473.452 199.487L472.753 201.463L471.681 206.168L472.054 209.132L469.676 208.991Z" fill="#989898"/>
<path d="M379.531 86.3819L380.51 87.3699L380.65 87.6993L379.717 89.1107L379.857 90.9927L381.069 92.9217L382.514 93.6745L383.633 93.8156L384.052 94.6625L384.145 95.7917L385.311 96.2622L385.73 96.7797L385.963 97.5325L387.735 99.0851L388.014 99.979L387.688 101.39L386.895 103.131L386.616 104.26L385.637 105.013L384.891 105.248L382.234 105.954L381.489 108.213L381.861 109.059L382.654 109.765L382.561 111.412L381.675 112.071L381.349 112.917V114.047L380.696 114.235L379.904 114.894L379.671 115.693L379.857 116.493L379.251 116.964L378.179 115.693L377.527 114.376L373.658 114.752L368.997 115.035L346.064 115.599L345.318 113.576L345.132 110.424L344.479 108.448L344.153 106.001L343.128 104.26L342.662 102.096L341.403 98.4264L340.89 95.7917L340.238 94.8977L339.632 93.5333L340.424 91.7455L340.984 88.8755L339.725 87.8404L339.585 86.7112L339.911 85.5821L340.75 85.4409L369.23 85.1586L379.111 84.8293L379.531 86.3819Z" fill="white"/>
<path d="M201.711 12.9991L199.474 21.1904L197.376 31.0048L195.792 38.6361L195.605 43.1857L196.165 45.2747L197.796 46.5262L197.703 48.3658L195.885 50.436L193.787 53.5412L193.368 54.9056L192.809 55.4231L191.97 55.7995L189.965 58.2931L189.779 59.7516L189.592 60.2692L189.872 60.7397L191.084 60.6926L191.597 61.7747L190.478 64.5036L189.919 66.4796L185.817 83.0879L195.465 85.2051L213.877 88.9219L230.097 91.7919L232.381 78.0536L234.153 66.7149L232.894 65.5857L232.708 64.3624L232.335 63.8449L231.356 64.3154L231.03 65.5387L229.538 65.7739L227.72 65.0211L225.949 65.0682L224.784 65.3975L223.199 64.6918L222.08 64.7859L220.962 65.7268L220.029 65.2093L219.703 63.3274L220.029 61.9629L218.864 60.5985L217.326 59.3752L216.067 53.2118L216.021 51.0005L215.881 50.9535L215.788 51.1417L213.411 52.7884L212.618 52.6943L211.267 51.0946L211.173 49.6361L214.436 41.5766L214.25 40.6639L212.665 40.1228L212.385 39.5677L211.173 37.9398L209.029 33.1267L207.538 32.4068L206.605 30.0779L207.211 27.8995L205.72 24.3332L207.771 14.2083L201.711 12.9991Z" fill="#989898"/>
<path d="M408.384 100.825L408.011 99.6021L407.405 97.8613L406.659 97.0144L405.96 95.7912L405.773 93.2035L398.362 94.0504L390.252 94.5209H384.519L384.612 95.5089L385.638 95.9323L386.15 96.591L386.337 97.2497L388.155 98.8494L388.481 99.9785L388.155 101.531L387.362 103.272L386.989 104.542L385.871 105.436L384.985 105.718L382.561 106.33L381.955 108.259L382.235 108.777L383.121 109.624L383.027 111.647L382.048 112.399L381.815 113.011V114.328L380.976 114.611L380.324 115.175L380.137 115.74L380.324 116.681L379.578 117.293L379.159 118.61L379.298 120.445L380.37 123.738L383.633 127.314L386.29 129.055V131.125L386.616 131.689L389.693 131.972L390.951 132.63L390.625 134.277L389.599 137.194L389.227 138.606L390.159 140.346L393.142 142.84L395.379 143.216L396.405 145.616L397.337 147.216L396.917 148.533L397.617 150.321L398.409 151.309L399.155 151.168L399.621 150.133L400.739 149.333L402.045 148.862L404.888 150.039L405.121 149.944V149.427L404.562 148.157L404.748 146.839L405.867 146.086L407.452 145.522L407.218 144.91L406.846 143.969L407.405 143.358L407.871 142.087V140.205L408.057 137.9L409.223 136.488L410.062 134.701L411.227 132.819L410.994 130.325L410.155 128.82L410.015 127.267L410.388 124.773L410.062 121.386L409.549 113.952L408.896 106.754L408.477 101.249L408.384 100.825Z" fill="white"/>
<path d="M410.342 101.672L411.041 102.143L411.553 102.002L412.532 101.108L413.698 100.261L420.363 99.7434L428.939 98.8965L429.685 106.189L431.969 126.232L431.689 127.596L432.295 128.349L432.389 128.961L431.317 129.714L429.639 130.513L428.147 130.702L427.914 132.96L425.723 134.654L424.371 136.536L424.465 137.665L424.232 138.324H422.6L421.948 137.524L419.524 138.935L419.617 140.394L419.198 140.488L418.965 140.064L417.846 139.264L416.168 139.97L415.515 141.335L414.956 141.052L414.21 140.205L412.159 140.441L409.503 140.911L408.337 141.523V140.3L408.524 138.088L409.596 136.724L410.435 134.889L411.693 132.913L411.46 130.184L410.621 128.726L410.481 127.22L410.854 124.726L410.528 121.386L410.109 115.458L408.943 101.296L410.342 101.672Z" fill="white"/>
<path d="M346.485 122.092L326.07 121.81L307.145 121.245L297.031 120.821L295.027 151.309L306.353 151.78L327.188 152.768L348.769 153.05L354.642 152.909L354.968 136.442L354.409 131.219L353.244 130.278L352.125 128.867L351.053 127.173L351.333 125.762L352.125 125.103V124.115L351.752 123.786L350.54 123.691L348.909 122.092H346.485Z" fill="white"/>
<path d="M403.024 156.108L408.897 155.779L408.943 153.85H410.948L425.117 152.344L446.139 150.321L448.749 148.627L450.567 147.639L450.614 146.745L453.41 143.076L455.321 141.382L456.3 140.253L454.762 139.312L453.597 138.041L452.198 136.254L451.965 135.218L450.753 134.56L450.334 133.666L450.241 130.796L449.029 129.855L448.143 129.337L447.91 128.255L447.304 128.349L446.372 128.914L445.207 130.184L444.321 129.384L443.156 129.149L442.037 129.808H440.965L440.126 128.867L437.516 128.82L436.677 126.703L435.325 125.997L434.346 126.373L432.389 126.467L432.156 127.455L432.715 128.161L432.855 129.149L431.55 130.09L429.778 130.937L428.567 131.125L428.334 133.242L426.05 134.936L424.838 136.677L424.931 137.712L424.511 138.794L422.414 138.747L421.808 138.135L419.99 139.171L420.083 140.723L418.965 141.005L418.592 140.347L417.799 139.782L416.541 140.3L415.702 141.946L414.676 141.476L414.024 140.723L412.299 140.911L409.689 141.382L408.384 141.993L407.825 143.593L407.359 144.064L408.058 145.804L406.1 146.463L405.214 147.122L405.028 148.157L405.587 149.286V150.321L404.842 150.509L401.998 149.333L400.926 149.757L399.994 150.415L399.621 151.262L400.413 152.391L399.994 153.238L399.947 154.791L398.829 155.402L397.85 156.202L403.024 156.108Z" fill="#989898"/>
<path d="M365.595 228.61L369.371 228.469L374.172 230.163L377.202 230.681L378.926 229.975L380.418 230.492L381.909 230.963L382.282 229.975L380.791 229.457L379.579 229.693L378.32 228.94L378.693 228.234L380.138 227.764L380.977 228.469L381.816 227.999L383.308 228.281L384.007 229.41L384.147 230.492L386.244 230.633L387.083 231.48L386.71 232.233L386.104 232.61L386.85 233.362L390.765 235.056L392.443 234.444L392.909 233.315L394.121 233.033L394.96 232.327L395.566 232.798L395.939 234.162L394.867 234.539L395.147 234.821L396.732 234.209L397.804 232.61L398.177 232.374L397.198 232.233L397.571 231.48L397.477 230.775L398.456 230.539L398.969 229.928L399.249 230.304L399.528 231.763L401.486 232.045L403.35 232.939L403.816 233.645H405.168L405.681 234.115L406.753 232.657V231.951H406.147L404.562 230.681L401.859 230.304L400.367 229.222L400.88 227.952L401.952 228.093L402.045 227.811L401.206 227.34V227.105H402.698L403.537 225.646L402.931 224.752L402.791 223.482L402.092 223.576L401.206 224.564L400.927 225.787L399.482 225.505L399.016 224.658L399.855 223.764L400.74 222.965L399.715 219.906L398.13 218.307L398.596 214.872L398.503 214.637L397.897 214.731L382.469 215.39L382.096 214.26L382.469 210.261L386.477 203.298L386.058 202.075L386.71 201.887L386.897 200.946L385.871 200.005L385.918 199.111L384.986 196.994L384.799 194.594L384.846 194.265L372.54 194.641L360.794 194.688L360.981 199.252L361.307 203.722L361.54 205.462L362.752 207.58L363.172 209.65L365.176 212.473L365.316 213.931L365.595 214.308L365.269 218.213L363.964 220.377L364.523 221.506L364.29 222.729L363.917 226.164L363.311 227.575L363.405 229.316L365.595 228.61Z" fill="#989898"/>
<path d="M533.675 81.1596L533.442 80.0774L533.815 79.3717L535.167 78.666L535.54 80.1245L535.307 80.9714L534.188 81.6771V82.1476L535.074 81.4419L536.891 79.3247L538.709 78.4307L540.667 77.725L540.527 76.5958L540.061 75.2314L539.175 74.1022L538.336 73.7258L537.358 73.8199L537.125 74.0552L537.591 74.6668L538.29 74.2904L539.269 75.0432L539.641 76.3135L538.802 77.1604L537.73 77.6309L536.052 77.3957L534.235 74.5727L533.163 73.3495H532.324L531.811 73.7258L530.925 72.5026L531.065 71.7968L532.184 69.3503L530.832 67.2802L529.107 68.127L528.268 69.4914L519.739 71.7027L513.306 72.879L513.027 77.8661L513.353 80.1715L523.607 77.9132L528.828 76.5958L529.76 77.3486L531.345 79.3717L532.696 81.583L533.675 81.1596ZM539.502 81.8182L540.527 81.4889L540.76 80.6891L541.226 80.7361L541.692 81.8182L541.086 82.0535L539.269 82.1005L539.502 81.8182ZM535.12 82.1946L536.192 80.9714H536.938L537.777 81.6771L536.658 82.1476L535.633 82.6181L535.12 82.1946Z" fill="#989898"/>
<path d="M509.11 124.256L509.902 122.468L510.135 120.21L507.199 120.727L504.495 120.868L502.724 112.964L501.652 110.376L500.953 108.212L490.605 110.235L473.079 113.811L474.012 118.704L476.249 116.399L477.414 116.069L478.067 115.363L478.906 114.093L479.651 114.422L480.863 114.328L482.075 113.34L483.007 112.635L483.986 112.352L484.686 112.87L485.944 113.529L486.83 114.375L487.436 115.034L489.673 115.787L489.393 117.151L492.097 118.139L493.075 116.916L494.8 118.092L493.821 119.645L493.495 121.198L492.656 122.421V123.409L492.796 123.785L493.728 124.397L495.313 124.914L497.317 124.867L498.762 125.338L499.741 125.479L500.207 124.491L499.508 123.503V122.656L498.389 121.668L497.41 119.08L498.016 116.587L497.923 115.599L497.317 114.987C497.317 114.987 498.016 114.234 498.016 113.905C498.016 113.623 498.249 112.917 498.249 112.917L499.135 112.305L500.021 111.553L500.254 112.023L499.554 112.776L498.948 114.517L499.088 115.034L499.927 115.175L500.16 117.763L499.182 118.233L499.321 119.927L499.554 119.833L500.067 118.939L500.813 119.786L500.067 120.398L499.927 121.997L501.139 123.597L502.957 123.832L503.703 123.456L505.194 125.432L505.66 125.62L509.11 124.256ZM502.351 124.35L502.864 125.526L502.957 126.373L503.47 127.267C503.47 127.267 503.889 126.843 503.889 126.702C503.889 126.561 503.563 125.244 503.563 125.244L503.237 124.162L502.351 124.35Z" fill="#989898"/>
<path d="M523.561 43.238L524.26 43.4262V42.2029L524.633 39.6153L525.844 37.404L526.544 35.522L525.658 34.3928V31.5699L526.031 31.0994L526.404 29.8291L526.311 29.1234L526.217 26.865L527.056 24.6067L528.408 20.4193L529.387 18.4433H529.993L530.599 18.5374V19.0549L531.205 20.137L532.463 20.4193L532.836 20.0429V19.5724L534.701 18.208L535.54 17.3611L536.239 17.4552L539.035 18.5844L539.921 19.0549L544.163 33.1225H546.959L547.332 34.0164L547.425 36.2748L548.777 37.3569H549.15L549.243 37.1217L549.01 36.6041L550.315 36.3689L551.201 37.3569L552.273 39.0977V39.9917L551.294 42.2029L550.409 42.4852L548.824 43.9438L546.586 46.5314H545.98C545.701 46.5314 545.514 45.5434 545.514 45.5434L544.675 45.6375L544.209 46.3433L543.091 47.049L542.624 47.7547L543.37 48.4605L543.137 48.7427L542.904 50.0131L542.019 49.919V49.1662L541.879 48.5545L541.18 48.6957L540.341 47.1901L539.362 47.8018L539.968 48.5075L540.107 49.025L539.735 49.6367L539.874 51.0952L539.968 51.848L539.222 53.0712L537.87 53.3065L537.73 54.6709L535.26 56.1294L534.654 56.3647L533.908 55.6589L532.463 57.3527L532.929 58.8583L532.23 59.4699L532.137 61.54L531.624 64.5041L530.599 64.0807L530.366 62.6222L528.501 62.1046L528.408 60.9284L522.955 43.318L523.561 43.238ZM540.574 50.5777L541.273 49.8719L541.925 50.3895L542.205 51.5186L541.413 51.9421L540.574 50.5777ZM543.697 47.8018L544.536 48.6957C544.536 48.6957 545.141 48.7427 545.141 48.6016C545.141 48.4605 545.235 47.6606 545.235 47.6606L545.654 47.2842L545.281 46.4373L544.349 46.7667L543.697 47.8018Z" fill="#989898"/>
<path d="M420.41 99.2725L429.313 98.3786L429.406 98.8961L434.02 98.1904L439.614 97.3906L439.66 97.1083L439.753 96.4026L440.732 94.6617L441.665 93.8619L441.571 91.4624L442.317 90.7096L442.83 90.5685L442.923 88.8747L443.622 87.4633L444.135 87.7456L444.228 88.0279L444.601 88.122L445.487 87.6515L445.3 83.37L443.809 79.512L442.737 75.2306L441.618 73.725L440.406 72.8781L439.66 73.3956L437.842 74.2425L436.957 76.595L435.698 78.3358L435.186 78.6181L434.486 78.3358C434.486 78.3358 433.275 77.63 433.368 77.3478C433.461 77.0655 433.601 74.9953 433.601 74.9953L435.186 74.3837L435.559 72.784L435.838 71.5607L436.957 70.808L436.817 66.1031L436.071 65.0209L435.465 64.6446L435.092 63.6565L435.465 63.2801L436.211 63.4213L436.304 62.6685L435.092 61.6334L434.486 60.4102H433.275L431.177 59.7044L428.613 58.1048H427.355L427.075 58.3871L426.609 58.1518L425.164 57.0697L423.813 57.9166L422.461 58.9987L422.601 60.6924L423.067 60.8336L424.046 61.0688L424.279 61.4452L423.067 61.8216L421.855 61.9628L421.156 62.8096L421.016 63.7977L421.156 64.5505L421.296 67.1381L419.618 68.1262L419.338 68.0321V66.056L419.944 64.9268L420.223 63.7977L419.851 63.4213L418.965 63.7977L418.499 65.7737L417.24 66.2913L416.401 67.1852L416.308 67.6557L416.588 68.0321L416.308 69.2553L415.236 69.4906V70.0081L415.609 71.1373L415.096 74.0073L414.351 75.8892L414.63 78.1005L414.863 78.6181L414.49 79.7472L414.351 80.1236L414.211 81.394L415.889 84.2169L417.24 87.2751L417.94 89.5334L417.567 91.7447L417.101 94.5676L415.982 97.0142L415.842 98.2845L414.351 99.743L420.41 99.2725ZM404.889 65.2091L404.283 64.6916L403.444 59.7985L401.719 59.1869L400.927 58.1048L395.054 56.7874L393.748 56.2699L389.973 55.2348L386.337 54.7643L384.52 52.2707L384.846 52.0354L386.104 51.6591L387.782 50.5769V50.1064L388.062 49.8242L390.859 49.3537L391.977 48.4597L394.028 47.4717L394.121 46.8601L395.007 45.4957L395.846 45.1193L396.452 44.2724L397.524 43.1903L399.575 42.0611L401.766 41.8258L402.278 42.3434L402.138 42.8139L400.414 43.2844L399.715 44.7429L398.643 45.1193L398.41 46.2484L397.291 47.754L397.151 48.9773L397.524 49.2125L397.99 48.695L399.668 47.3306L400.274 47.9422H401.346L402.838 48.4127L403.537 48.9302L404.236 50.3887L405.494 51.6591L407.312 51.565L408.011 51.0945L408.757 51.7061L409.503 51.9414L410.109 51.565H410.622L411.367 51.0945L413.232 49.4007L414.817 48.8832L417.893 48.742L419.99 47.8481L421.202 47.2365L421.902 47.3306V50.0123L422.135 50.1535L423.486 50.5299L424.372 50.2946L427.215 49.5419L427.728 49.0243L428.427 49.2596V52.553L429.919 54.0115L430.525 54.2938L431.13 54.7643L430.525 54.9054L430.152 54.7643L428.427 54.529L427.448 54.8113L426.376 54.7172L424.885 55.423H424.046L421.342 54.8113L418.918 54.9054L418.033 56.1287L414.77 56.411L413.651 56.7874L413.139 58.2459L412.533 58.7634L412.3 58.6693L411.6 57.9166L409.503 59.0457H409.223L408.711 58.293L408.338 58.3871L407.452 60.4572L406.986 62.3392L405.494 65.5855L404.889 65.2091ZM391.092 38.6265L391.931 37.6385L392.956 37.2621L395.473 35.4272L396.545 35.1449L396.778 35.3801L394.401 37.7796L392.863 38.6736L391.884 39.097L391.092 38.6265ZM431.27 53.7292L431.55 54.9054L433.042 54.9995L433.647 54.4349C433.647 54.4349 433.601 53.7292 433.461 53.6822C433.321 53.5881 432.715 52.7882 432.715 52.7882L431.69 52.8823L430.944 52.9764L430.804 53.494L431.27 53.7292Z" fill="white"/>
<path d="M336.555 31.4232L336.276 33.2628V38.0947L337.021 40.4612L337.907 42.0233L338.14 46.6952L338.979 53.0233L339.818 56.4579L340.004 59.469V61.9626L339.259 62.8095L338.42 63.4211V64.1268L338.839 64.9267L340.75 66.5734L341.076 68.0789V84.9695L369.183 84.6872L379.064 84.3579L378.831 81.5349L377.992 80.5469L374.636 78.3826L372.958 75.8891L371.374 75.4656L370.441 74.1482H368.95L367.318 72.3604L367.085 69.067L367.132 67.2321L367.831 65.8206L367.505 64.5503L366.2 63.0918L367.225 60.2218L369.742 58.3398L370.302 57.6811L370.208 53.9172L370.302 52.5058L371.513 51.0943L373.285 49.7299L373.891 49.6358L375.988 47.2833L376.827 46.9069L377.899 45.072L379.018 43.3783L380.463 42.155L382.7 41.214L386.988 39.285L388.806 38.4381L389.086 37.356L387.035 37.5442L386.709 38.0617H386.429L385.59 36.6032L381.442 36.7444L380.975 37.1208H380.509L380.276 36.5091L379.903 35.6623L378.692 35.8975L377.2 37.4031L376.454 37.7795H375.009L373.797 37.309V36.3209L373.191 36.2268L372.958 36.4621L371.746 35.8504L371.513 34.486L370.814 34.7213L370.581 35.1918L369.463 34.9565L366.992 33.8273L365.174 32.6041H363.823L363.217 32.1336L362.145 32.4159L361.632 32.9334L361.492 33.5451H359.255V32.557L356.318 32.4159L356.178 31.7101H353.941L353.195 30.9574L352.496 28.0874L352.123 25.4997L351.238 25.1233L350.166 24.8881L349.886 24.9822L349.746 28.8402L335.716 28.8261L336.555 31.4232Z" fill="white"/>
<path d="M396.45 159.355L396.683 156.579L398.641 154.979L399.526 154.509V153.144L399.853 152.391L399.34 151.639L398.221 151.78L397.243 150.604L396.45 148.486L396.87 147.263L395.937 145.757L395.098 143.593L392.954 143.264L389.785 140.629L388.759 138.653L389.132 137.101L390.158 134.278L390.437 132.866L389.552 132.396L386.336 132.113L385.823 131.219V129.29L383.352 127.644L379.996 123.974L378.924 120.539L378.691 118.563L379.018 117.434L377.806 115.976L377.246 114.846L373.657 115.223L368.996 115.505L346.25 116.07L346.856 117.293L346.809 118.328L347.882 120.022L349.28 121.857L350.725 123.268L351.937 123.362L352.589 123.88V125.244L351.75 125.997L351.517 127.079L352.496 128.585L353.615 129.996L354.827 130.984L355.432 136.442L355.06 155.261L355.293 157.943L366.339 157.849L377.2 157.52L392.348 156.908L393.374 158.649L393.001 160.107L391.556 161.284L391.323 162.131L393.747 162.366L395.658 161.848L396.45 159.355Z" fill="white"/>
<path d="M401.671 222.306L402.883 220.33L403.722 220.706L406.891 219.812L407.87 219.953L408.569 220.33H410.993L411.18 219.577L410.387 212.614L409.082 203.674L409.548 182.455L409.455 174.598L409.548 171.634L407.311 171.775L398.175 172.528L392.116 172.716L392.023 174.222L390.717 174.833L389.506 177.233L389.739 177.986L389.785 179.115L388.434 179.632L386.802 182.032L387.175 183.114L385.777 184.29L385.311 186.972L385.031 187.866L385.777 189.042L385.078 189.701L385.777 191.018L385.917 192.994L385.357 194.17L385.264 194.594L385.45 196.946L386.383 199.064L386.336 199.863L387.408 200.804L387.082 202.263L386.662 202.404L386.942 203.298L382.933 210.355L382.561 214.213L382.794 214.919L394.073 214.59L397.896 214.26L398.781 214.119L399.061 214.778L398.595 218.118L400.133 219.671L401.158 222.682L401.671 222.306Z" fill="#989898"/>
<path d="M288.315 33.2959L285.844 60.175L285.238 67.3264L257.691 64.2212L234.852 60.8807L234.199 66.1502L233.314 65.3504L233.127 64.1741L232.521 63.2802L230.983 63.986L230.657 65.1622L229.585 65.3033L227.813 64.5505L225.902 64.5976L224.784 64.9269L223.292 64.2212L221.894 64.3153L220.915 65.2092L220.496 64.9269L220.169 63.3273L220.496 61.8217L219.237 60.3161L217.699 59.1399L216.534 53.2118L216.487 50.7182L215.741 50.3418L215.462 50.8123L213.364 52.3178L212.805 52.2708L211.733 50.9534L211.639 49.636L214.902 41.5671L214.623 40.3109L212.991 39.784L212.805 39.3558L211.546 37.7091L209.402 32.8113L207.911 32.068L207.072 30.0637L207.677 27.8853L206.186 24.3237L208.237 14.307L223.479 17.5487L232.055 19.1483L247.11 21.6419L260.767 23.5239L274.378 25.1706L288.734 26.615L288.315 33.2959Z" fill="#989898"/>
<path d="M486.69 168.294L480.77 164.671L479.325 164.294L471.588 165.283L470.842 163.871L469.537 162.836L461.753 163.071L458.304 163.495L454.015 165.612L450.846 166.882L447.816 167.447L441.57 168.105L441.617 166.176L442.409 165.565L443.668 165.235L443.994 163.448L445.812 162.271L447.63 161.566L449.727 159.825L451.778 158.743L452.104 157.237L454.015 155.449L454.342 155.92L455.507 156.014L456.626 154.32L457.418 154.132L458.63 154.273L459.469 152.391L460.634 151.262L460.867 150.415L460.914 148.768L462.965 148.815L480.91 146.181L507.711 140.394L508.644 142.652L510.322 145.71L511.44 146.839L511.72 147.921L510.601 148.016L510.974 148.298L510.834 150.274L509.622 150.886L509.343 151.874L508.737 153.238L507.012 153.991L505.894 153.85L505.194 153.756L504.449 153.144L504.588 153.756V154.226H505.474L505.847 154.838L504.961 157.802H506.919L507.199 158.555L508.271 157.472L508.877 157.237L507.991 158.931L506.546 161.189H505.94L505.427 160.954L504.169 161.236L501.745 162.365L498.715 164.859L497.131 167.07L496.245 170.129L496.012 171.258L493.821 171.493L491.444 172.199L486.69 168.294ZM509.669 155.967L510.881 154.791L512.372 153.567L513.072 153.285L513.165 152.344L512.885 149.474L512.186 148.392L511.906 147.498L512.233 147.404L513.491 149.992L513.678 152.062L513.584 153.661L512 154.367L510.694 155.496L510.182 156.061L509.669 155.967Z" fill="#989898"/>
<path d="M339.539 59.4694L339.352 56.5523L338.513 53.1178L337.674 46.7144L337.441 42.1507L336.556 40.6545L335.81 38.1515V33.2537L336.09 31.4424L335.251 28.8358L321.92 28.5583L313.25 28.276L300.898 27.6643L289.152 26.6481L288.733 33.4325L286.542 57.3992L313.017 59.2341L339.539 60.0339V59.4694Z" fill="white"/>
<path d="M339.212 96.1203L338.746 95.0382L338.513 94.2854L337.161 93.5326L334.924 92.8269L333.898 92.2623L332.686 92.3093L330.962 92.4975L329.004 93.0621L326.207 91.1331L325.182 90.1921L320.195 90.4744L300.851 89.3453L284.257 88.3102L282.253 108.871L297.681 110.423L297.029 120.35L307.143 120.821L326.068 121.386L346.483 121.668H348.581L347.555 120.256L346.343 118.421L346.39 117.339L345.737 116.069L344.852 113.622L344.665 110.47L344.013 108.541L343.78 106.189L342.708 104.448L342.242 102.237L340.936 98.5198L340.47 96.0262L339.212 96.1203Z" fill="white"/>
<path d="M530.972 66.4797L531.485 64.9742L530.226 64.4096L529.993 62.9511L528.082 62.4335L527.942 61.0221L522.489 43.3881L522.162 43.4258L521.883 44.1785L521.603 43.9433L521.137 43.4728L520.438 44.3667L520.345 45.4442L520.578 49.401L521.463 50.7183V52.7414L519.645 54.9998L518.527 55.4232V55.7526L519.039 56.6465V60.6927L518.667 65.0212L518.573 67.2325L519.039 67.8912L518.946 70.1025L518.713 70.8082L519.179 71.3258L521.556 70.7612L527.989 69.1145L528.781 67.75L530.646 66.8561L530.972 66.4797Z" fill="#989898"/>
<path d="M503.936 107.412L503.983 106.707L505.241 106.095L506.033 104.778L506.826 103.648L508.364 102.143V101.578L505.521 99.6492L505.055 98.3789L503.796 98.2377L503.75 97.8143L503.423 96.7792L504.449 96.2617L504.542 94.8972L503.936 94.2856L504.029 93.721L504.915 92.2625V90.804L506.08 89.3455L508.69 90.5217L511.674 91.4156L512.839 91.9802L512.885 92.8271L512.652 94.0974L512.839 96.2146L511.86 97.1085L511.347 97.579L511.58 97.8143L512.839 97.6731L513.352 97.2967L514.097 98.8964L514.191 103.319L514.47 103.837L513.957 106.424L512.513 109.482L511.254 111.364L510.881 113.623L509.902 114.752H509.529L509.39 113.482L509.762 113.011L509.669 112.305L507.805 112.023L505.567 110.941L504.076 109.577L503.61 108.636L503.936 107.412Z" fill="#989898"/>
<path d="M245.944 202.027L238.16 200.804L237.601 205.321L230.236 204.38L233.033 185.701L236.295 160.671L238.346 146.133L254.194 147.968L271.627 150.038L286.542 151.356L286.402 156.437L285.75 156.39L282.3 202.357L269.063 201.51L251.304 199.769L251.63 202.733L245.944 202.027Z" fill="#989898"/>
<path d="M177.38 81.677L195.419 85.6761L207.538 88.1227L202.597 113.106L200.08 127.126L198.542 134.419L197.563 139.641L196.351 147.357L195.559 148.816L194.813 148.769L194.253 147.545L192.948 147.31L192.342 146.793L191.503 146.84L191.084 147.216L190.245 147.828L190.105 151.262L189.965 151.968L189.732 157.802L189.219 158.649L181.435 146.652L161.812 117.434L156.018 108.495L160.004 93.1569L163.737 78.4306L177.38 81.677Z" fill="#989898"/>
<path d="M513.118 94.0971L513.351 92.8267L513.258 91.6976L511.859 90.9918L508.83 90.0509L506.033 88.8276L505.753 88.6394L504.495 88.4982L503.563 87.7925L502.584 85.0166L501.046 84.7814L499.927 83.6522L482.028 87.4632L467.299 90.2861L467.066 87.2279L467.812 86.6633L468.418 86.1458L468.884 85.393L469.723 84.8755L470.609 84.0286L470.842 83.2758L471.821 82.0055L472.333 81.535L472.24 81.0645L471.634 79.606L470.795 79.5119L469.909 76.6419L471.261 75.795L473.312 75.0893L475.177 74.4777L476.668 74.2424L479.605 74.1483L480.49 74.76L481.236 74.8541L482.215 74.2424L483.427 73.7249L485.85 73.4896L486.829 72.6428L487.668 71.1372L488.414 70.2433H489.393L490.279 69.7257L490.372 68.6436L489.673 67.6556L489.533 66.9498L490.045 65.9618V65.2561H489.206L488.367 64.8797L487.995 64.3622L487.901 63.1389L490.605 60.5512L490.884 60.1748L491.584 58.8104L492.935 56.6932L494.194 54.9524L495.173 53.8232L496.291 52.9763L497.736 52.4117L500.3 51.8001L501.791 51.8942L503.889 51.1885L507.338 50.1534L507.664 52.4588L508.783 55.517L509.156 57.8694L508.69 59.8455L509.902 61.9627L510.275 62.9036L509.855 64.4092L511.58 65.209L512.838 70.008V72.7369L512.559 77.8652L512.932 80.4058L513.258 82.0996L513.957 85.5342V89.3451L513.444 90.4272L514.423 91.6976L514.656 92.121L513.771 92.9679L513.91 93.5795L514.516 93.4384L515.215 92.8267L516.288 91.6035L516.8 91.3212L517.546 91.6035L518.618 91.6976L522.3 89.8627L523.652 88.5923L524.258 87.8866L526.216 88.6394L524.631 90.3331L522.813 91.6976L519.504 94.1912L518.292 94.6616L515.588 95.5556L513.724 96.0731L513.258 95.8849L513.118 94.0971Z" fill="#989898"/>
<path d="M429.405 99.3662L430.198 106.659L432.435 125.996L434.253 125.902L435.325 125.525L437.003 126.372L437.795 128.348L440.312 128.395L441.151 129.336H441.944L443.062 128.678L444.507 128.913L445.206 129.525L446.045 128.584L447.117 127.925L448.236 127.737L448.516 129.007L449.261 129.477L450.473 130.418L450.846 130.513L451.778 130.466L452.338 130.183V129.195L453.13 128.489L453.177 126.231L453.689 124.255L454.575 123.643L455.041 123.973L455.507 124.49L455.834 124.584L456.02 124.396L455.601 123.126V122.091L456.113 121.432L457.279 119.738L457.884 119.033L458.91 119.268L459.889 118.562L461.287 117.01L462.313 115.269L462.406 112.728L462.639 110.376V108.211L462.079 106.706L462.639 105.859L463.245 105.294L462.965 103.977L460.961 91.9325L458.071 93.6733L456.253 94.7554L454.668 96.4962L452.804 98.3311L451.312 98.7075L449.961 98.9428L447.397 100.166L446.418 100.26L444.833 98.8016L442.41 99.0839L441.198 98.3782L440.172 97.7666L429.405 99.3662Z" fill="white"/>
<path d="M311.993 157.566L311.154 168.999L310.734 177.468L310.828 178.22L312.692 179.914L313.484 180.338H313.904L314.323 179.35L315.023 180.244L315.768 180.291L315.908 180.196L316.001 179.679L317.306 180.338L317.12 181.984L318.891 182.22L320.057 182.69L322.014 182.972L323.086 183.725L324.252 182.925L325.883 183.255L326.908 184.713L327.468 184.76V185.842L328.446 186.172L329.612 185.184L330.451 185.466L331.709 185.513L332.036 186.595L334.086 187.442L334.879 187.301L335.764 185.325H336.37L336.883 186.313L338.841 186.689L340.426 187.301L341.824 187.677L342.57 187.348L342.896 186.078H344.993L345.879 186.501L347.137 185.607H347.79L348.07 186.266H349.748L350.68 185.419L351.752 185.701L352.544 186.736L353.943 187.536L355.527 187.96L356.413 188.524L356.273 170.834L355.621 165.705L355.574 161.659L354.875 158.554L354.595 155.355L354.642 153.332L348.769 153.473L327.188 153.237L306.353 152.249L287.009 151.403L286.823 156.437L311.993 157.566Z" fill="#989898"/>
<path d="M151.437 74.7607L164.6 78.1482L177.427 81.2064L185.351 82.9472L189.453 66.4331L190.012 64.3629L191.131 61.7752L190.804 61.1636L189.639 61.2106L189.033 60.3638L189.313 59.658L189.499 58.1054L191.69 55.4236L192.576 55.0002L192.995 54.6238L193.321 53.3535L193.694 52.8359L195.512 50.1541L197.237 48.2722L197.33 46.7384L195.745 45.5669L195.186 43.4262L189.08 41.6242L181.948 39.9916L175.05 40.1657L174.537 39.5493L172.16 40.415L170.063 40.1892L168.944 39.4458L168.338 39.6999L166.157 39.5634L165.243 38.8906L162.987 38.0579L162.474 38.0249L160.4 37.4274L159.58 38.1426L156.662 38.0296L154.187 36.2183L154.285 31.8521L153.329 30.2054L151.418 29.9231L151.092 28.7469L149.973 28.5117L147.27 29.4997L146.198 32.5579L144.706 37.2628L143.215 40.3209L140.884 46.9548L137.854 53.3535L134.079 59.2816L133.193 60.646L132.82 64.6923L132.214 67.5152L133.478 69.1619L151.437 74.7607Z" fill="#989898"/>
<path d="M463.338 90.4271L463.944 90.1918L466.601 87.6041L466.927 90.8505L482.542 87.7923L499.741 84.1225L500.813 85.2046L502.258 85.3928L503.191 88.0276L504.309 88.9215L505.614 89.1097L505.661 89.1567L504.449 90.6623V92.1208L503.564 93.5793L503.47 94.4733L504.076 95.0849L503.983 95.9788L502.864 96.4964L503.33 98.096L503.424 98.6136L504.729 98.7547L505.148 99.9309L507.898 101.766V101.954L506.453 103.366L505.754 104.401L504.962 105.718L503.703 106.283L503.051 106.424L502.072 107.035L501.326 107.694L490.885 109.717L472.847 113.387L467.58 114.046L465.762 114.375L463.385 103.836L461.38 91.6503L463.338 90.4271Z" fill="#989898"/>
<path d="M527.195 82.6645L526.822 80.5943L526.076 77.7714L528.733 77.0657L529.432 77.6773L531.017 79.7004L532.322 81.7706L531.017 82.4293L530.411 82.3352L529.898 83.182L528.779 84.076L527.474 84.5935L527.195 82.6645Z" fill="#989898"/>
<path d="M473.778 194.593L472.799 194.123L471.914 191.488L470.748 190.406L469.583 190.171L468.884 188.006L467.486 184.948L465.528 184.101L464.642 183.255L464.083 182.031L462.964 181.09L461.892 180.479L460.867 179.114L459.375 177.985L457.324 177.185L457.138 176.527L456.066 175.209L455.833 174.503L454.062 171.963L452.477 172.01L450.659 170.834L450.1 170.269L450.006 169.61L450.286 168.858L451.545 168.246L451.172 167.305L454.155 166.035L458.443 163.917L461.752 163.494L469.397 163.259L470.469 164.153L471.308 165.799L473.452 165.423L479.325 164.717L480.583 165.094L486.41 168.575L491.117 172.48L488.647 175.021L487.435 177.891L487.202 180.855L486.456 181.231L485.943 182.502L484.825 182.784L483.846 184.478L482.588 185.748L481.515 187.348L480.77 187.724L479.092 189.324L477.74 189.418L478.206 190.923L475.876 193.417L474.803 194.17L473.778 194.593Z" fill="#989898"/>
<path d="M339.539 85.2049L339.119 86.7104L339.306 88.1219L340.518 89.0629L339.958 91.6035L339.119 93.5325L339.818 95.0851L340.145 95.6027L339.539 95.6497L339.212 94.8969L338.933 93.956L337.395 93.1091L335.157 92.4034L333.992 91.7917L332.64 91.8388L330.822 92.027L329.051 92.5916L326.581 90.8037L325.322 89.6745L320.242 90.0509L300.898 88.9217L284.305 87.8867L285.004 76.2185L286.309 60.2219L286.495 57.8694L313.017 59.7044L339.539 60.5042V61.7745L338.933 62.4802L338.001 63.186L337.954 64.2211L338.467 65.2561L340.378 66.8558L340.611 68.1261V85.0167L339.539 85.2049Z" fill="white"/>
<path d="M432.667 169.188L426.561 169.752L415.701 170.787L398.175 172.058L392.675 172.246L393.094 171.964L393.514 169.847L392.954 168.153L394.772 167.071L394.959 165.894L395.518 163.871L396.916 159.402L397.149 156.767L397.289 156.673L403.022 156.579L409.361 156.202L409.408 154.367L411.039 154.32L425.209 152.768L450.379 150.321L455.18 149.615L458.722 149.521L459.841 148.627L460.447 148.769L460.4 150.321L460.214 151.074L459.095 152.109L458.35 153.803L457.417 153.615L456.299 154.038L455.273 155.591L454.621 155.497L454.248 154.932L453.735 155.12L451.731 157.002L451.358 158.461L449.4 159.496L447.396 161.19L445.625 161.895L443.574 163.213L443.294 164.906L442.129 165.142L441.197 165.941L441.104 168.2L432.667 169.188Z" fill="#989898"/>
<path d="M251.816 200.24L269.062 201.934L282.72 202.828L286.169 156.861L311.525 157.99L310.733 168.953L310.267 177.422L310.36 178.362L312.411 180.291L313.343 180.809H314.182L314.415 180.244L314.741 180.668L315.86 180.762L316.373 180.48V180.386L316.839 180.621L316.652 182.362L318.75 182.691L319.869 183.114L321.826 183.444L323.038 184.291L324.343 183.397L325.602 183.679L326.627 185.138L327 185.185V186.173L328.538 186.69L329.703 185.702L330.403 185.937L331.381 185.984L331.661 186.972L334.085 187.913L335.157 187.678L336.043 185.796H336.089L336.602 186.69L338.746 187.114L340.331 187.725L341.822 188.196L342.941 187.631L343.267 186.549H344.945L345.924 187.019L347.322 186.079H347.509L347.742 186.737H349.933L350.818 185.89L351.424 186.079L352.217 187.067L353.755 187.96L355.34 188.431L356.505 189.09L357.763 190.031L359.208 189.466L360.187 189.842L360.513 199.252L360.84 203.722L361.119 205.651L362.331 207.721L362.751 209.838L364.708 212.614L364.848 214.073L365.128 214.449L364.802 218.072L363.45 220.33L364.056 221.553L363.823 222.683L363.45 226.07L362.844 227.482L362.984 229.458L360.374 230.21L355.759 232.328L355.293 233.221L354.081 234.115L353.102 234.821L352.496 235.198L349.839 237.691L348.581 238.679L346.111 240.185L343.454 241.314L340.517 242.914L339.678 243.619L336.975 245.313L335.39 245.595L333.572 248.183L331.708 248.324L331.242 249.218L332.314 250.112L331.614 252.7L331.009 254.817L330.496 256.652L330.123 258.769L330.496 259.898L331.335 263.192L331.801 266.062L332.64 267.332L332.174 268.038L330.729 268.932L328.072 267.097L325.508 266.579L324.903 266.814L323.411 266.532L321.453 265.074L319.03 264.556L315.487 262.956L314.508 261.121L313.902 258.063L312.411 257.169L312.131 256.087L312.411 255.805L312.551 254.205L311.945 253.923L311.665 253.453L312.271 251.382L311.525 250.3L310.034 249.689L308.449 247.618L306.771 244.513L304.813 243.29L304.906 242.396L302.436 236.609L302.063 234.633L301.224 233.739L301.131 233.033L298.334 230.54L297.122 229.081V228.564L295.91 227.576L292.741 227.058L289.292 226.776L287.847 225.694L285.749 226.541L284.071 227.246L282.999 228.752L282.533 230.493L280.482 233.363L279.364 234.492L278.152 234.021L277.313 233.504L276.427 233.221L274.609 232.139V231.857L273.77 230.963L271.346 229.975L267.897 226.305L266.825 224.094V220.283L265.334 217.225L265.101 215.955L264.355 215.484L263.842 214.496L261.512 213.508L260.906 212.755L257.596 209.038L256.99 207.533L254.8 206.451L254.1 204.381L252.888 203.016L252.096 202.781L251.816 200.24ZM333.106 266.908L332.826 263.568L331.568 260.18L331.288 256.887L331.987 253.029L333.526 249.783L335.157 247.242L336.648 245.548L336.928 245.642L334.691 248.748L332.64 251.806L331.708 254.911L331.568 257.358L331.987 260.228L333.199 263.615L333.432 266.062L333.526 266.767L333.106 266.908Z" fill="#989898"/>
<path d="M226.461 143.922L237.927 145.616L238.812 139.17L242.075 115.41L243.147 105.06L228.139 103.413L229.164 97.2495L230.003 92.2623L213.829 89.3923L208.003 88.2161L203.062 113.105L200.545 127.22L199.007 134.465L198.214 138.794L226.461 143.922Z" fill="#989898"/>
<path d="M509.063 124.773L508.969 126.09L507.618 127.878L507.431 130.043L507.664 131.642L506.825 133.995L505.8 134.889L505.101 132.724L505.287 130.184L506.033 128.208L506.359 126.655L506.313 125.855L509.063 124.773ZM480.956 145.757L462.964 148.392L460.727 148.345L459.701 148.203L458.536 149.097L455.134 149.144L450.333 149.897L447.21 150.179L449.121 148.956L451.032 147.874V146.886L453.689 143.451L455.6 141.711L456.625 140.534L458.303 142.558L460.074 142.981L461.333 142.511L462.265 141.805L463.384 142.369L465.528 141.758L466.32 139.688L467.439 140.017L468.93 138.935L469.676 139.123L470.981 137.617L471.075 136.347L470.702 135.783L472.939 130.842L473.778 128.396L474.011 126.185L474.337 126.09L474.85 126.89L475.549 127.455L477.367 127.361L478.159 123.55L479.558 123.268L479.931 122.044L481.236 121.009L481.749 120.021L482.588 117.998L482.634 115.834L484.312 116.492L487.388 117.951L487.528 115.504L489.113 116.069L488.833 117.433L492.842 118.892L493.495 119.739L493.122 121.291L492.516 121.903L492.283 122.703L492.516 123.832L493.448 124.444L495.266 125.102L496.617 125.573L498.901 125.996L499.927 126.984L501.418 127.173L501.838 127.737L501.651 129.948L502.304 130.466L502.071 131.36L502.63 131.736L502.537 132.395L501.279 132.348L501.325 133.101L502.397 133.806L502.444 134.465L503.283 135.312L503.516 136.488L502.304 137.147L503.05 137.853L505.753 137.053L507.478 139.97L480.956 145.757Z" fill="#989898"/>
<path d="M508.131 52.3648L509.25 55.4229L509.623 57.9165L509.156 59.7514L510.322 61.8216L510.741 62.9037L510.415 64.127L511.953 64.8327L513.305 69.914V72.4076L518.665 71.4196L518.199 70.902L518.479 70.0081L518.572 67.985L518.106 67.3263L518.199 65.115L518.572 60.7395V56.7403L518.059 55.8934V55.1406L519.364 54.6231L520.995 52.553V50.8592L520.11 49.5889L519.97 46.8647L507.805 50.0594L508.131 52.3648Z" fill="#989898"/>
<path d="M154.727 31.8517L153.655 29.8286L151.744 29.4993L151.558 28.3701L150.393 28.0878L149.041 27.8526L148.202 28.3231L147.13 26.9586L147.27 25.5942L148.528 25.4531L149.274 23.5711L148.062 23.0536L148.155 21.3128L150.206 21.0305L148.948 19.7602L148.249 16.4197L148.528 15.0553V11.3384L147.689 9.83283L148.761 5.41024L149.74 5.64548L150.859 7.0099L152.117 8.23317L153.609 9.1271L155.706 10.1151L157.151 10.3974L158.503 11.1032L160.088 11.5736L161.16 11.4795V10.3504L161.766 9.83283L162.745 9.2212L162.884 9.73874L163.024 10.5856L161.952 10.8209L161.812 11.8089L162.651 12.5146L163.164 13.6438L163.444 14.5377L164.143 14.4436L164.236 13.832L163.77 13.2204L163.537 11.7148L163.91 10.8679L163.63 10.1622V8.9389L164.469 7.24514L163.956 6.02187L162.838 3.76352L162.978 3.38713L163.63 3.01074L165.681 3.71648L170.202 4.9868L174.211 5.88073L183.533 8.56251L194.254 11.2443L201.245 12.8863L199.008 21.1481L196.91 30.9484L195.326 38.5938L195.139 42.9129L189.126 41.1627L181.995 39.5301L175.236 39.6807L174.724 38.9608L172.067 39.9441L170.249 39.7465L169.037 38.9044L168.245 39.2102L166.31 39.0925L165.509 38.4715L163.103 37.6152L162.553 37.5399L160.316 36.886L159.421 37.6623L156.788 37.5446L154.639 35.9685L154.727 31.8517ZM159.202 5.78663L160.134 5.69253L160.367 6.35121L161.067 5.59843H162.139L162.512 6.30417L161.812 7.104L162.092 7.48039L161.766 8.42137L161.113 8.60956C161.113 8.60956 160.694 8.65661 160.694 8.51546C160.694 8.37432 161.393 7.29219 161.393 7.29219L160.6 7.0099L160.461 7.71563L160.134 7.99793L159.435 6.9158L159.202 5.78663Z" fill="#989898"/>
<path d="M372.354 51.7065L373.706 51.9418L375.058 51.6595L378.507 50.1539L379.859 49.26L380.838 48.8836L381.723 49.5893L381.211 50.1069L380.325 51.5654L380.045 52.4593L380.511 52.7416L381.35 52.2711L381.863 52.177L383.122 52.5534L383.401 53.071L383.914 53.1651L384.194 52.6475L386.058 55.1411L389.88 55.7057L393.702 56.7408L394.914 57.2583L400.647 58.4816L401.393 59.5637L403.071 60.1283L403.864 64.9273L404.609 65.586L405.309 66.0094L404.796 67.0915L403.957 67.8443L402.978 70.0556L402.372 71.1848L402.465 72.0317L403.164 72.1728L403.677 71.2789L404.376 70.9025L404.749 69.8204L405.635 68.9735L406.893 67.0915L408.851 64.1275L409.224 63.8922L409.364 64.3627L409.27 65.4448L407.919 68.6442L406.66 71.3259L406.427 72.8315L406.148 74.0548L406.52 74.6664L406.427 75.9367L405.542 77.0659L405.309 77.9128L405.588 79.6066L405.868 81.2062L405.169 82.4295L404.796 83.7939L404.33 85.2524L404.842 86.3816L405.122 89.2516L405.868 91.3688L405.775 92.7803L398.363 93.6271L390.207 94.0976H384.287L383.961 93.3919L382.609 93.2037L381.397 92.5921L380.325 90.8513L380.185 89.1575L381.117 87.7931L380.884 87.1344L379.905 86.0993L379.533 84.5467L379.253 81.3474L378.274 80.1711L375.011 78.0539L373.24 75.5133L371.655 75.0428L370.63 73.7254H369.138L367.787 72.1728L367.553 69.1146L367.6 67.3268L368.299 65.8683L367.926 64.3627L366.761 63.0453L367.6 60.5047L370.024 58.7168L370.77 57.8229L370.676 54.0119L370.77 52.6946L371.888 51.3772L372.354 51.7065Z" fill="white"/>
<path d="M473.733 119.645L476.437 116.822L477.649 116.446L478.394 115.74L479.094 114.705L479.606 114.846L481.051 114.752L483.195 113.058L483.894 112.823L484.5 113.294L485.712 113.858L487.111 115.27L486.924 117.293L484.407 116.07L482.17 115.223L482.123 117.999L480.911 120.68L479.56 121.81L479.187 122.892L477.788 123.127L476.996 126.938L475.691 127.032L475.178 126.561L474.619 125.621L473.593 125.856L473.36 128.255L472.521 130.655L470.191 135.83L470.61 136.489L470.564 137.43L469.538 138.606L468.792 138.418L467.348 139.5L466.042 139.124L465.203 141.429L463.432 141.899L462.267 141.288L461.102 142.182L460.03 142.511L458.538 142.135L456.767 140.017L455.135 138.982L453.97 137.806L452.618 136.065L452.385 134.983L451.08 134.183L450.801 133.572L450.707 130.937L450.847 130.984L451.966 130.89L452.805 130.42V129.384L453.597 128.679L453.644 126.232L454.063 124.538L454.576 124.209L454.763 124.35L455.229 124.868L456.021 125.103L456.534 124.491L456.068 123.033V122.28L457.513 120.116L458.072 119.504L459.004 119.739L460.216 118.893L461.661 117.293L462.78 115.364L462.873 112.729L463.106 110.471V108.165L462.593 106.754L463.013 106.142L463.386 105.813L465.39 114.893L467.394 114.517L472.615 113.905L473.733 119.645Z" fill="#989898"/>
<path d="M284.537 76.1724L283.838 88.1229L281.787 108.824L280.529 108.683L241.702 104.402L228.697 102.99L229.629 97.3444L232.846 78.0544L234.617 66.6685L235.223 61.399L257.689 64.6925L285.237 67.7507L284.537 76.1724Z" fill="#989898"/>
</svg>
