<svg  viewBox="0 0 738 445" fill="none" xmlns="http://www.w3.org/2000/svg">
<path d="M82.8 308.344H105.264V409H82.8L34.848 345.928V409H12.384V308.344H33.408L82.8 373.144V308.344ZM145.207 370.264C145.207 376.6 146.983 381.784 150.535 385.816C154.183 389.752 158.791 391.72 164.359 391.72C170.023 391.72 174.631 389.752 178.183 385.816C181.831 381.784 183.655 376.6 183.655 370.264C183.655 363.928 181.831 358.744 178.183 354.712C174.631 350.68 170.023 348.664 164.359 348.664C158.791 348.664 154.183 350.68 150.535 354.712C146.983 358.744 145.207 363.928 145.207 370.264ZM205.399 370.264C205.399 381.496 201.511 390.952 193.735 398.632C185.959 406.312 176.167 410.152 164.359 410.152C152.647 410.152 142.903 406.312 135.127 398.632C127.351 390.952 123.463 381.496 123.463 370.264C123.463 359.032 127.351 349.576 135.127 341.896C142.903 334.12 152.647 330.232 164.359 330.232C176.167 330.232 185.959 334.12 193.735 341.896C201.511 349.576 205.399 359.032 205.399 370.264ZM262.195 350.536C255.763 350.536 250.963 352.84 247.795 357.448C244.627 361.96 243.043 367.96 243.043 375.448V409H221.443V331.528H243.043V341.752C245.827 338.584 249.283 335.896 253.411 333.688C257.635 331.48 261.907 330.328 266.227 330.232L266.371 350.536H262.195ZM306.422 347.08V381.784C306.422 384.76 307.19 387.112 308.726 388.84C310.262 390.472 312.086 391.288 314.198 391.288C318.23 391.288 321.638 389.464 324.422 385.816L332.486 400.936C325.766 407.08 318.662 410.152 311.174 410.152C303.782 410.152 297.494 407.704 292.31 402.808C287.222 397.912 284.678 391.24 284.678 382.792V347.08H275.606V331.528H284.678V308.344H306.422V331.528H325.142V347.08H306.422ZM365.668 367.24V409H344.068V302.152H365.668V340.168C372.196 333.544 379.492 330.232 387.556 330.232C395.716 330.232 402.58 333.112 408.148 338.872C413.716 344.632 416.5 352.312 416.5 361.912V409H394.9V366.664C394.9 354.76 390.532 348.808 381.796 348.808C377.476 348.808 373.684 350.392 370.42 353.56C367.252 356.632 365.668 361.192 365.668 367.24ZM503.141 397.768C494.405 406.024 484.133 410.152 472.325 410.152C460.613 410.152 450.917 406.552 443.237 399.352C435.557 392.056 431.717 382.312 431.717 370.12C431.717 357.928 435.605 348.232 443.381 341.032C451.253 333.832 460.517 330.232 471.173 330.232C481.829 330.232 490.853 333.448 498.245 339.88C505.733 346.312 509.477 355.144 509.477 366.376V377.896H453.029C453.701 382.12 455.909 385.576 459.653 388.264C463.397 390.952 467.621 392.296 472.325 392.296C479.909 392.296 486.149 389.752 491.045 384.664L503.141 397.768ZM487.589 362.488C487.109 357.88 485.381 354.328 482.405 351.832C479.429 349.336 475.781 348.088 471.461 348.088C467.237 348.088 463.349 349.384 459.797 351.976C456.245 354.568 454.181 358.072 453.605 362.488H487.589ZM590.86 409H570.556V399.64C564.988 406.648 558.076 410.152 549.82 410.152C541.66 410.152 534.796 407.8 529.228 403.096C523.66 398.296 520.876 391.96 520.876 384.088C520.876 376.12 523.756 370.168 529.516 366.232C535.276 362.296 543.148 360.328 553.132 360.328H569.26V359.896C569.26 351.64 564.892 347.512 556.156 347.512C552.412 347.512 548.428 348.28 544.204 349.816C540.076 351.256 536.572 353.08 533.692 355.288L524.044 341.32C534.22 333.928 545.836 330.232 558.892 330.232C568.3 330.232 575.98 332.584 581.932 337.288C587.884 341.992 590.86 349.432 590.86 359.608V409ZM569.116 379.48V375.736H555.58C546.94 375.736 542.62 378.424 542.62 383.8C542.62 386.584 543.628 388.744 545.644 390.28C547.756 391.72 550.732 392.44 554.572 392.44C558.412 392.44 561.772 391.288 564.652 388.984C567.628 386.584 569.116 383.416 569.116 379.48ZM668.872 384.952C668.872 392.536 666.04 398.632 660.376 403.24C654.808 407.848 647.704 410.152 639.064 410.152C633.304 410.152 627.304 409.144 621.064 407.128C614.824 405.016 609.208 401.944 604.216 397.912L613.72 384.376C621.784 390.616 630.376 393.736 639.496 393.736C642.28 393.736 644.488 393.208 646.12 392.152C647.752 391 648.568 389.512 648.568 387.688C648.568 385.864 647.416 384.184 645.112 382.648C642.904 381.112 639.64 379.672 635.32 378.328C631.096 376.984 627.832 375.832 625.528 374.872C623.32 373.912 620.776 372.52 617.896 370.696C612.04 367.048 609.112 361.672 609.112 354.568C609.112 347.368 611.992 341.512 617.752 337C623.512 332.488 630.952 330.232 640.072 330.232C649.192 330.232 658.312 333.304 667.432 339.448L659.368 353.848C652.648 349.24 645.928 346.936 639.208 346.936C632.584 346.936 629.272 348.76 629.272 352.408C629.272 354.424 630.328 356.008 632.44 357.16C634.552 358.312 638.056 359.656 642.952 361.192C647.848 362.728 651.304 363.928 653.32 364.792C655.432 365.56 657.928 366.808 660.808 368.536C666.184 371.8 668.872 377.272 668.872 384.952ZM710.578 347.08V381.784C710.578 384.76 711.346 387.112 712.882 388.84C714.418 390.472 716.242 391.288 718.354 391.288C722.386 391.288 725.794 389.464 728.578 385.816L736.642 400.936C729.922 407.08 722.818 410.152 715.33 410.152C707.938 410.152 701.65 407.704 696.466 402.808C691.378 397.912 688.834 391.24 688.834 382.792V347.08H679.762V331.528H688.834V308.344H710.578V331.528H729.298V347.08H710.578Z" fill="white"/>
<path d="M450.951 219.436L451.231 219.53L451.837 218.259L452.536 216.189L453.608 216.472L455.053 219.295V219.765L453.795 220.659L455.053 220.8L457.477 219.624L457.337 216.048L456.172 215.201L455.24 214.26L455.426 212.378L460.32 211.673L472.299 210.308L475.422 210.026L478.032 210.073L477.799 209.038L477.1 208.661L476.681 208.144L477.147 206.921L476.96 204.474L476.215 202.357L476.587 199.957L477.38 197.699L477.287 196.899L476.448 196.57L476.215 194.876L474.956 193.276L474.024 190.218L473.371 187.066L472.532 184.714L470.761 177.186L469.13 173.469L468.757 170.834L468.803 169.799L464.608 170.175L453.701 171.211L448.015 171.587L447.922 174.598L448.015 182.455L447.689 197.04L447.549 203.674L448.854 212.52L449.6 219.436H450.951Z" fill="#989898"/>
<path d="M431.748 162.835L428.765 162.506L429.185 161.047L430.629 159.824L430.909 158.742L430.07 157.378L415.201 157.942L404.341 158.272L393.341 158.413L394.04 161.659L394.086 165.658L394.739 170.787L394.879 188.759L395.858 189.512L397.256 188.948L398.608 189.512L398.794 194.264L410.54 194.17L423.032 193.794L423.451 192.9L423.312 191.112L422.519 189.653L423.218 188.995L422.566 187.959L422.892 186.83L423.405 184.054L424.663 182.972L424.29 181.937L426.155 179.302L427.32 178.785L427.273 177.985L427.04 177.185L428.392 174.456L429.557 173.939L429.651 172.386L430.629 171.728L431.049 169.799L430.396 167.917L432.354 166.787L432.494 165.799L433.053 163.823L433.473 162.365L431.748 162.835Z" fill="#989898"/>
<path d="M220.972 183.349L220.832 184.054L221.065 184.525L229.875 189.559L235.515 193.135L242.367 197.181L250.197 201.886L255.93 203.015L267.77 204.286L270.566 185.654L273.829 160.671L275.88 146.086L264.414 144.392L236.121 139.217L236.027 139.734L234.816 147.497L233.837 149.285L232.532 149.191L231.972 147.968L230.76 147.78L230.201 147.262L229.688 147.309L228.71 148.109L228.57 151.308L228.43 152.014L228.197 157.895L227.498 159.024L227.311 160.577L228.616 162.929L229.129 165.517L229.455 166.035L229.968 166.458L229.782 167.587L228.989 168.152L227.404 168.905L226.659 169.752L225.913 171.445L225.68 173.751L224.281 175.115L223.396 175.539L223.349 178.267L223.07 179.02L223.303 179.397L225.12 179.585L224.701 180.996L223.909 182.125L222.184 182.314L220.972 183.349Z" fill="#989898"/>
<path d="M215.192 181.561L206.01 180.291L201.349 179.585L201.116 178.738V174.315L200.976 172.81L199.764 170.834L199.391 169.752L197.573 167.776L196.222 165.564L194.963 165.47L193.472 165.094L193.332 164.623L194.031 164.341L193.751 162.835L193.052 161.847L190.815 161.471L188.997 160.483L188.484 159.401L187.272 157.143L185.921 155.684H184.569L182.751 154.696L180.654 153.849L178.696 153.614L177.577 152.344L177.81 151.45L178.649 148.109L179.022 147.215V146.086L178.276 145.616L178.043 144.251L177.344 143.028L175.759 140.299L175.153 138.84L174.454 136.629L173.708 134.136L172.217 132.065L171.984 130.701L172.357 128.866H172.87L173.848 128.113L174.361 126.42L173.895 125.149L172.636 124.914L171.751 123.691L170.772 121.95L170.679 118.092L170.958 117.198L171.238 116.116L171.471 114.987L168.814 112.023V111.035L168.954 110.799L169.094 109.294L168.488 107.412L167.416 105.153L166.158 103.036L165.319 101.201L165.785 99.4606L166.064 96.7318L166.903 95.2732L167.043 92.2151L166.53 90.5213L165.785 88.5452L164.526 86.5692L164.899 85.0636L165.598 83.0876L166.437 82.7112L166.577 82.1936L168.022 80.9704L170.446 75.4186L170.539 71.937L171.327 69.6316L189.36 75.1834L201.293 78.2886L197.564 93.0149L193.523 108.588L199.41 117.621L219.061 146.933L227.032 159.213L226.845 160.671L228.15 163.118L228.663 165.658L229.129 166.364L229.455 166.646L229.362 167.305L228.71 167.776L227.125 168.528L226.239 169.516L225.447 171.351L225.214 173.563L224.002 174.739L222.93 175.256L222.883 178.173L222.603 179.067L223.07 179.867L224.468 180.008L224.281 180.761L223.629 181.702L221.811 181.984L215.192 181.561ZM180.747 158.554L181.353 159.26L181.259 159.871L179.768 159.824L179.488 159.26L179.209 158.554H180.747ZM181.632 158.554L182.192 158.272L183.87 159.26L185.315 159.824L184.895 160.107L182.798 160.012L182.052 159.26L181.632 158.554ZM191.281 167.87L192.12 168.952L192.493 169.422L193.192 169.705L193.472 168.999L193.005 168.152L191.747 167.211L191.234 167.305V167.87H191.281ZM190.628 171.963L191.467 173.468L192.027 174.362L191.327 174.456L190.722 173.892C190.722 173.892 190.395 173.186 190.395 172.998V171.963H190.628Z" fill="#989898"/>
<path d="M335.216 110.8L318.436 109.153L281.567 105.107L280.542 115.505L277.279 139.218L276.393 145.663L292.241 147.498L309.72 149.568L325.894 150.98L332.56 151.262L335.216 110.8Z" fill="#989898"/>
<path d="M555.126 89.8158L556.804 88.3102L557.69 87.3222L558.063 87.6045L559.321 86.8988L561.745 86.3812L565.008 84.7345L564.728 82.7584L564.355 80.6883L563.61 77.8654L561.605 78.3829L551.444 80.5942L551.724 82.0527L552.423 85.4873V89.3923L552.003 90.3804L552.796 91.4155L555.126 89.8158Z" fill="white"/>
<path d="M546.925 116.305L546.458 116.54L544.78 115.411L543.941 113.199L543.056 111.506L541.984 111.035L541.005 109.341L541.238 108.4L541.471 107.318L541.518 106.801L541.238 106.848L540.446 107.318L539.513 108.118L539.42 108.259L540.073 110.188L541.145 112.823L542.869 120.398L545.2 120.257L547.997 119.739L546.925 116.305Z" fill="#989898"/>
<path d="M507.678 209.461L505.254 209.132L504.927 209.508L505.627 211.578L505.44 214.025L503.529 213.554L503.436 212.237H501.525L499.055 212.566L483.953 213.46L480.13 213.319L479.338 212.519L478.173 210.543H475.423L472.346 210.778L455.846 212.754L455.706 214.072L456.452 214.825L457.804 215.765L457.944 219.718L459.482 219.435L462.278 218.447L465.075 218.212L467.126 217.93L470.668 218.777L474.444 220.612L475.19 221.317L476.541 221.835L477.287 222.729L477.427 223.999L478.919 223.387H480.736L482.414 222.493L484.139 220.8L485.584 220.894L485.817 220.376L485.444 219.906L485.537 219.012L487.402 218.635H488.614L489.965 219.341L491.923 220.047L493.042 221.788L494.3 222.258L494.813 223.858L496.398 224.611L497.143 225.834L498.029 226.116L500.453 226.728L501.059 228.186L502.457 229.927V234.397L501.758 236.608L501.898 237.879L502.504 240.137L503.343 242.019L503.716 241.784L504.415 239.666L503.203 239.196L503.063 238.914L503.809 238.631L505.906 239.102L506 239.855L504.508 242.442L503.529 243.571L505.207 245.312L506.419 246.771L507.771 249.264L509.122 251.099L510.101 253.452L510.94 253.593L511.686 252.605L512.525 253.122L513.737 255.004L514.017 256.698L515.462 258.768L515.834 258.157L517.652 258.298L519.33 259.38L520.915 261.826L521.288 263.426L521.428 264.79L521.94 265.261L522.546 265.496L523.665 265.026L524.364 264.273L526.182 264.179L527.627 263.473L528.886 261.968L528.652 261.074L528.513 259.944L528.792 259.051L528.652 258.157L529.771 257.545L529.911 255.945L529.631 255.098L529.398 249.453L528.792 245.877L526.695 242.019L525.017 239.29L523.805 236.796L522.453 235.432L521.101 231.95L521.428 231.292L521.94 230.68L521.195 229.316L519.33 227.575L517.093 224.987L515.368 222.023L512.898 217.6L511.173 213.037L510.101 209.602L507.678 209.461ZM515.928 271.895L517.046 271.613L517.652 271.518L518.351 270.436L519.424 269.684L520.029 269.919L520.822 270.06L521.008 270.578L519.377 271.142L517.419 271.848L516.347 272.412L515.928 271.895ZM522.22 269.542L522.779 270.06L524.038 269.072L526.508 267.096L528.233 265.261L529.398 262.156L529.864 261.356L529.958 259.756L529.631 259.991L529.165 261.309L528.466 263.473L526.974 265.967L524.924 267.943L523.339 268.837L522.22 269.542Z" fill="#989898"/>
<path d="M507.676 208.991L505.066 208.662L504.414 209.415L505.159 211.626L505.019 213.461L503.994 213.179L503.901 211.767H501.477L499.007 212.096L483.951 212.99L480.362 212.849L479.71 212.285L478.544 210.262L478.172 208.709L477.426 208.285L477.193 208.05L477.612 207.015L477.426 204.427L476.68 202.31L477.053 200.005L477.845 197.747L477.752 196.57L476.866 196.241L476.68 194.735L475.375 193.089L474.489 190.172L473.79 186.878L472.998 184.62L471.226 177.092L469.595 173.328L469.222 170.835L469.269 169.752L470.807 169.611L477.146 168.859L485.816 167.918L488.752 167.4L488.985 168.059L487.96 168.482L487.54 169.517L487.727 170.458L488.379 171.211L490.384 172.481L491.875 172.434L493.367 174.646L493.646 175.398L494.718 176.716L494.952 177.516L497.142 178.362L498.541 179.397L499.613 180.809L500.685 181.421L501.617 182.267L502.269 183.538L503.248 184.432L505.159 185.279L506.418 188.102L507.21 190.501L508.515 190.83L509.494 191.724L510.426 194.406L511.778 195.159L512.57 194.782L512.757 195.347L511.219 198.264L511.452 199.487L510.753 201.463L509.681 206.168L510.053 209.132L507.676 208.991Z" fill="#989898"/>
<path d="M417.531 86.382L418.51 87.37L418.65 87.6993L417.717 89.1108L417.857 90.9927L419.069 92.9218L420.514 93.6745L421.633 93.8157L422.052 94.6626L422.145 95.7917L423.311 96.2622L423.73 96.7798L423.963 97.5325L425.734 99.0852L426.014 99.9791L425.688 101.391L424.895 103.131L424.616 104.261L423.637 105.013L422.891 105.249L420.234 105.954L419.489 108.213L419.861 109.06L420.654 109.765L420.561 111.412L419.675 112.071L419.349 112.918V114.047L418.696 114.235L417.904 114.894L417.671 115.693L417.857 116.493L417.251 116.964L416.179 115.693L415.527 114.376L411.658 114.752L406.997 115.035L384.064 115.599L383.318 113.576L383.132 110.424L382.479 108.448L382.153 106.001L381.128 104.261L380.662 102.096L379.403 98.4265L378.89 95.7917L378.238 94.8978L377.632 93.5334L378.424 91.7455L378.984 88.8755L377.725 87.8405L377.585 86.7113L377.911 85.5821L378.75 85.441L407.23 85.1587L417.111 84.8293L417.531 86.382Z" fill="#989898"/>
<path d="M239.711 12.9991L237.474 21.1904L235.376 31.0048L233.792 38.6361L233.605 43.1857L234.165 45.2747L235.796 46.5262L235.703 48.3658L233.885 50.436L231.787 53.5412L231.368 54.9056L230.809 55.4231L229.97 55.7995L227.965 58.2931L227.779 59.7516L227.592 60.2692L227.872 60.7397L229.084 60.6926L229.597 61.7747L228.478 64.5036L227.919 66.4796L223.817 83.0879L233.465 85.2051L251.877 88.922L268.097 91.7919L270.381 78.0536L272.153 66.7149L270.894 65.5857L270.708 64.3624L270.335 63.8449L269.356 64.3154L269.03 65.5387L267.538 65.7739L265.72 65.0211L263.949 65.0682L262.784 65.3975L261.199 64.6918L260.08 64.7859L258.962 65.7268L258.029 65.2093L257.703 63.3274L258.029 61.9629L256.864 60.5985L255.326 59.3752L254.067 53.2118L254.021 51.0005L253.881 50.9535L253.788 51.1417L251.411 52.7884L250.618 52.6943L249.267 51.0946L249.173 49.6361L252.436 41.5766L252.25 40.6639L250.665 40.1228L250.385 39.5677L249.173 37.9398L247.029 33.1267L245.538 32.4068L244.605 30.0779L245.211 27.8995L243.72 24.3332L245.771 14.2083L239.711 12.9991Z" fill="#989898"/>
<path d="M446.384 100.825L446.011 99.6021L445.405 97.8613L444.659 97.0144L443.96 95.7912L443.773 93.2035L436.362 94.0504L428.252 94.5209H422.519L422.612 95.5089L423.637 95.9323L424.15 96.591L424.337 97.2497L426.154 98.8494L426.481 99.9785L426.154 101.531L425.362 103.272L424.989 104.542L423.87 105.436L422.985 105.718L420.561 106.33L419.955 108.259L420.235 108.777L421.12 109.624L421.027 111.647L420.048 112.399L419.815 113.011V114.328L418.976 114.611L418.324 115.175L418.137 115.74L418.324 116.681L417.578 117.293L417.158 118.61L417.298 120.445L418.37 123.738L421.633 127.314L424.29 129.055V131.125L424.616 131.689L427.693 131.972L428.951 132.63L428.625 134.277L427.599 137.194L427.226 138.606L428.159 140.346L431.142 142.84L433.379 143.216L434.405 145.616L435.337 147.216L434.917 148.533L435.616 150.321L436.409 151.309L437.155 151.168L437.621 150.133L438.739 149.333L440.044 148.862L442.888 150.039L443.121 149.944V149.427L442.561 148.157L442.748 146.839L443.867 146.086L445.451 145.522L445.218 144.91L444.845 143.969L445.405 143.358L445.871 142.087V140.205L446.057 137.9L447.223 136.488L448.062 134.701L449.227 132.819L448.994 130.325L448.155 128.819L448.015 127.267L448.388 124.773L448.062 121.386L447.549 113.952L446.896 106.754L446.477 101.249L446.384 100.825Z" fill="#989898"/>
<path d="M448.341 101.672L449.041 102.143L449.553 102.002L450.532 101.108L451.697 100.261L458.363 99.7434L466.939 98.8965L467.685 106.189L469.969 126.232L469.689 127.596L470.295 128.349L470.388 128.961L469.316 129.714L467.638 130.513L466.147 130.702L465.914 132.96L463.723 134.654L462.371 136.536L462.465 137.665L462.232 138.323H460.6L459.948 137.524L457.524 138.935L457.617 140.394L457.198 140.488L456.964 140.064L455.846 139.264L454.168 139.97L453.515 141.335L452.956 141.052L452.21 140.205L450.159 140.441L447.502 140.911L446.337 141.523V140.3L446.524 138.088L447.596 136.724L448.435 134.889L449.693 132.913L449.46 130.184L448.621 128.725L448.481 127.22L448.854 124.726L448.528 121.386L448.108 115.458L446.943 101.296L448.341 101.672Z" fill="#989898"/>
<path d="M384.485 122.092L364.07 121.809L345.145 121.245L335.031 120.821L333.027 151.309L344.353 151.78L365.188 152.768L386.769 153.05L392.642 152.909L392.968 136.442L392.409 131.219L391.244 130.278L390.125 128.867L389.053 127.173L389.333 125.762L390.125 125.103V124.115L389.752 123.785L388.54 123.691L386.909 122.092H384.485Z" fill="#989898"/>
<path d="M441.024 156.108L446.897 155.779L446.943 153.85H448.948L463.117 152.344L484.139 150.321L486.749 148.627L488.567 147.639L488.614 146.745L491.41 143.076L493.321 141.382L494.3 140.253L492.762 139.312L491.597 138.041L490.198 136.253L489.965 135.218L488.753 134.56L488.334 133.666L488.241 130.796L487.029 129.855L486.143 129.337L485.91 128.255L485.304 128.349L484.372 128.914L483.207 130.184L482.321 129.384L481.156 129.149L480.037 129.808H478.965L478.126 128.867L475.516 128.82L474.677 126.703L473.325 125.997L472.346 126.373L470.389 126.467L470.156 127.455L470.715 128.161L470.855 129.149L469.55 130.09L467.778 130.937L466.567 131.125L466.334 133.242L464.05 134.936L462.838 136.677L462.931 137.712L462.511 138.794L460.414 138.747L459.808 138.135L457.99 139.171L458.083 140.723L456.965 141.005L456.592 140.347L455.799 139.782L454.541 140.3L453.702 141.946L452.676 141.476L452.024 140.723L450.299 140.911L447.689 141.382L446.384 141.993L445.825 143.593L445.359 144.064L446.058 145.804L444.1 146.463L443.214 147.122L443.028 148.157L443.587 149.286V150.321L442.842 150.509L439.998 149.333L438.926 149.757L437.994 150.415L437.621 151.262L438.413 152.391L437.994 153.238L437.947 154.791L436.829 155.402L435.85 156.202L441.024 156.108Z" fill="#989898"/>
<path d="M403.595 228.61L407.371 228.469L412.172 230.163L415.202 230.68L416.926 229.975L418.418 230.492L419.909 230.963L420.282 229.975L418.791 229.457L417.579 229.692L416.32 228.94L416.693 228.234L418.138 227.763L418.977 228.469L419.816 227.999L421.308 228.281L422.007 229.41L422.147 230.492L424.244 230.633L425.083 231.48L424.71 232.233L424.104 232.609L424.85 233.362L428.765 235.056L430.443 234.444L430.909 233.315L432.121 233.033L432.96 232.327L433.566 232.798L433.939 234.162L432.867 234.539L433.147 234.821L434.732 234.209L435.804 232.609L436.177 232.374L435.198 232.233L435.571 231.48L435.477 230.775L436.456 230.539L436.969 229.928L437.249 230.304L437.528 231.763L439.486 232.045L441.35 232.939L441.816 233.645H443.168L443.681 234.115L444.753 232.657V231.951H444.147L442.562 230.68L439.859 230.304L438.367 229.222L438.88 227.952L439.952 228.093L440.045 227.811L439.206 227.34V227.105H440.698L441.537 225.646L440.931 224.752L440.791 223.482L440.092 223.576L439.206 224.564L438.927 225.787L437.482 225.505L437.016 224.658L437.855 223.764L438.74 222.964L437.715 219.906L436.13 218.307L436.596 214.872L436.503 214.637L435.897 214.731L420.469 215.39L420.096 214.26L420.469 210.261L424.477 203.298L424.058 202.075L424.71 201.887L424.897 200.946L423.871 200.005L423.918 199.111L422.986 196.993L422.799 194.594L422.846 194.265L410.54 194.641L398.794 194.688L398.981 199.252L399.307 203.721L399.54 205.462L400.752 207.579L401.172 209.65L403.176 212.473L403.316 213.931L403.595 214.307L403.269 218.213L401.964 220.377L402.523 221.506L402.29 222.729L401.917 226.164L401.311 227.575L401.405 229.316L403.595 228.61Z" fill="#989898"/>
<path d="M571.675 81.1596L571.442 80.0774L571.815 79.3717L573.167 78.666L573.54 80.1245L573.307 80.9714L572.188 81.6771V82.1476L573.074 81.4419L574.891 79.3247L576.709 78.4307L578.667 77.725L578.527 76.5958L578.061 75.2314L577.175 74.1022L576.336 73.7258L575.358 73.8199L575.125 74.0552L575.591 74.6668L576.29 74.2904L577.269 75.0432L577.641 76.3135L576.802 77.1604L575.73 77.6309L574.052 77.3957L572.235 74.5727L571.163 73.3495H570.324L569.811 73.7258L568.925 72.5026L569.065 71.7968L570.184 69.3503L568.832 67.2802L567.107 68.127L566.268 69.4914L557.739 71.7027L551.306 72.879L551.027 77.8661L551.353 80.1715L561.607 77.9132L566.828 76.5958L567.76 77.3486L569.345 79.3717L570.696 81.583L571.675 81.1596ZM577.502 81.8182L578.527 81.4889L578.76 80.6891L579.226 80.7361L579.692 81.8182L579.086 82.0535L577.269 82.1005L577.502 81.8182ZM573.12 82.1946L574.192 80.9714H574.938L575.777 81.6771L574.658 82.1476L573.633 82.6181L573.12 82.1946Z" fill="white"/>
<path d="M547.11 124.256L547.902 122.468L548.135 120.21L545.199 120.727L542.495 120.868L540.724 112.964L539.652 110.376L538.953 108.212L528.605 110.235L511.079 113.811L512.012 118.704L514.249 116.399L515.414 116.069L516.067 115.363L516.906 114.093L517.651 114.422L518.863 114.328L520.075 113.34L521.007 112.635L521.986 112.352L522.685 112.87L523.944 113.529L524.83 114.375L525.436 115.034L527.673 115.787L527.393 117.151L530.097 118.139L531.075 116.916L532.8 118.092L531.821 119.645L531.495 121.198L530.656 122.421V123.409L530.796 123.785L531.728 124.397L533.313 124.914L535.317 124.867L536.762 125.338L537.741 125.479L538.207 124.491L537.508 123.503V122.656L536.389 121.668L535.41 119.08L536.016 116.587L535.923 115.599L535.317 114.987C535.317 114.987 536.016 114.234 536.016 113.905C536.016 113.623 536.249 112.917 536.249 112.917L537.135 112.305L538.021 111.553L538.254 112.023L537.554 112.776L536.948 114.517L537.088 115.034L537.927 115.175L538.16 117.763L537.182 118.233L537.321 119.927L537.554 119.833L538.067 118.939L538.813 119.786L538.067 120.398L537.927 121.997L539.139 123.597L540.957 123.832L541.703 123.456L543.194 125.432L543.66 125.62L547.11 124.256ZM540.351 124.35L540.864 125.526L540.957 126.373L541.47 127.267C541.47 127.267 541.889 126.843 541.889 126.702C541.889 126.561 541.563 125.244 541.563 125.244L541.237 124.162L540.351 124.35Z" fill="white"/>
<path d="M561.561 43.2381L562.26 43.4263V42.203L562.633 39.6153L563.844 37.404L564.544 35.5221L563.658 34.3929V31.57L564.031 31.0995L564.404 29.8292L564.311 29.1234L564.217 26.8651L565.056 24.6067L566.408 20.4194L567.387 18.4433H567.993L568.599 18.5374V19.055L569.205 20.1371L570.463 20.4194L570.836 20.043V19.5725L572.701 18.2081L573.54 17.3612L574.239 17.4553L577.035 18.5845L577.921 19.055L582.163 33.1226H584.959L585.332 34.0165L585.425 36.2749L586.777 37.357H587.15L587.243 37.1217L587.01 36.6042L588.315 36.369L589.201 37.357L590.273 39.0978V39.9917L589.294 42.203L588.409 42.4853L586.824 43.9438L584.586 46.5315H583.98C583.701 46.5315 583.514 45.5435 583.514 45.5435L582.675 45.6376L582.209 46.3433L581.091 47.049L580.624 47.7548L581.37 48.4605L581.137 48.7428L580.904 50.0131L580.019 49.919V49.1662L579.879 48.5546L579.18 48.6958L578.341 47.1902L577.362 47.8018L577.968 48.5076L578.107 49.0251L577.735 49.6367L577.874 51.0952L577.968 51.848L577.222 53.0713L575.87 53.3065L575.73 54.671L573.26 56.1295L572.654 56.3647L571.908 55.659L570.463 57.3527L570.929 58.8583L570.23 59.47L570.137 61.5401L569.624 64.5042L568.599 64.0807L568.366 62.6222L566.501 62.1047L566.408 60.9285L560.955 43.3181L561.561 43.2381ZM578.574 50.5777L579.273 49.872L579.925 50.3895L580.205 51.5187L579.413 51.9421L578.574 50.5777ZM581.697 47.8018L582.536 48.6958C582.536 48.6958 583.141 48.7428 583.141 48.6017C583.141 48.4605 583.235 47.6607 583.235 47.6607L583.654 47.2843L583.281 46.4374L582.349 46.7668L581.697 47.8018Z" fill="white"/>
<path d="M458.41 99.2725L467.313 98.3786L467.406 98.8962L472.02 98.1904L477.614 97.3906L477.66 97.1083L477.753 96.4026L478.732 94.6618L479.665 93.8619L479.571 91.4624L480.317 90.7096L480.83 90.5685L480.923 88.8747L481.622 87.4633L482.135 87.7456L482.228 88.0279L482.601 88.122L483.487 87.6515L483.3 83.37L481.809 79.512L480.737 75.2306L479.618 73.725L478.406 72.8781L477.66 73.3957L475.842 74.2425L474.957 76.595L473.698 78.3358L473.186 78.6181L472.486 78.3358C472.486 78.3358 471.275 77.6301 471.368 77.3478C471.461 77.0655 471.601 74.9953 471.601 74.9953L473.186 74.3837L473.559 72.784L473.838 71.5607L474.957 70.808L474.817 66.1031L474.071 65.0209L473.465 64.6446L473.092 63.6565L473.465 63.2801L474.211 63.4213L474.304 62.6685L473.092 61.6334L472.486 60.4102H471.275L469.177 59.7044L466.613 58.1048H465.355L465.075 58.3871L464.609 58.1518L463.164 57.0697L461.813 57.9166L460.461 58.9987L460.601 60.6924L461.067 60.8336L462.046 61.0688L462.279 61.4452L461.067 61.8216L459.855 61.9628L459.156 62.8097L459.016 63.7977L459.156 64.5505L459.296 67.1381L457.618 68.1262L457.338 68.0321V66.056L457.944 64.9269L458.223 63.7977L457.851 63.4213L456.965 63.7977L456.499 65.7737L455.24 66.2913L454.401 67.1852L454.308 67.6557L454.588 68.0321L454.308 69.2553L453.236 69.4906V70.0081L453.609 71.1373L453.096 74.0073L452.351 75.8892L452.63 78.1005L452.863 78.6181L452.49 79.7473L452.351 80.1236L452.211 81.394L453.889 84.2169L455.24 87.2751L455.94 89.5334L455.567 91.7447L455.101 94.5677L453.982 97.0142L453.842 98.2845L452.351 99.743L458.41 99.2725ZM442.889 65.2091L442.283 64.6916L441.444 59.7985L439.719 59.1869L438.927 58.1048L433.054 56.7874L431.748 56.2699L427.973 55.2348L424.337 54.7643L422.52 52.2707L422.846 52.0355L424.104 51.6591L425.782 50.5769V50.1064L426.062 49.8242L428.859 49.3537L429.977 48.4597L432.028 47.4717L432.121 46.8601L433.007 45.4957L433.846 45.1193L434.452 44.2724L435.524 43.1903L437.575 42.0611L439.766 41.8258L440.278 42.3434L440.138 42.8139L438.414 43.2844L437.715 44.7429L436.643 45.1193L436.41 46.2484L435.291 47.754L435.151 48.9773L435.524 49.2125L435.99 48.695L437.668 47.3306L438.274 47.9422H439.346L440.838 48.4127L441.537 48.9302L442.236 50.3887L443.494 51.6591L445.312 51.565L446.011 51.0945L446.757 51.7061L447.503 51.9414L448.109 51.565H448.622L449.367 51.0945L451.232 49.4007L452.817 48.8832L455.893 48.742L457.99 47.8481L459.202 47.2365L459.902 47.3306V50.0124L460.135 50.1535L461.486 50.5299L462.372 50.2946L465.215 49.5419L465.728 49.0243L466.427 49.2596V52.553L467.919 54.0115L468.525 54.2938L469.13 54.7643L468.525 54.9054L468.152 54.7643L466.427 54.529L465.448 54.8113L464.376 54.7172L462.885 55.423H462.046L459.342 54.8113L456.918 54.9054L456.033 56.1287L452.77 56.411L451.651 56.7874L451.139 58.2459L450.533 58.7634L450.3 58.6693L449.6 57.9166L447.503 59.0457H447.223L446.711 58.293L446.338 58.3871L445.452 60.4572L444.986 62.3392L443.494 65.5855L442.889 65.2091ZM429.092 38.6265L429.931 37.6385L430.956 37.2621L433.473 35.4272L434.545 35.1449L434.778 35.3801L432.401 37.7796L430.863 38.6736L429.884 39.097L429.092 38.6265ZM469.27 53.7292L469.55 54.9054L471.042 54.9995L471.647 54.4349C471.647 54.4349 471.601 53.7292 471.461 53.6822C471.321 53.5881 470.715 52.7882 470.715 52.7882L469.69 52.8823L468.944 52.9764L468.804 53.494L469.27 53.7292Z" fill="#989898"/>
<path d="M374.555 31.4232L374.276 33.2628V38.0947L375.021 40.4612L375.907 42.0233L376.14 46.6952L376.979 53.0233L377.818 56.4579L378.005 59.469V61.9626L377.259 62.8095L376.42 63.4211V64.1268L376.839 64.9267L378.75 66.5734L379.077 68.0789V84.9695L407.183 84.6872L417.065 84.3579L416.832 81.5349L415.993 80.5469L412.637 78.3826L410.959 75.8891L409.374 75.4656L408.442 74.1482H406.95L405.319 72.3604L405.086 69.067L405.132 67.2321L405.831 65.8206L405.505 64.5503L404.2 63.0918L405.225 60.2218L407.742 58.3398L408.302 57.6811L408.208 53.9172L408.302 52.5058L409.514 51.0943L411.285 49.7299L411.891 49.6358L413.988 47.2833L414.827 46.9069L415.899 45.072L417.018 43.3783L418.463 42.155L420.7 41.214L424.988 39.285L426.806 38.4381L427.086 37.356L425.035 37.5442L424.709 38.0617H424.429L423.59 36.6032L419.442 36.7444L418.976 37.1208H418.51L418.276 36.5091L417.904 35.6623L416.692 35.8975L415.2 37.4031L414.454 37.7795H413.009L411.798 37.309V36.3209L411.192 36.2268L410.959 36.4621L409.747 35.8504L409.514 34.486L408.814 34.7213L408.581 35.1918L407.463 34.9565L404.992 33.8273L403.174 32.6041H401.823L401.217 32.1336L400.145 32.4159L399.632 32.9334L399.492 33.5451H397.255V32.557L394.318 32.4159L394.179 31.7101H391.941L391.195 30.9574L390.496 28.0874L390.123 25.4997L389.238 25.1233L388.166 24.8881L387.886 24.9822L387.746 28.8402L373.716 28.8261L374.555 31.4232Z" fill="#989898"/>
<path d="M434.45 159.355L434.683 156.579L436.641 154.979L437.526 154.509V153.144L437.853 152.391L437.34 151.639L436.221 151.78L435.242 150.604L434.45 148.486L434.87 147.263L433.937 145.758L433.098 143.593L430.954 143.264L427.785 140.629L426.759 138.653L427.132 137.101L428.158 134.278L428.437 132.866L427.552 132.396L424.335 132.113L423.823 131.219V129.29L421.352 127.644L417.996 123.974L416.924 120.539L416.691 118.563L417.018 117.434L415.806 115.976L415.246 114.846L411.657 115.223L406.996 115.505L384.25 116.07L384.856 117.293L384.809 118.328L385.881 120.022L387.28 121.857L388.725 123.268L389.937 123.362L390.589 123.88V125.244L389.75 125.997L389.517 127.079L390.496 128.585L391.615 129.996L392.826 130.984L393.432 136.442L393.059 155.261L393.293 157.943L404.339 157.849L415.2 157.52L430.348 156.908L431.374 158.649L431.001 160.107L429.556 161.284L429.323 162.131L431.747 162.366L433.658 161.848L434.45 159.355Z" fill="#989898"/>
<path d="M439.671 222.306L440.883 220.33L441.722 220.706L444.891 219.812L445.87 219.953L446.569 220.33H448.993L449.18 219.577L448.387 212.614L447.082 203.674L447.548 182.455L447.455 174.598L447.548 171.634L445.311 171.775L436.175 172.528L430.116 172.716L430.023 174.222L428.717 174.833L427.506 177.233L427.739 177.986L427.785 179.115L426.434 179.632L424.802 182.032L425.175 183.114L423.777 184.29L423.311 186.972L423.031 187.866L423.777 189.042L423.078 189.701L423.777 191.018L423.917 192.994L423.357 194.17L423.264 194.594L423.45 196.946L424.383 199.064L424.336 199.863L425.408 200.804L425.082 202.263L424.662 202.404L424.942 203.298L420.933 210.355L420.561 214.213L420.794 214.919L432.073 214.59L435.896 214.26L436.781 214.119L437.061 214.778L436.595 218.118L438.133 219.671L439.158 222.682L439.671 222.306Z" fill="#989898"/>
<path d="M326.315 33.2959L323.844 60.175L323.238 67.3264L295.691 64.2212L272.852 60.8807L272.199 66.1502L271.314 65.3504L271.127 64.1741L270.521 63.2802L268.983 63.986L268.657 65.1622L267.585 65.3033L265.814 64.5505L263.903 64.5976L262.784 64.9269L261.292 64.2212L259.894 64.3153L258.915 65.2092L258.496 64.9269L258.169 63.3273L258.496 61.8217L257.237 60.3161L255.699 59.1399L254.534 53.2118L254.487 50.7182L253.741 50.3418L253.462 50.8123L251.364 52.3178L250.805 52.2708L249.733 50.9534L249.64 49.636L252.902 41.5671L252.623 40.3109L250.991 39.784L250.805 39.3559L249.546 37.7091L247.402 32.8113L245.911 32.068L245.072 30.0637L245.678 27.8853L244.186 24.3237L246.237 14.307L261.479 17.5487L270.055 19.1483L285.111 21.6419L298.768 23.5239L312.378 25.1706L326.734 26.615L326.315 33.2959Z" fill="#989898"/>
<path d="M524.69 168.294L518.77 164.671L517.325 164.294L509.588 165.283L508.842 163.871L507.537 162.836L499.753 163.071L496.304 163.495L492.015 165.612L488.846 166.882L485.816 167.447L479.57 168.105L479.617 166.176L480.409 165.565L481.668 165.235L481.994 163.448L483.812 162.271L485.63 161.566L487.727 159.825L489.778 158.743L490.104 157.237L492.015 155.449L492.342 155.92L493.507 156.014L494.626 154.32L495.418 154.132L496.63 154.273L497.469 152.391L498.634 151.262L498.867 150.415L498.914 148.768L500.965 148.815L518.91 146.181L545.711 140.394L546.644 142.652L548.322 145.71L549.44 146.839L549.72 147.921L548.601 148.016L548.974 148.298L548.834 150.274L547.623 150.886L547.343 151.874L546.737 153.238L545.012 153.991L543.894 153.85L543.194 153.756L542.449 153.144L542.588 153.756V154.226H543.474L543.847 154.838L542.961 157.802H544.919L545.199 158.555L546.271 157.472L546.877 157.237L545.991 158.931L544.546 161.189H543.94L543.428 160.954L542.169 161.236L539.745 162.365L536.715 164.859L535.131 167.07L534.245 170.129L534.012 171.258L531.821 171.493L529.444 172.199L524.69 168.294ZM547.669 155.967L548.881 154.791L550.373 153.567L551.072 153.285L551.165 152.344L550.885 149.474L550.186 148.392L549.906 147.498L550.233 147.404L551.491 149.992L551.678 152.062L551.584 153.661L550 154.367L548.695 155.496L548.182 156.061L547.669 155.967Z" fill="#989898"/>
<path d="M377.539 59.4694L377.352 56.5523L376.513 53.1178L375.674 46.7144L375.441 42.1507L374.556 40.6545L373.81 38.1515V33.2537L374.09 31.4424L373.251 28.8358L359.92 28.5583L351.25 28.276L338.898 27.6643L327.152 26.6481L326.733 33.4325L324.542 57.3992L351.017 59.2341L377.539 60.0339V59.4694Z" fill="#989898"/>
<path d="M377.212 96.1203L376.746 95.0382L376.513 94.2854L375.161 93.5326L372.924 92.8269L371.898 92.2623L370.686 92.3093L368.962 92.4975L367.004 93.0621L364.207 91.1331L363.182 90.1921L358.195 90.4744L338.851 89.3453L322.257 88.3102L320.253 108.871L335.681 110.423L335.029 120.35L345.143 120.821L364.068 121.386L384.483 121.668H386.581L385.555 120.256L384.343 118.421L384.39 117.339L383.737 116.069L382.852 113.622L382.665 110.47L382.013 108.541L381.78 106.189L380.708 104.448L380.242 102.237L378.936 98.5198L378.47 96.0262L377.212 96.1203Z" fill="#989898"/>
<path d="M568.972 66.4797L569.485 64.9741L568.226 64.4095L567.993 62.951L566.082 62.4335L565.942 61.022L560.489 43.3881L560.162 43.4257L559.883 44.1785L559.603 43.9432L559.137 43.4727L558.438 44.3667L558.344 45.4441L558.578 49.4009L559.463 50.7183V52.7414L557.645 54.9997L556.527 55.4232V55.7525L557.039 56.6464V60.6926L556.666 65.0211L556.573 67.2324L557.039 67.8911L556.946 70.1024L556.713 70.8082L557.179 71.3257L559.556 70.7611L565.989 69.1144L566.781 67.75L568.646 66.8561L568.972 66.4797Z" fill="white"/>
<path d="M541.936 107.412L541.982 106.707L543.241 106.095L544.033 104.778L544.826 103.648L546.364 102.143V101.578L543.521 99.6492L543.055 98.3789L541.796 98.2377L541.749 97.8143L541.423 96.7792L542.449 96.2617L542.542 94.8972L541.936 94.2856L542.029 93.721L542.915 92.2625V90.804L544.08 89.3455L546.69 90.5217L549.673 91.4156L550.839 91.9802L550.885 92.8271L550.652 94.0974L550.839 96.2146L549.86 97.1085L549.347 97.579L549.58 97.8143L550.839 97.6731L551.351 97.2967L552.097 98.8964L552.19 103.319L552.47 103.837L551.957 106.424L550.512 109.482L549.254 111.364L548.881 113.623L547.902 114.752H547.529L547.389 113.482L547.762 113.011L547.669 112.305L545.805 112.023L543.567 110.941L542.076 109.577L541.61 108.636L541.936 107.412Z" fill="white"/>
<path d="M283.944 202.027L276.16 200.804L275.601 205.321L268.236 204.38L271.033 185.701L274.296 160.671L276.346 146.133L292.194 147.968L309.627 150.038L324.542 151.356L324.402 156.437L323.75 156.39L320.301 202.357L307.063 201.51L289.304 199.769L289.631 202.733L283.944 202.027Z" fill="#989898"/>
<path d="M215.38 81.677L233.419 85.6762L245.538 88.1227L240.597 113.106L238.08 127.126L236.542 134.419L235.563 139.641L234.351 147.357L233.558 148.816L232.813 148.769L232.253 147.546L230.948 147.31L230.342 146.793L229.503 146.84L229.084 147.216L228.245 147.828L228.105 151.262L227.965 151.968L227.732 157.802L227.219 158.649L219.435 146.652L199.812 117.434L194.018 108.495L198.004 93.157L201.737 78.4307L215.38 81.677Z" fill="#989898"/>
<path d="M551.118 94.097L551.351 92.8267L551.258 91.6975L549.859 90.9918L546.83 90.0508L544.033 88.8275L543.753 88.6393L542.495 88.4982L541.563 87.7924L540.584 85.0166L539.046 84.7813L537.927 83.6521L520.028 87.4631L505.299 90.286L505.066 87.2279L505.812 86.6633L506.418 86.1457L506.884 85.393L507.723 84.8754L508.609 84.0285L508.842 83.2757L509.821 82.0054L510.333 81.5349L510.24 81.0645L509.634 79.6059L508.795 79.5118L507.909 76.6419L509.261 75.795L511.312 75.0892L513.177 74.4776L514.668 74.2424L517.605 74.1483L518.49 74.7599L519.236 74.854L520.215 74.2424L521.427 73.7248L523.85 73.4896L524.829 72.6427L525.668 71.1371L526.414 70.2432H527.393L528.279 69.7257L528.372 68.6435L527.673 67.6555L527.533 66.9498L528.045 65.9618V65.256H527.206L526.367 64.8796L525.995 64.3621L525.901 63.1388L528.605 60.5511L528.884 60.1747L529.584 58.8103L530.935 56.6931L532.194 54.9523L533.173 53.8231L534.291 52.9763L535.736 52.4117L538.3 51.8L539.791 51.8941L541.889 51.1884L545.338 50.1533L545.664 52.4587L546.783 55.5169L547.156 57.8693L546.69 59.8454L547.902 61.9626L548.275 62.9036L547.855 64.4091L549.58 65.209L550.838 70.008V72.7368L550.559 77.8651L550.932 80.4058L551.258 82.0995L551.957 85.5341V89.3451L551.444 90.4272L552.423 91.6975L552.656 92.1209L551.771 92.9678L551.91 93.5795L552.516 93.4383L553.216 92.8267L554.288 91.6034L554.8 91.3211L555.546 91.6034L556.618 91.6975L560.3 89.8626L561.652 88.5923L562.258 87.8865L564.216 88.6393L562.631 90.3331L560.813 91.6975L557.504 94.1911L556.292 94.6616L553.588 95.5555L551.724 96.0731L551.258 95.8849L551.118 94.097Z" fill="white"/>
<path d="M467.405 99.3662L468.198 106.659L470.435 125.996L472.253 125.902L473.325 125.525L475.003 126.372L475.795 128.348L478.312 128.395L479.151 129.336H479.944L481.062 128.678L482.507 128.913L483.206 129.525L484.045 128.584L485.117 127.925L486.236 127.737L486.516 129.007L487.262 129.477L488.473 130.418L488.846 130.513L489.779 130.465L490.338 130.183V129.195L491.13 128.489L491.177 126.231L491.69 124.255L492.575 123.643L493.041 123.973L493.507 124.49L493.834 124.584L494.02 124.396L493.601 123.126V122.091L494.113 121.432L495.279 119.738L495.885 119.033L496.91 119.268L497.889 118.562L499.287 117.01L500.313 115.269L500.406 112.728L500.639 110.376V108.211L500.08 106.706L500.639 105.859L501.245 105.294L500.965 103.977L498.961 91.9325L496.071 93.6733L494.253 94.7554L492.668 96.4962L490.804 98.3311L489.312 98.7075L487.961 98.9428L485.397 100.166L484.418 100.26L482.834 98.8016L480.41 99.0839L479.198 98.3782L478.172 97.7666L467.405 99.3662Z" fill="#989898"/>
<path d="M349.993 157.566L349.154 168.999L348.734 177.468L348.828 178.22L350.692 179.914L351.484 180.338H351.904L352.323 179.35L353.023 180.244L353.768 180.291L353.908 180.197L354.001 179.679L355.307 180.338L355.12 181.984L356.891 182.22L358.057 182.69L360.014 182.972L361.086 183.725L362.252 182.925L363.883 183.255L364.908 184.713L365.468 184.76V185.842L366.447 186.172L367.612 185.184L368.451 185.466L369.709 185.513L370.036 186.595L372.087 187.442L372.879 187.301L373.765 185.325H374.37L374.883 186.313L376.841 186.689L378.426 187.301L379.824 187.677L380.57 187.348L380.896 186.078H382.994L383.879 186.501L385.138 185.607H385.79L386.07 186.266H387.748L388.68 185.419L389.752 185.701L390.544 186.736L391.943 187.536L393.528 187.96L394.413 188.524L394.273 170.834L393.621 165.705L393.574 161.659L392.875 158.554L392.595 155.355L392.642 153.332L386.769 153.473L365.188 153.238L344.353 152.249L325.009 151.403L324.823 156.437L349.993 157.566Z" fill="#989898"/>
<path d="M189.437 74.7606L202.6 78.1482L215.427 81.2064L223.351 82.9472L227.453 66.433L228.012 64.3629L229.131 61.7752L228.804 61.1635L227.639 61.2106L227.033 60.3637L227.313 59.658L227.499 58.1053L229.69 55.4236L230.576 55.0001L230.995 54.6237L231.321 53.3534L231.694 52.8359L233.512 50.1541L235.237 48.2721L235.33 46.7383L233.745 45.5668L233.186 43.4261L227.08 41.6241L219.948 39.9915L213.05 40.1656L212.537 39.5493L210.16 40.415L208.063 40.1891L206.944 39.4458L206.338 39.6998L204.157 39.5634L203.243 38.8906L200.987 38.0578L200.474 38.0249L198.4 37.4274L197.58 38.1425L194.662 38.0296L192.187 36.2182L192.285 31.8521L191.329 30.2054L189.418 29.9231L189.092 28.7468L187.973 28.5116L185.27 29.4996L184.198 32.5578L182.706 37.2627L181.215 40.3209L178.884 46.9548L175.854 53.3534L172.079 59.2816L171.193 60.646L170.82 64.6922L170.214 67.5151L171.478 69.1618L189.437 74.7606Z" fill="#989898"/>
<path d="M501.338 90.427L501.944 90.1917L504.601 87.6041L504.927 90.8504L520.542 87.7923L537.742 84.1224L538.814 85.2046L540.259 85.3928L541.191 88.0275L542.309 88.9214L543.615 89.1096L543.661 89.1567L542.449 90.6622V92.1208L541.564 93.5793L541.47 94.4732L542.076 95.0848L541.983 95.9788L540.864 96.4963L541.331 98.096L541.424 98.6135L542.729 98.7547L543.148 99.9309L545.898 101.766V101.954L544.454 103.365L543.754 104.401L542.962 105.718L541.703 106.282L541.051 106.424L540.072 107.035L539.326 107.694L528.885 109.717L510.847 113.387L505.58 114.046L503.762 114.375L501.385 103.836L499.381 91.6503L501.338 90.427Z" fill="white"/>
<path d="M565.195 82.6645L564.822 80.5943L564.076 77.7714L566.733 77.0657L567.432 77.6773L569.017 79.7004L570.322 81.7706L569.017 82.4293L568.411 82.3352L567.898 83.182L566.78 84.076L565.475 84.5935L565.195 82.6645Z" fill="white"/>
<path d="M511.778 194.593L510.799 194.123L509.914 191.488L508.748 190.406L507.583 190.171L506.884 188.007L505.486 184.948L503.528 184.101L502.642 183.255L502.083 182.031L500.964 181.09L499.892 180.479L498.867 179.114L497.375 177.985L495.325 177.185L495.138 176.527L494.066 175.209L493.833 174.503L492.062 171.963L490.477 172.01L488.659 170.834L488.1 170.269L488.007 169.61L488.286 168.858L489.545 168.246L489.172 167.305L492.155 166.035L496.443 163.917L499.753 163.494L507.397 163.259L508.469 164.153L509.308 165.799L511.452 165.423L517.325 164.717L518.583 165.094L524.41 168.575L529.117 172.48L526.647 175.021L525.435 177.891L525.202 180.855L524.456 181.231L523.944 182.502L522.825 182.784L521.846 184.478L520.588 185.748L519.516 187.348L518.77 187.724L517.092 189.324L515.74 189.418L516.206 190.924L513.876 193.417L512.804 194.17L511.778 194.593Z" fill="#989898"/>
<path d="M377.539 85.2049L377.119 86.7105L377.306 88.122L378.518 89.0629L377.958 91.6036L377.119 93.5326L377.818 95.0852L378.145 95.6027L377.539 95.6498L377.212 94.897L376.933 93.956L375.395 93.1091L373.157 92.4034L371.992 91.7918L370.64 91.8388L368.822 92.027L367.051 92.5916L364.581 90.8037L363.322 89.6746L358.242 90.051L338.898 88.9218L322.305 87.8867L323.004 76.2186L324.309 60.222L324.495 57.8695L351.017 59.7044L377.539 60.5042V61.7746L376.933 62.4803L376.001 63.186L375.954 64.2211L376.467 65.2562L378.378 66.8559L378.611 68.1262V85.0167L377.539 85.2049Z" fill="#989898"/>
<path d="M470.667 169.188L464.561 169.752L453.701 170.787L436.175 172.058L430.675 172.246L431.094 171.964L431.514 169.847L430.954 168.153L432.772 167.071L432.959 165.894L433.518 163.871L434.916 159.402L435.149 156.767L435.289 156.673L441.022 156.579L447.362 156.202L447.408 154.367L449.04 154.32L463.209 152.768L488.379 150.321L493.18 149.615L496.723 149.521L497.841 148.627L498.447 148.769L498.401 150.321L498.214 151.074L497.095 152.109L496.35 153.803L495.417 153.615L494.299 154.038L493.273 155.591L492.621 155.497L492.248 154.932L491.735 155.12L489.731 157.002L489.358 158.461L487.4 159.496L485.396 161.19L483.625 161.895L481.574 163.213L481.294 164.906L480.129 165.142L479.197 165.941L479.104 168.2L470.667 169.188Z" fill="#989898"/>
<path d="M289.816 200.24L307.062 201.934L320.72 202.828L324.169 156.861L349.525 157.99L348.733 168.953L348.267 177.422L348.36 178.363L350.411 180.292L351.343 180.809H352.182L352.415 180.245L352.741 180.668L353.86 180.762L354.373 180.48V180.386L354.839 180.621L354.652 182.362L356.75 182.691L357.869 183.114L359.826 183.444L361.038 184.291L362.343 183.397L363.602 183.679L364.627 185.138L365 185.185V186.173L366.538 186.69L367.703 185.702L368.403 185.937L369.381 185.984L369.661 186.972L372.085 187.913L373.157 187.678L374.043 185.796H374.089L374.602 186.69L376.746 187.114L378.331 187.725L379.822 188.196L380.941 187.631L381.267 186.549H382.945L383.924 187.02L385.322 186.079H385.509L385.742 186.737H387.933L388.818 185.89L389.424 186.079L390.217 187.067L391.755 187.961L393.34 188.431L394.505 189.09L395.763 190.031L397.208 189.466L398.187 189.842L398.513 199.252L398.84 203.722L399.119 205.651L400.331 207.721L400.751 209.838L402.708 212.614L402.848 214.073L403.128 214.449L402.802 218.072L401.45 220.33L402.056 221.553L401.823 222.683L401.45 226.07L400.844 227.482L400.984 229.458L398.374 230.21L393.759 232.328L393.293 233.222L392.081 234.115L391.102 234.821L390.496 235.198L387.839 237.691L386.581 238.679L384.111 240.185L381.454 241.314L378.517 242.914L377.678 243.619L374.975 245.313L373.39 245.595L371.572 248.183L369.708 248.324L369.242 249.218L370.314 250.112L369.614 252.7L369.009 254.817L368.496 256.652L368.123 258.769L368.496 259.898L369.335 263.192L369.801 266.062L370.64 267.332L370.174 268.038L368.729 268.932L366.072 267.097L363.508 266.579L362.903 266.814L361.411 266.532L359.453 265.074L357.03 264.556L353.487 262.956L352.508 261.122L351.902 258.063L350.411 257.169L350.131 256.087L350.411 255.805L350.551 254.205L349.945 253.923L349.665 253.453L350.271 251.382L349.525 250.3L348.034 249.689L346.449 247.618L344.771 244.513L342.813 243.29L342.906 242.396L340.436 236.609L340.063 234.633L339.224 233.739L339.131 233.033L336.334 230.54L335.122 229.081V228.564L333.91 227.576L330.741 227.058L327.292 226.776L325.847 225.694L323.749 226.541L322.071 227.246L320.999 228.752L320.533 230.493L318.482 233.363L317.364 234.492L316.152 234.021L315.313 233.504L314.427 233.222L312.609 232.139V231.857L311.77 230.963L309.346 229.975L305.897 226.305L304.825 224.094V220.283L303.334 217.225L303.101 215.955L302.355 215.484L301.842 214.496L299.512 213.508L298.906 212.755L295.596 209.038L294.99 207.533L292.8 206.451L292.1 204.381L290.888 203.016L290.096 202.781L289.816 200.24ZM371.106 266.909L370.826 263.568L369.568 260.181L369.288 256.887L369.987 253.029L371.526 249.783L373.157 247.242L374.648 245.548L374.928 245.642L372.691 248.748L370.64 251.806L369.708 254.911L369.568 257.358L369.987 260.228L371.199 263.615L371.432 266.062L371.526 266.767L371.106 266.909Z" fill="#989898"/>
<path d="M264.46 143.922L275.927 145.616L276.812 139.17L280.075 115.41L281.147 105.06L266.138 103.413L267.164 97.2494L268.003 92.2623L251.829 89.3923L246.002 88.2161L241.062 113.105L238.545 127.22L237.006 134.465L236.214 138.794L264.46 143.922Z" fill="#989898"/>
<path d="M547.063 124.773L546.969 126.09L545.618 127.878L545.431 130.042L545.664 131.642L544.825 133.995L543.8 134.889L543.101 132.724L543.287 130.184L544.033 128.208L544.359 126.655L544.313 125.855L547.063 124.773ZM518.956 145.757L500.964 148.392L498.727 148.344L497.701 148.203L496.536 149.097L493.134 149.144L488.333 149.897L485.21 150.179L487.121 148.956L489.032 147.874V146.886L491.689 143.451L493.6 141.711L494.625 140.534L496.303 142.557L498.074 142.981L499.333 142.51L500.265 141.805L501.384 142.369L503.528 141.758L504.32 139.688L505.439 140.017L506.93 138.935L507.676 139.123L508.981 137.617L509.075 136.347L508.702 135.782L510.939 130.842L511.778 128.396L512.011 126.184L512.337 126.09L512.85 126.89L513.549 127.455L515.367 127.361L516.159 123.55L517.558 123.267L517.931 122.044L519.236 121.009L519.748 120.021L520.588 117.998L520.634 115.834L522.312 116.492L525.388 117.951L525.528 115.504L527.113 116.069L526.833 117.433L530.842 118.892L531.494 119.739L531.122 121.291L530.516 121.903L530.283 122.703L530.516 123.832L531.448 124.444L533.266 125.102L534.617 125.573L536.901 125.996L537.927 126.984L539.418 127.173L539.838 127.737L539.651 129.948L540.304 130.466L540.071 131.36L540.63 131.736L540.537 132.395L539.279 132.348L539.325 133.101L540.397 133.806L540.444 134.465L541.283 135.312L541.516 136.488L540.304 137.147L541.05 137.853L543.753 137.053L545.478 139.97L518.956 145.757Z" fill="#989898"/>
<path d="M546.131 52.3648L547.25 55.4229L547.623 57.9165L547.156 59.7514L548.322 61.8216L548.741 62.9037L548.415 64.127L549.953 64.8327L551.305 69.914V72.4076L556.665 71.4196L556.199 70.902L556.479 70.0081L556.572 67.985L556.106 67.3263L556.199 65.115L556.572 60.7395V56.7403L556.059 55.8934V55.1406L557.364 54.6231L558.995 52.553V50.8592L558.11 49.5889L557.97 46.8647L545.805 50.0594L546.131 52.3648Z" fill="white"/>
<path d="M192.727 31.8517L191.655 29.8286L189.744 29.4993L189.558 28.3701L188.393 28.0878L187.041 27.8526L186.202 28.3231L185.13 26.9586L185.27 25.5942L186.528 25.4531L187.274 23.5711L186.062 23.0536L186.155 21.3128L188.206 21.0305L186.948 19.7602L186.249 16.4197L186.528 15.0553V11.3384L185.689 9.83283L186.761 5.41024L187.74 5.64548L188.859 7.0099L190.117 8.23317L191.609 9.1271L193.706 10.1151L195.151 10.3974L196.503 11.1032L198.088 11.5736L199.16 11.4795V10.3504L199.766 9.83283L200.745 9.2212L200.884 9.73874L201.024 10.5856L199.952 10.8209L199.812 11.8089L200.651 12.5146L201.164 13.6438L201.444 14.5377L202.143 14.4436L202.236 13.832L201.77 13.2204L201.537 11.7148L201.91 10.8679L201.63 10.1622V8.9389L202.469 7.24514L201.956 6.02187L200.838 3.76352L200.978 3.38713L201.63 3.01074L203.681 3.71648L208.202 4.9868L212.211 5.88073L221.533 8.56251L232.254 11.2443L239.245 12.8863L237.008 21.1481L234.91 30.9484L233.326 38.5938L233.139 42.9129L227.126 41.1627L219.995 39.5301L213.236 39.6807L212.724 38.9608L210.067 39.9441L208.249 39.7465L207.037 38.9044L206.245 39.2102L204.31 39.0925L203.509 38.4715L201.103 37.6152L200.553 37.5399L198.316 36.886L197.421 37.6623L194.788 37.5446L192.639 35.9685L192.727 31.8517ZM197.202 5.78663L198.134 5.69253L198.367 6.35121L199.067 5.59843H200.139L200.512 6.30417L199.812 7.104L200.092 7.48039L199.766 8.42137L199.113 8.60956C199.113 8.60956 198.694 8.65661 198.694 8.51546C198.694 8.37432 199.393 7.29219 199.393 7.29219L198.6 7.0099L198.461 7.71563L198.134 7.99793L197.435 6.9158L197.202 5.78663Z" fill="#989898"/>
<path d="M410.354 51.7065L411.706 51.9417L413.058 51.6594L416.507 50.1539L417.859 49.2599L418.838 48.8835L419.723 49.5893L419.21 50.1068L418.325 51.5653L418.045 52.4593L418.511 52.7416L419.35 52.2711L419.863 52.177L421.122 52.5534L421.401 53.0709L421.914 53.165L422.194 52.6475L424.058 55.141L427.88 55.7056L431.702 56.7407L432.914 57.2583L438.647 58.4815L439.393 59.5636L441.071 60.1282L441.864 64.9272L442.609 65.5859L443.308 66.0094L442.796 67.0915L441.957 67.8443L440.978 70.0556L440.372 71.1847L440.465 72.0316L441.164 72.1728L441.677 71.2788L442.376 70.9024L442.749 69.8203L443.635 68.9734L444.893 67.0915L446.851 64.1274L447.224 63.8922L447.364 64.3626L447.27 65.4448L445.919 68.6441L444.66 71.3259L444.427 72.8314L444.147 74.0547L444.52 74.6664L444.427 75.9367L443.542 77.0659L443.308 77.9127L443.588 79.6065L443.868 81.2062L443.169 82.4294L442.796 83.7938L442.33 85.2524L442.842 86.3815L443.122 89.2515L443.868 91.3687L443.775 92.7802L436.363 93.6271L428.206 94.0976H422.287L421.961 93.3918L420.609 93.2036L419.397 92.592L418.325 90.8512L418.185 89.1574L419.117 87.793L418.884 87.1343L417.905 86.0992L417.532 84.5466L417.253 81.3473L416.274 80.1711L413.011 78.0539L411.24 75.5132L409.655 75.0427L408.63 73.7254H407.138L405.786 72.1728L405.553 69.1146L405.6 67.3267L406.299 65.8682L405.926 64.3626L404.761 63.0453L405.6 60.5046L408.024 58.7168L408.77 57.8228L408.676 54.0119L408.77 52.6945L409.888 51.3771L410.354 51.7065Z" fill="#989898"/>
<path d="M511.733 119.645L514.437 116.822L515.649 116.446L516.394 115.74L517.094 114.705L517.606 114.846L519.051 114.752L521.195 113.058L521.895 112.823L522.501 113.294L523.712 113.858L525.111 115.27L524.924 117.293L522.407 116.07L520.17 115.223L520.123 117.999L518.911 120.68L517.56 121.809L517.187 122.892L515.789 123.127L514.996 126.938L513.691 127.032L513.178 126.561L512.619 125.62L511.594 125.856L511.36 128.255L510.521 130.655L508.191 135.83L508.61 136.489L508.564 137.43L507.538 138.606L506.793 138.418L505.348 139.5L504.043 139.123L503.204 141.429L501.432 141.899L500.267 141.288L499.102 142.182L498.03 142.511L496.538 142.135L494.767 140.017L493.136 138.982L491.97 137.806L490.619 136.065L490.386 134.983L489.08 134.183L488.801 133.572L488.708 130.937L488.847 130.984L489.966 130.89L490.805 130.419V129.384L491.597 128.679L491.644 126.232L492.064 124.538L492.576 124.209L492.763 124.35L493.229 124.868L494.021 125.103L494.534 124.491L494.068 123.033V122.28L495.513 120.116L496.072 119.504L497.004 119.739L498.216 118.892L499.661 117.293L500.78 115.364L500.873 112.729L501.106 110.471V108.165L500.593 106.754L501.013 106.142L501.386 105.813L503.39 114.893L505.394 114.517L510.615 113.905L511.733 119.645Z" fill="#989898"/>
<path d="M322.537 76.1724L321.838 88.1228L319.787 108.824L318.529 108.683L279.702 104.402L266.697 102.99L267.629 97.3444L270.846 78.0544L272.617 66.6685L273.223 61.399L295.689 64.6925L323.237 67.7507L322.537 76.1724Z" fill="#989898"/>
</svg>
