<svg width="281" height="167" viewBox="0 0 281 167" fill="none" xmlns="http://www.w3.org/2000/svg">
<path opacity="0.1" d="M168.924 117.854C174.353 117.514 181.088 113.471 186.325 111.682C192.523 109.571 198.745 107.54 204.993 105.589C226.741 98.7939 248.722 93.0039 270.937 88.2191C273.01 87.7713 275.086 87.3344 277.166 86.9082C273.926 79.2216 268.907 72.6025 262.61 67.712C262.771 66.0293 262.853 64.3386 262.856 62.6466C262.856 35.9062 243.394 14.2285 219.379 14.2285C211.986 14.2199 204.716 16.3154 198.28 20.3108C181.282 8.03298 159.097 0.602051 134.824 0.602051C100.332 0.602051 70.0537 15.6068 52.8965 38.2015L133.532 53.1604L182.987 62.331C126.607 64.1786 70.0537 66.0154 13.8365 61.6783C6.41555 69.563 1.71861 80.0331 0.548386 91.2989C-0.621837 102.565 1.8073 113.928 7.42066 123.445C7.42066 124.413 7.45751 125.374 7.52383 126.326C8.95585 126.776 10.3387 127.213 11.5792 127.499C31.4932 132.118 51.5349 135.984 71.7043 139.097C56.8413 149.16 38.7409 150.585 21.5959 154.846C29.8982 162.372 41.1726 166.984 53.5965 166.984H238.585C258.616 166.984 274.852 151.672 274.852 132.78C277.858 127.337 279.861 121.299 280.747 115.008C243.682 118.938 206.154 115.526 168.924 117.854Z" fill="#EE5239"/>
<g opacity="0.5" filter="url(#filter0_d)">
<path opacity="0.5" d="M281 106.962C281.02 99.1759 279.334 91.4999 276.085 84.5791C272.836 77.6587 268.119 71.6979 262.332 67.1995C262.492 65.5176 262.574 63.8278 262.578 62.1368C262.578 35.3964 243.107 13.7268 219.101 13.7268C211.707 13.7181 204.437 15.8126 197.999 19.8063C181.002 7.52314 158.814 0.0895996 134.541 0.0895996C95.0587 0.0895996 61.0734 19.7659 46.0016 47.9817C45.164 47.9277 44.3215 47.8981 43.4716 47.8981C19.4638 47.8981 -0.00479792 69.5757 -0.00479792 96.3159C-0.0216254 105.761 2.46354 115.008 7.14793 122.93C7.14793 146.989 27.8275 166.493 53.3262 166.493H238.32C258.348 166.493 274.584 151.178 274.584 132.287C278.797 124.651 281.016 115.89 281 106.962Z" fill="#EE5239"/>
</g>
<g opacity="0.1">
<path opacity="0.1" d="M193.898 30.938L193.591 30.9622L193.556 30.9892C193.671 30.9841 193.786 30.9669 193.898 30.938Z" fill="black"/>
</g>
<path d="M183.977 43.8801L183.81 46.3426C183.785 46.6771 183.203 54.6393 178.909 63.9448C175.225 71.9259 168.055 82.3211 154.518 88.1633C153.462 88.6218 152.366 89.0498 151.229 89.4472L149.962 85.0776C153.144 83.978 156.209 82.5059 159.104 80.6865C166.004 76.3116 171.369 70.0675 175.109 62.0325C177.094 57.7544 178.509 53.1853 179.31 48.4654H163.909V43.8801H183.977Z" fill="#EE5239"/>
<path opacity="0.1" d="M152.86 88.1659C166.394 82.3236 173.567 71.9312 177.249 63.9501C181.542 54.6446 182.127 46.6878 182.149 46.3479L182.316 43.8853H184.035L183.868 46.3479C183.846 46.6824 183.262 54.6446 178.968 63.9501C175.284 71.9312 168.114 82.3236 154.58 88.1659C153.523 88.6244 152.426 89.0532 151.288 89.4524L151.121 88.8779C151.714 88.646 152.294 88.4086 152.86 88.1659Z" fill="white"/>
<path d="M125.762 85.0776L124.495 89.4472C123.357 89.048 122.26 88.6191 121.203 88.1606C107.669 82.3184 100.497 71.9259 96.8149 63.9448C92.5213 54.6393 91.9367 46.6825 91.9146 46.3426L91.7476 43.8801H111.806V48.4654H96.4022C97.2074 53.1859 98.6261 57.755 100.615 62.0325C104.356 70.0675 109.718 76.3116 116.618 80.6838C119.513 82.5051 122.579 83.9782 125.762 85.0776Z" fill="#EE5239"/>
<path opacity="0.1" d="M122.859 89.2659C109.325 83.4237 102.152 73.0313 98.4703 65.0501C94.1767 55.7447 93.5921 47.7878 93.57 47.448L93.403 44.9854H91.6836L91.8506 47.448C91.8727 47.7824 92.4573 55.7447 96.7509 65.0501C100.435 73.0313 107.605 83.4237 121.139 89.2659C122.196 89.7244 123.293 90.1532 124.431 90.5524L124.598 89.9779C124.007 89.7459 123.427 89.5087 122.859 89.2659Z" fill="white"/>
<path d="M161.032 127.316V152.042H114.689V127.316L116.163 125.159C131.181 119.306 134.224 104.042 134.831 98.003C134.921 97.168 134.973 96.329 134.986 95.489H140.716C140.729 96.329 140.781 97.168 140.871 98.003C141.488 104.042 144.531 119.311 159.539 125.159L161.032 127.316Z" fill="#EE5239"/>
<path opacity="0.1" d="M161.032 127.316H114.689V130.418H161.032V127.316Z" fill="black"/>
<path opacity="0.1" d="M118.62 126.259C133.637 120.406 136.681 105.142 137.287 99.1029C137.378 98.2679 137.429 97.4289 137.442 96.5889H134.986C134.973 97.4289 134.921 98.2679 134.831 99.1029C134.215 105.142 131.171 120.411 116.163 126.259L114.689 128.416V153.142H117.146V128.416L118.62 126.259Z" fill="white"/>
<path opacity="0.1" d="M125.762 86.1775L124.495 90.5471C123.356 90.1479 122.259 89.719 121.203 89.2605C119.466 86.9306 117.93 84.4275 116.617 81.7837C119.513 83.605 122.579 85.0781 125.762 86.1775Z" fill="black"/>
<path opacity="0.1" d="M149.959 86.1775C153.141 85.0779 156.206 83.6058 159.101 81.7864C157.787 84.4305 156.252 86.9345 154.515 89.2659C153.459 89.7244 152.363 90.1524 151.226 90.5498L149.959 86.1775Z" fill="black"/>
<path opacity="0.1" d="M140.881 99.1029C138.886 99.5269 136.836 99.5269 134.841 99.1029C134.931 98.2679 134.983 97.4289 134.996 96.5889H140.726C140.739 97.4289 140.791 98.2679 140.881 99.1029Z" fill="black"/>
<path d="M108.141 36.2844C108.246 70.2858 121.51 97.7818 137.862 97.7818C154.213 97.7818 167.475 70.2858 167.583 36.2844H108.141Z" fill="#EE5239"/>
<path opacity="0.1" d="M113.422 37.3845H108.141C108.246 71.3858 121.51 98.8819 137.862 98.8819C138.747 98.8799 139.63 98.7979 140.502 98.6359C125.386 95.8629 113.522 69.5355 113.422 37.3845Z" fill="white"/>
<path d="M153.621 136.781H122.1V145.682H153.621V136.781Z" fill="#3F3D56"/>
<path opacity="0.1" d="M123.573 137.995H153.621V136.781H122.1V145.682H123.573V137.995Z" fill="white"/>
<defs>
<filter id="filter0_d" x="-4.00488" y="0.0895996" width="289.005" height="174.403" filterUnits="userSpaceOnUse" color-interpolation-filters="sRGB">
<feFlood flood-opacity="0" result="BackgroundImageFix"/>
<feColorMatrix in="SourceAlpha" type="matrix" values="0 0 0 0 0 0 0 0 0 0 0 0 0 0 0 0 0 0 127 0"/>
<feOffset dy="4"/>
<feGaussianBlur stdDeviation="2"/>
<feColorMatrix type="matrix" values="0 0 0 0 0 0 0 0 0 0 0 0 0 0 0 0 0 0 0.25 0"/>
<feBlend mode="normal" in2="BackgroundImageFix" result="effect1_dropShadow"/>
<feBlend mode="normal" in="SourceGraphic" in2="effect1_dropShadow" result="shape"/>
</filter>
</defs>
</svg>
