<svg  viewBox="0 0 457 416" fill="none" xmlns="http://www.w3.org/2000/svg">
<path d="M45.4783 407.728C37.5103 407.728 29.7823 406.672 22.2943 404.56C14.9023 402.352 8.95025 399.52 4.43825 396.064L12.3583 378.496C16.6783 381.664 21.8143 384.208 27.7663 386.128C33.7183 388.048 39.6703 389.008 45.6223 389.008C52.2463 389.008 57.1423 388.048 60.3103 386.128C63.4783 384.112 65.0623 381.472 65.0623 378.208C65.0623 375.808 64.1023 373.84 62.1823 372.304C60.3583 370.672 57.9583 369.376 54.9823 368.416C52.1023 367.456 48.1663 366.4 43.1743 365.248C35.4943 363.424 29.2063 361.6 24.3103 359.776C19.4143 357.952 15.1903 355.024 11.6383 350.992C8.18225 346.96 6.45425 341.584 6.45425 334.864C6.45425 329.008 8.03825 323.728 11.2063 319.024C14.3743 314.224 19.1263 310.432 25.4623 307.648C31.8943 304.864 39.7183 303.472 48.9343 303.472C55.3663 303.472 61.6543 304.24 67.7983 305.776C73.9423 307.312 79.3183 309.52 83.9263 312.4L76.7263 330.112C67.4143 324.832 58.1023 322.192 48.7903 322.192C42.2623 322.192 37.4143 323.248 34.2463 325.36C31.1743 327.472 29.6383 330.256 29.6383 333.712C29.6383 337.168 31.4143 339.76 34.9663 341.488C38.6143 343.12 44.1343 344.752 51.5263 346.384C59.2063 348.208 65.4943 350.032 70.3903 351.856C75.2863 353.68 79.4623 356.56 82.9183 360.496C86.4703 364.432 88.2463 369.76 88.2463 376.48C88.2463 382.24 86.6143 387.52 83.3503 392.32C80.1823 397.024 75.3823 400.768 68.9503 403.552C62.5183 406.336 54.6943 407.728 45.4783 407.728ZM139.466 407.152C131.306 407.152 123.962 405.472 117.434 402.112C111.002 398.656 105.962 393.904 102.314 387.856C98.6664 381.808 96.8424 374.944 96.8424 367.264C96.8424 359.584 98.6664 352.72 102.314 346.672C105.962 340.624 111.002 335.92 117.434 332.56C123.962 329.104 131.306 327.376 139.466 327.376C147.626 327.376 154.922 329.104 161.354 332.56C167.786 335.92 172.826 340.624 176.474 346.672C180.122 352.72 181.946 359.584 181.946 367.264C181.946 374.944 180.122 381.808 176.474 387.856C172.826 393.904 167.786 398.656 161.354 402.112C154.922 405.472 147.626 407.152 139.466 407.152ZM139.466 388.72C145.226 388.72 149.93 386.8 153.578 382.96C157.322 379.024 159.194 373.792 159.194 367.264C159.194 360.736 157.322 355.552 153.578 351.712C149.93 347.776 145.226 345.808 139.466 345.808C133.706 345.808 128.954 347.776 125.21 351.712C121.466 355.552 119.594 360.736 119.594 367.264C119.594 373.792 121.466 379.024 125.21 382.96C128.954 386.8 133.706 388.72 139.466 388.72ZM275.01 328.528V406H253.698V396.784C250.722 400.144 247.17 402.736 243.042 404.56C238.914 406.288 234.45 407.152 229.65 407.152C219.474 407.152 211.41 404.224 205.458 398.368C199.506 392.512 196.53 383.824 196.53 372.304V328.528H218.994V368.992C218.994 381.472 224.226 387.712 234.69 387.712C240.066 387.712 244.386 385.984 247.65 382.528C250.914 378.976 252.546 373.744 252.546 366.832V328.528H275.01ZM345.789 402.256C343.581 403.888 340.845 405.136 337.581 406C334.413 406.768 331.053 407.152 327.501 407.152C318.285 407.152 311.133 404.8 306.045 400.096C301.053 395.392 298.557 388.48 298.557 379.36V347.536H286.605V330.256H298.557V311.392H321.021V330.256H340.317V347.536H321.021V379.072C321.021 382.336 321.837 384.88 323.469 386.704C325.197 388.432 327.597 389.296 330.669 389.296C334.221 389.296 337.245 388.336 339.741 386.416L345.789 402.256ZM405.487 327.376C415.087 327.376 422.815 330.256 428.671 336.016C434.623 341.776 437.599 350.32 437.599 361.648V406H415.135V365.104C415.135 358.96 413.791 354.4 411.103 351.424C408.415 348.352 404.527 346.816 399.439 346.816C393.775 346.816 389.263 348.592 385.903 352.144C382.543 355.6 380.863 360.784 380.863 367.696V406H358.399V299.152H380.863V336.592C383.839 333.616 387.439 331.36 391.663 329.824C395.887 328.192 400.495 327.376 405.487 327.376Z" fill="white"/>
<path d="M302.951 219.436L303.231 219.53L303.837 218.259L304.536 216.189L305.608 216.472L307.053 219.295V219.765L305.795 220.659L307.053 220.8L309.477 219.624L309.337 216.048L308.172 215.201L307.24 214.26L307.426 212.378L312.32 211.673L324.299 210.308L327.422 210.026L330.032 210.073L329.799 209.038L329.1 208.661L328.681 208.144L329.147 206.921L328.96 204.474L328.215 202.357L328.587 199.957L329.38 197.699L329.287 196.899L328.448 196.57L328.215 194.876L326.956 193.276L326.024 190.218L325.371 187.066L324.532 184.714L322.761 177.186L321.13 173.469L320.757 170.834L320.803 169.799L316.608 170.175L305.701 171.211L300.015 171.587L299.922 174.598L300.015 182.455L299.689 197.04L299.549 203.674L300.854 212.52L301.6 219.436H302.951Z" fill="white"/>
<path d="M283.748 162.835L280.765 162.506L281.185 161.047L282.63 159.824L282.909 158.742L282.07 157.378L267.201 157.942L256.341 158.272L245.341 158.413L246.04 161.659L246.086 165.658L246.739 170.787L246.879 188.759L247.858 189.512L249.256 188.948L250.608 189.512L250.794 194.264L262.54 194.17L275.032 193.794L275.451 192.9L275.312 191.112L274.519 189.653L275.218 188.995L274.566 187.959L274.892 186.83L275.405 184.054L276.663 182.972L276.29 181.937L278.155 179.302L279.32 178.785L279.274 177.985L279.041 177.185L280.392 174.456L281.558 173.939L281.651 172.386L282.63 171.728L283.049 169.799L282.397 167.917L284.354 166.787L284.494 165.799L285.053 163.823L285.473 162.365L283.748 162.835Z" fill="white"/>
<path d="M72.9721 183.349L72.8323 184.054L73.0653 184.525L81.8748 189.559L87.5148 193.135L94.3666 197.181L102.197 201.886L107.93 203.015L119.77 204.286L122.566 185.654L125.829 160.671L127.88 146.086L116.414 144.392L88.1207 139.217L88.0275 139.734L86.8156 147.497L85.8368 149.285L84.5317 149.191L83.9723 147.968L82.7604 147.78L82.2011 147.262L81.6884 147.309L80.7095 148.109L80.5697 151.308L80.4299 152.014L80.1968 157.895L79.4977 159.024L79.3112 160.577L80.6163 162.929L81.1291 165.517L81.4553 166.035L81.968 166.458L81.7816 167.587L80.9892 168.152L79.4044 168.905L78.6587 169.752L77.9129 171.445L77.6798 173.751L76.2815 175.115L75.3959 175.539L75.3493 178.267L75.0696 179.02L75.3027 179.397L77.1205 179.585L76.701 180.996L75.9086 182.125L74.184 182.314L72.9721 183.349Z" fill="white"/>
<path d="M67.1923 181.561L58.01 180.291L53.3489 179.585L53.1158 178.738V174.315L52.976 172.81L51.7641 170.834L51.3912 169.752L49.5734 167.776L48.2216 165.564L46.9631 165.47L45.4716 165.094L45.3318 164.623L46.0309 164.341L45.7512 162.835L45.0521 161.847L42.8148 161.471L40.9969 160.483L40.4842 159.401L39.2723 157.143L37.9206 155.684H36.5689L34.751 154.696L32.6535 153.849L30.6959 153.614L29.5772 152.344L29.8103 151.45L30.6493 148.109L31.0222 147.215V146.086L30.2764 145.616L30.0433 144.251L29.3442 143.028L27.7594 140.299L27.1534 138.841L26.4543 136.629L25.7085 134.136L24.2169 132.065L23.9839 130.701L24.3568 128.866H24.8695L25.8483 128.113L26.3611 126.42L25.8949 125.149L24.6364 124.914L23.7508 123.691L22.772 121.95L22.6788 118.092L22.9584 117.198L23.2381 116.116L23.4712 114.987L20.8143 112.023V111.035L20.9542 110.799L21.094 109.294L20.4881 107.412L19.416 105.154L18.1575 103.036L17.3185 101.201L17.7846 99.4606L18.0643 96.7318L18.9033 95.2732L19.0431 92.2151L18.5304 90.5213L17.7846 88.5452L16.5261 86.5692L16.899 85.0636L17.5982 83.0876L18.4372 82.7112L18.577 82.1936L20.022 80.9704L22.4457 75.4186L22.5389 71.937L23.3267 69.6316L41.3605 75.1834L53.2929 78.2886L49.564 93.0149L45.5229 108.588L51.4098 117.621L71.061 146.933L79.0315 159.213L78.8451 160.671L80.1502 163.118L80.6629 165.658L81.129 166.364L81.4553 166.646L81.3621 167.305L80.7095 167.776L79.1248 168.528L78.2391 169.516L77.4468 171.351L77.2137 173.563L76.0018 174.739L74.9298 175.256L74.8832 178.173L74.6035 179.067L75.0696 179.867L76.4679 180.008L76.2815 180.761L75.6289 181.702L73.8111 181.984L67.1923 181.561ZM32.7468 158.554L33.3527 159.26L33.2595 159.871L31.7679 159.824L31.4883 159.26L31.2086 158.554H32.7468ZM33.6324 158.554L34.1917 158.272L35.8697 159.26L37.3146 159.824L36.8952 160.107L34.7977 160.013L34.0519 159.26L33.6324 158.554ZM43.2809 167.87L44.1199 168.952L44.4928 169.422L45.1919 169.705L45.4716 168.999L45.0055 168.152L43.747 167.211L43.2343 167.305V167.87H43.2809ZM42.6283 171.963L43.4673 173.468L44.0266 174.362L43.3275 174.457L42.7215 173.892C42.7215 173.892 42.3953 173.186 42.3953 172.998V171.963H42.6283Z" fill="#989898"/>
<path d="M187.216 110.8L170.436 109.153L133.567 105.107L132.542 115.505L129.279 139.218L128.393 145.663L144.241 147.498L161.72 149.568L177.894 150.98L184.559 151.262L187.216 110.8Z" fill="#989898"/>
<path d="M407.127 89.8158L408.805 88.3102L409.69 87.3222L410.063 87.6045L411.322 86.8988L413.745 86.3812L417.008 84.7345L416.728 82.7584L416.356 80.6883L415.61 77.8654L413.605 78.3829L403.444 80.5942L403.724 82.0527L404.423 85.4873V89.3923L404.004 90.3804L404.796 91.4155L407.127 89.8158Z" fill="#989898"/>
<path d="M398.925 116.305L398.459 116.54L396.781 115.411L395.942 113.199L395.056 111.506L393.984 111.035L393.005 109.341L393.238 108.4L393.471 107.318L393.518 106.801L393.238 106.848L392.446 107.318L391.514 108.118L391.42 108.259L392.073 110.188L393.145 112.823L394.87 120.398L397.2 120.257L399.997 119.739L398.925 116.305Z" fill="#989898"/>
<path d="M359.678 209.461L357.254 209.132L356.927 209.508L357.627 211.578L357.44 214.025L355.529 213.554L355.436 212.237H353.525L351.055 212.566L335.953 213.46L332.13 213.319L331.338 212.519L330.173 210.543H327.423L324.346 210.778L307.846 212.754L307.706 214.072L308.452 214.825L309.804 215.765L309.944 219.718L311.482 219.435L314.278 218.447L317.075 218.212L319.126 217.93L322.668 218.777L326.444 220.612L327.19 221.317L328.541 221.835L329.287 222.729L329.427 223.999L330.919 223.387H332.736L334.414 222.493L336.139 220.8L337.584 220.894L337.817 220.376L337.444 219.906L337.537 219.012L339.402 218.635H340.614L341.965 219.341L343.923 220.047L345.042 221.788L346.3 222.258L346.813 223.858L348.398 224.611L349.143 225.834L350.029 226.116L352.453 226.728L353.059 228.186L354.457 229.927V234.397L353.758 236.608L353.898 237.879L354.504 240.137L355.343 242.019L355.716 241.784L356.415 239.666L355.203 239.196L355.063 238.914L355.809 238.631L357.906 239.102L358 239.855L356.508 242.442L355.529 243.571L357.207 245.312L358.419 246.771L359.771 249.264L361.122 251.099L362.101 253.452L362.94 253.593L363.686 252.605L364.525 253.122L365.737 255.004L366.017 256.698L367.462 258.768L367.834 258.157L369.652 258.298L371.33 259.38L372.915 261.826L373.288 263.426L373.428 264.79L373.94 265.261L374.546 265.496L375.665 265.026L376.364 264.273L378.182 264.179L379.627 263.473L380.886 261.968L380.652 261.074L380.513 259.944L380.792 259.051L380.652 258.157L381.771 257.545L381.911 255.945L381.631 255.098L381.398 249.453L380.792 245.877L378.695 242.019L377.017 239.29L375.805 236.796L374.453 235.432L373.101 231.95L373.428 231.292L373.94 230.68L373.195 229.316L371.33 227.575L369.093 224.987L367.368 222.023L364.898 217.6L363.173 213.037L362.101 209.602L359.678 209.461ZM367.928 271.895L369.046 271.613L369.652 271.518L370.351 270.436L371.424 269.684L372.029 269.919L372.822 270.06L373.008 270.578L371.377 271.142L369.419 271.848L368.347 272.412L367.928 271.895ZM374.22 269.542L374.779 270.06L376.038 269.072L378.508 267.096L380.233 265.261L381.398 262.156L381.864 261.356L381.958 259.756L381.631 259.991L381.165 261.309L380.466 263.473L378.974 265.967L376.924 267.943L375.339 268.837L374.22 269.542Z" fill="white"/>
<path d="M359.676 208.991L357.066 208.662L356.414 209.415L357.159 211.626L357.02 213.461L355.994 213.179L355.901 211.767H353.477L351.007 212.096L335.951 212.99L332.362 212.849L331.71 212.285L330.545 210.262L330.172 208.709L329.426 208.285L329.193 208.05L329.612 207.015L329.426 204.427L328.68 202.31L329.053 200.005L329.845 197.747L329.752 196.57L328.866 196.241L328.68 194.735L327.375 193.089L326.489 190.172L325.79 186.878L324.998 184.62L323.227 177.092L321.595 173.328L321.222 170.835L321.269 169.752L322.807 169.611L329.146 168.859L337.816 167.918L340.752 167.4L340.985 168.059L339.96 168.482L339.54 169.517L339.727 170.458L340.379 171.211L342.384 172.481L343.875 172.434L345.367 174.646L345.646 175.398L346.719 176.716L346.952 177.516L349.142 178.362L350.541 179.397L351.613 180.809L352.685 181.421L353.617 182.267L354.27 183.538L355.248 184.432L357.159 185.279L358.418 188.102L359.21 190.501L360.515 190.83L361.494 191.724L362.426 194.406L363.778 195.159L364.571 194.782L364.757 195.347L363.219 198.264L363.452 199.487L362.753 201.463L361.681 206.168L362.054 209.132L359.676 208.991Z" fill="white"/>
<path d="M269.531 86.382L270.51 87.37L270.65 87.6993L269.717 89.1108L269.857 90.9927L271.069 92.9218L272.514 93.6745L273.633 93.8157L274.052 94.6626L274.145 95.7917L275.311 96.2622L275.73 96.7798L275.963 97.5325L277.734 99.0852L278.014 99.9791L277.688 101.391L276.895 103.131L276.616 104.261L275.637 105.013L274.891 105.249L272.234 105.954L271.489 108.213L271.861 109.06L272.654 109.765L272.561 111.412L271.675 112.071L271.349 112.918V114.047L270.696 114.235L269.904 114.894L269.671 115.693L269.857 116.493L269.251 116.964L268.179 115.693L267.527 114.376L263.658 114.752L258.997 115.035L236.064 115.599L235.318 113.576L235.132 110.424L234.479 108.448L234.153 106.001L233.128 104.261L232.662 102.096L231.403 98.4265L230.89 95.7917L230.238 94.8978L229.632 93.5334L230.424 91.7455L230.984 88.8755L229.725 87.8405L229.585 86.7113L229.911 85.5821L230.75 85.441L259.23 85.1587L269.111 84.8293L269.531 86.382Z" fill="#989898"/>
<path d="M91.7111 12.9991L89.4738 21.1904L87.3763 31.0048L85.7915 38.6361L85.6051 43.1857L86.1644 45.2747L87.7958 46.5262L87.7026 48.3658L85.8848 50.436L83.7873 53.5412L83.3678 54.9056L82.8084 55.4231L81.9694 55.7995L79.9652 58.2931L79.7787 59.7516L79.5923 60.2692L79.8719 60.7397L81.0838 60.6926L81.5965 61.7747L80.4779 64.5036L79.9185 66.4796L75.8168 83.0879L85.4653 85.2051L103.877 88.9219L120.097 91.7919L122.381 78.0536L124.152 66.7149L122.894 65.5857L122.707 64.3624L122.335 63.8449L121.356 64.3154L121.029 65.5387L119.538 65.7739L117.72 65.0211L115.949 65.0682L114.784 65.3975L113.199 64.6918L112.08 64.7859L110.961 65.7268L110.029 65.2093L109.703 63.3274L110.029 61.9629L108.864 60.5985L107.326 59.3752L106.067 53.2118L106.021 51.0005L105.881 50.9535L105.788 51.1417L103.41 52.7884L102.618 52.6943L101.266 51.0946L101.173 49.6361L104.436 41.5766L104.249 40.6639L102.665 40.1228L102.385 39.5677L101.173 37.9398L99.0291 33.1267L97.5375 32.4068L96.6053 30.0779L97.2112 27.8995L95.7197 24.3332L97.7706 14.2083L91.7111 12.9991Z" fill="#989898"/>
<path d="M298.384 100.825L298.011 99.6021L297.405 97.8613L296.659 97.0144L295.96 95.7912L295.773 93.2035L288.362 94.0504L280.252 94.5209H274.519L274.612 95.5089L275.638 95.9323L276.15 96.591L276.337 97.2497L278.154 98.8494L278.481 99.9785L278.154 101.531L277.362 103.272L276.989 104.542L275.871 105.436L274.985 105.718L272.561 106.33L271.955 108.259L272.235 108.777L273.121 109.624L273.027 111.647L272.048 112.399L271.815 113.011V114.328L270.976 114.611L270.324 115.175L270.137 115.74L270.324 116.681L269.578 117.293L269.159 118.61L269.298 120.445L270.37 123.738L273.633 127.314L276.29 129.055V131.125L276.616 131.689L279.693 131.972L280.951 132.63L280.625 134.277L279.599 137.194L279.227 138.606L280.159 140.346L283.142 142.84L285.379 143.216L286.405 145.616L287.337 147.216L286.917 148.533L287.617 150.321L288.409 151.309L289.155 151.168L289.621 150.133L290.739 149.333L292.045 148.862L294.888 150.039L295.121 149.944V149.427L294.562 148.157L294.748 146.839L295.867 146.086L297.451 145.522L297.218 144.91L296.846 143.969L297.405 143.358L297.871 142.087V140.205L298.057 137.9L299.223 136.488L300.062 134.701L301.227 132.819L300.994 130.325L300.155 128.819L300.015 127.267L300.388 124.773L300.062 121.386L299.549 113.952L298.896 106.754L298.477 101.249L298.384 100.825Z" fill="#989898"/>
<path d="M300.342 101.672L301.041 102.143L301.553 102.002L302.532 101.108L303.698 100.261L310.363 99.7434L318.939 98.8965L319.685 106.189L321.969 126.232L321.689 127.596L322.295 128.349L322.389 128.961L321.317 129.714L319.638 130.513L318.147 130.702L317.914 132.96L315.723 134.654L314.371 136.536L314.465 137.665L314.232 138.323H312.6L311.948 137.524L309.524 138.935L309.617 140.394L309.198 140.488L308.965 140.064L307.846 139.264L306.168 139.97L305.515 141.335L304.956 141.052L304.21 140.205L302.159 140.441L299.503 140.911L298.337 141.523V140.3L298.524 138.088L299.596 136.724L300.435 134.889L301.693 132.913L301.46 130.184L300.621 128.725L300.481 127.22L300.854 124.726L300.528 121.386L300.109 115.458L298.943 101.296L300.342 101.672Z" fill="#989898"/>
<path d="M236.485 122.092L216.07 121.809L197.145 121.245L187.031 120.821L185.027 151.309L196.353 151.78L217.188 152.768L238.769 153.05L244.642 152.909L244.968 136.442L244.409 131.219L243.244 130.278L242.125 128.867L241.053 127.173L241.333 125.762L242.125 125.103V124.115L241.752 123.785L240.54 123.691L238.909 122.092H236.485Z" fill="#989898"/>
<path d="M293.024 156.108L298.897 155.779L298.943 153.85H300.948L315.117 152.344L336.139 150.321L338.749 148.627L340.567 147.639L340.614 146.745L343.41 143.076L345.321 141.382L346.3 140.253L344.762 139.312L343.597 138.041L342.198 136.253L341.965 135.218L340.753 134.56L340.334 133.666L340.241 130.796L339.029 129.855L338.143 129.337L337.91 128.255L337.304 128.349L336.372 128.914L335.207 130.184L334.321 129.384L333.156 129.149L332.037 129.808H330.965L330.126 128.867L327.516 128.82L326.677 126.703L325.325 125.997L324.346 126.373L322.389 126.467L322.156 127.455L322.715 128.161L322.855 129.149L321.55 130.09L319.778 130.937L318.567 131.125L318.334 133.242L316.05 134.936L314.838 136.677L314.931 137.712L314.511 138.794L312.414 138.747L311.808 138.135L309.99 139.171L310.083 140.723L308.965 141.005L308.592 140.347L307.799 139.782L306.541 140.3L305.702 141.946L304.676 141.476L304.024 140.723L302.299 140.911L299.689 141.382L298.384 141.993L297.825 143.593L297.359 144.064L298.058 145.804L296.1 146.463L295.214 147.122L295.028 148.157L295.587 149.286V150.321L294.842 150.509L291.998 149.333L290.926 149.757L289.994 150.415L289.621 151.262L290.413 152.391L289.994 153.238L289.947 154.791L288.829 155.402L287.85 156.202L293.024 156.108Z" fill="white"/>
<path d="M255.595 228.61L259.371 228.469L264.172 230.163L267.202 230.68L268.926 229.975L270.418 230.492L271.909 230.963L272.282 229.975L270.791 229.457L269.579 229.692L268.32 228.94L268.693 228.234L270.138 227.763L270.977 228.469L271.816 227.999L273.308 228.281L274.007 229.41L274.147 230.492L276.244 230.633L277.083 231.48L276.71 232.233L276.104 232.609L276.85 233.362L280.765 235.056L282.443 234.444L282.909 233.315L284.121 233.033L284.96 232.327L285.566 232.798L285.939 234.162L284.867 234.539L285.147 234.821L286.732 234.209L287.804 232.609L288.177 232.374L287.198 232.233L287.571 231.48L287.477 230.775L288.456 230.539L288.969 229.928L289.249 230.304L289.528 231.763L291.486 232.045L293.35 232.939L293.816 233.645H295.168L295.681 234.115L296.753 232.657V231.951H296.147L294.562 230.68L291.859 230.304L290.367 229.222L290.88 227.952L291.952 228.093L292.045 227.811L291.206 227.34V227.105H292.698L293.537 225.646L292.931 224.752L292.791 223.482L292.092 223.576L291.206 224.564L290.927 225.787L289.482 225.505L289.016 224.658L289.855 223.764L290.74 222.964L289.715 219.906L288.13 218.307L288.596 214.872L288.503 214.637L287.897 214.731L272.469 215.39L272.096 214.26L272.469 210.261L276.477 203.298L276.058 202.075L276.71 201.887L276.897 200.946L275.871 200.005L275.918 199.111L274.986 196.993L274.799 194.594L274.846 194.265L262.54 194.641L250.794 194.688L250.981 199.252L251.307 203.721L251.54 205.462L252.752 207.579L253.172 209.65L255.176 212.473L255.316 213.931L255.595 214.307L255.269 218.213L253.964 220.377L254.523 221.506L254.29 222.729L253.917 226.164L253.311 227.575L253.405 229.316L255.595 228.61Z" fill="white"/>
<path d="M423.675 81.1596L423.442 80.0774L423.815 79.3717L425.167 78.666L425.54 80.1245L425.307 80.9714L424.188 81.6771V82.1476L425.074 81.4419L426.891 79.3247L428.709 78.4307L430.667 77.725L430.527 76.5958L430.061 75.2314L429.175 74.1022L428.336 73.7258L427.358 73.8199L427.125 74.0552L427.591 74.6668L428.29 74.2904L429.269 75.0432L429.641 76.3135L428.802 77.1604L427.73 77.6309L426.052 77.3956L424.235 74.5727L423.163 73.3494H422.324L421.811 73.7258L420.925 72.5026L421.065 71.7968L422.184 69.3503L420.832 67.2802L419.107 68.127L418.268 69.4914L409.739 71.7027L403.306 72.879L403.027 77.8661L403.353 80.1715L413.607 77.9132L418.828 76.5958L419.76 77.3486L421.345 79.3717L422.696 81.583L423.675 81.1596ZM429.502 81.8182L430.527 81.4889L430.76 80.6891L431.226 80.7361L431.692 81.8182L431.086 82.0535L429.269 82.1005L429.502 81.8182ZM425.12 82.1946L426.192 80.9714H426.938L427.777 81.6771L426.658 82.1476L425.633 82.6181L425.12 82.1946Z" fill="#989898"/>
<path d="M399.11 124.256L399.902 122.468L400.135 120.21L397.199 120.727L394.495 120.868L392.724 112.964L391.652 110.376L390.953 108.212L380.605 110.235L363.079 113.811L364.012 118.704L366.249 116.399L367.414 116.069L368.067 115.363L368.906 114.093L369.651 114.422L370.863 114.328L372.075 113.34L373.007 112.635L373.986 112.352L374.685 112.87L375.944 113.529L376.83 114.375L377.436 115.034L379.673 115.787L379.393 117.151L382.097 118.139L383.075 116.916L384.8 118.092L383.821 119.645L383.495 121.198L382.656 122.421V123.409L382.796 123.785L383.728 124.397L385.313 124.914L387.317 124.867L388.762 125.338L389.741 125.479L390.207 124.491L389.508 123.503V122.656L388.389 121.668L387.41 119.08L388.016 116.587L387.923 115.599L387.317 114.987C387.317 114.987 388.016 114.234 388.016 113.905C388.016 113.623 388.249 112.917 388.249 112.917L389.135 112.305L390.021 111.553L390.254 112.023L389.554 112.776L388.948 114.517L389.088 115.034L389.927 115.175L390.16 117.763L389.182 118.233L389.321 119.927L389.554 119.833L390.067 118.939L390.813 119.786L390.067 120.398L389.927 121.997L391.139 123.597L392.957 123.832L393.703 123.456L395.194 125.432L395.66 125.62L399.11 124.256ZM392.351 124.35L392.864 125.526L392.957 126.373L393.47 127.267C393.47 127.267 393.889 126.843 393.889 126.702C393.889 126.561 393.563 125.244 393.563 125.244L393.237 124.162L392.351 124.35Z" fill="#989898"/>
<path d="M413.561 43.2381L414.26 43.4263V42.203L414.633 39.6153L415.845 37.404L416.544 35.5221L415.658 34.3929V31.57L416.031 31.0995L416.404 29.8292L416.311 29.1234L416.217 26.8651L417.056 24.6067L418.408 20.4194L419.387 18.4433H419.993L420.599 18.5374V19.055L421.205 20.1371L422.463 20.4194L422.836 20.043V19.5725L424.701 18.2081L425.54 17.3612L426.239 17.4553L429.036 18.5845L429.921 19.055L434.163 33.1226H436.959L437.332 34.0165L437.426 36.2749L438.777 37.357H439.15L439.243 37.1217L439.01 36.6042L440.315 36.369L441.201 37.357L442.273 39.0978V39.9917L441.294 42.203L440.409 42.4853L438.824 43.9438L436.587 46.5315H435.981C435.701 46.5315 435.514 45.5435 435.514 45.5435L434.675 45.6376L434.209 46.3433L433.091 47.049L432.625 47.7548L433.37 48.4605L433.137 48.7428L432.904 50.0131L432.019 49.919V49.1662L431.879 48.5546L431.18 48.6958L430.341 47.1902L429.362 47.8018L429.968 48.5076L430.108 49.0251L429.735 49.6367L429.875 51.0952L429.968 51.848L429.222 53.0713L427.87 53.3065L427.73 54.671L425.26 56.1295L424.654 56.3647L423.908 55.659L422.463 57.3528L422.929 58.8583L422.23 59.4699L422.137 61.5401L421.624 64.5042L420.599 64.0807L420.366 62.6222L418.501 62.1047L418.408 60.9285L412.955 43.3181L413.561 43.2381ZM430.574 50.5777L431.273 49.872L431.925 50.3895L432.205 51.5187L431.413 51.9421L430.574 50.5777ZM433.697 47.8018L434.536 48.6958C434.536 48.6958 435.142 48.7428 435.142 48.6017C435.142 48.4605 435.235 47.6607 435.235 47.6607L435.654 47.2843L435.281 46.4374L434.349 46.7668L433.697 47.8018Z" fill="#989898"/>
<path d="M310.41 99.2726L319.313 98.3786L319.406 98.8962L324.02 98.1904L329.614 97.3906L329.66 97.1083L329.753 96.4026L330.732 94.6618L331.665 93.8619L331.571 91.4624L332.317 90.7097L332.83 90.5685L332.923 88.8747L333.622 87.4633L334.135 87.7456L334.228 88.0279L334.601 88.122L335.487 87.6515L335.3 83.37L333.809 79.512L332.737 75.2306L331.618 73.725L330.406 72.8781L329.66 73.3957L327.842 74.2425L326.957 76.595L325.698 78.3358L325.186 78.6181L324.486 78.3358C324.486 78.3358 323.275 77.6301 323.368 77.3478C323.461 77.0655 323.601 74.9953 323.601 74.9953L325.186 74.3837L325.559 72.784L325.838 71.5608L326.957 70.808L326.817 66.1031L326.071 65.021L325.465 64.6446L325.092 63.6565L325.465 63.2801L326.211 63.4213L326.304 62.6685L325.092 61.6334L324.486 60.4102H323.275L321.177 59.7044L318.613 58.1048H317.355L317.075 58.3871L316.609 58.1518L315.164 57.0697L313.813 57.9166L312.461 58.9987L312.601 60.6925L313.067 60.8336L314.046 61.0688L314.279 61.4452L313.067 61.8216L311.855 61.9628L311.156 62.8097L311.016 63.7977L311.156 64.5505L311.296 67.1382L309.618 68.1262L309.338 68.0321V66.056L309.944 64.9269L310.223 63.7977L309.851 63.4213L308.965 63.7977L308.499 65.7737L307.24 66.2913L306.401 67.1852L306.308 67.6557L306.588 68.0321L306.308 69.2554L305.236 69.4906V70.0081L305.609 71.1373L305.096 74.0073L304.351 75.8892L304.63 78.1005L304.863 78.6181L304.49 79.7473L304.351 80.1237L304.211 81.394L305.889 84.2169L307.24 87.2751L307.94 89.5334L307.567 91.7447L307.101 94.5677L305.982 97.0142L305.842 98.2845L304.351 99.743L310.41 99.2726ZM294.889 65.2092L294.283 64.6916L293.444 59.7985L291.719 59.1869L290.927 58.1048L285.054 56.7874L283.748 56.2699L279.973 55.2348L276.337 54.7643L274.52 52.2707L274.846 52.0355L276.104 51.6591L277.782 50.5769V50.1064L278.062 49.8242L280.859 49.3537L281.977 48.4597L284.028 47.4717L284.121 46.8601L285.007 45.4957L285.846 45.1193L286.452 44.2724L287.524 43.1903L289.575 42.0611L291.766 41.8258L292.278 42.3434L292.138 42.8139L290.414 43.2844L289.715 44.7429L288.643 45.1193L288.41 46.2484L287.291 47.754L287.151 48.9773L287.524 49.2125L287.99 48.695L289.668 47.3306L290.274 47.9422H291.346L292.838 48.4127L293.537 48.9302L294.236 50.3887L295.494 51.6591L297.312 51.565L298.011 51.0945L298.757 51.7061L299.503 51.9414L300.109 51.565H300.622L301.367 51.0945L303.232 49.4007L304.817 48.8832L307.893 48.742L309.99 47.8481L311.202 47.2365L311.902 47.3306V50.0124L312.135 50.1535L313.486 50.5299L314.372 50.2946L317.215 49.5419L317.728 49.0243L318.427 49.2596V52.553L319.919 54.0115L320.525 54.2938L321.13 54.7643L320.525 54.9054L320.152 54.7643L318.427 54.529L317.448 54.8113L316.376 54.7172L314.885 55.423H314.046L311.342 54.8113L308.918 54.9054L308.033 56.1287L304.77 56.411L303.651 56.7874L303.139 58.2459L302.533 58.7634L302.3 58.6693L301.6 57.9166L299.503 59.0457H299.223L298.711 58.293L298.338 58.3871L297.452 60.4572L296.986 62.3392L295.494 65.5855L294.889 65.2092ZM281.092 38.6265L281.931 37.6385L282.956 37.2621L285.473 35.4272L286.545 35.1449L286.778 35.3801L284.401 37.7796L282.863 38.6736L281.884 39.097L281.092 38.6265ZM321.27 53.7292L321.55 54.9054L323.042 54.9995L323.647 54.4349C323.647 54.4349 323.601 53.7292 323.461 53.6822C323.321 53.5881 322.715 52.7882 322.715 52.7882L321.69 52.8823L320.944 52.9764L320.804 53.494L321.27 53.7292Z" fill="#989898"/>
<path d="M226.555 31.4232L226.276 33.2628V38.0947L227.021 40.4612L227.907 42.0233L228.14 46.6952L228.979 53.0233L229.818 56.4579L230.004 59.469V61.9626L229.259 62.8095L228.42 63.4211V64.1268L228.839 64.9267L230.75 66.5734L231.076 68.0789V84.9695L259.183 84.6872L269.064 84.3579L268.831 81.5349L267.992 80.5469L264.636 78.3826L262.958 75.8891L261.374 75.4656L260.441 74.1482H258.95L257.318 72.3604L257.085 69.067L257.132 67.2321L257.831 65.8206L257.505 64.5503L256.2 63.0918L257.225 60.2218L259.742 58.3398L260.302 57.6811L260.208 53.9172L260.302 52.5058L261.513 51.0943L263.285 49.7299L263.891 49.6358L265.988 47.2833L266.827 46.9069L267.899 45.072L269.018 43.3783L270.463 42.155L272.7 41.214L276.988 39.285L278.806 38.4381L279.086 37.356L277.035 37.5442L276.709 38.0617H276.429L275.59 36.6032L271.442 36.7444L270.976 37.1208H270.509L270.276 36.5091L269.903 35.6623L268.692 35.8975L267.2 37.4031L266.454 37.7795H265.009L263.797 37.309V36.3209L263.191 36.2268L262.958 36.4621L261.746 35.8504L261.513 34.486L260.814 34.7213L260.581 35.1918L259.463 34.9565L256.992 33.8273L255.174 32.6041H253.823L253.217 32.1336L252.145 32.4159L251.632 32.9334L251.492 33.5451H249.255V32.557L246.318 32.4159L246.178 31.7101H243.941L243.195 30.9574L242.496 28.0874L242.123 25.4997L241.238 25.1233L240.166 24.8881L239.886 24.9822L239.746 28.8402L225.716 28.8261L226.555 31.4232Z" fill="#989898"/>
<path d="M286.45 159.355L286.683 156.579L288.641 154.979L289.526 154.509V153.144L289.853 152.391L289.34 151.639L288.221 151.78L287.243 150.604L286.45 148.486L286.87 147.263L285.937 145.758L285.098 143.593L282.954 143.264L279.785 140.629L278.759 138.653L279.132 137.101L280.158 134.278L280.437 132.866L279.552 132.396L276.336 132.113L275.823 131.219V129.29L273.352 127.644L269.996 123.974L268.924 120.539L268.691 118.563L269.018 117.434L267.806 115.976L267.246 114.846L263.657 115.223L258.996 115.505L236.25 116.07L236.856 117.293L236.809 118.328L237.882 120.022L239.28 121.857L240.725 123.268L241.937 123.362L242.589 123.88V125.244L241.75 125.997L241.517 127.079L242.496 128.585L243.615 129.996L244.827 130.984L245.432 136.442L245.06 155.261L245.293 157.943L256.339 157.849L267.2 157.52L282.348 156.908L283.374 158.649L283.001 160.107L281.556 161.284L281.323 162.131L283.747 162.366L285.658 161.848L286.45 159.355Z" fill="#989898"/>
<path d="M291.671 222.306L292.883 220.33L293.722 220.706L296.892 219.812L297.87 219.953L298.57 220.33H300.993L301.18 219.577L300.387 212.614L299.082 203.674L299.548 182.455L299.455 174.598L299.548 171.634L297.311 171.775L288.175 172.528L282.116 172.716L282.023 174.222L280.718 174.833L279.506 177.233L279.739 177.986L279.785 179.115L278.434 179.632L276.802 182.032L277.175 183.114L275.777 184.29L275.311 186.972L275.031 187.866L275.777 189.042L275.078 189.701L275.777 191.018L275.917 192.994L275.357 194.17L275.264 194.594L275.451 196.946L276.383 199.064L276.336 199.863L277.408 200.804L277.082 202.263L276.662 202.404L276.942 203.298L272.934 210.355L272.561 214.213L272.794 214.919L284.074 214.59L287.896 214.26L288.781 214.119L289.061 214.778L288.595 218.118L290.133 219.671L291.158 222.682L291.671 222.306Z" fill="white"/>
<path d="M178.315 33.2959L175.844 60.175L175.238 67.3264L147.691 64.2212L124.852 60.8807L124.199 66.1502L123.314 65.3504L123.127 64.1741L122.521 63.2802L120.983 63.986L120.657 65.1622L119.585 65.3033L117.813 64.5505L115.902 64.5976L114.784 64.9269L113.292 64.2212L111.894 64.3153L110.915 65.2092L110.496 64.9269L110.169 63.3273L110.496 61.8217L109.237 60.3161L107.699 59.1399L106.534 53.2118L106.487 50.7182L105.741 50.3418L105.462 50.8123L103.364 52.3178L102.805 52.2708L101.733 50.9534L101.639 49.636L104.902 41.5671L104.623 40.3109L102.991 39.784L102.805 39.3558L101.546 37.7091L99.4021 32.8113L97.9105 32.068L97.0715 30.0637L97.6775 27.8853L96.1859 24.3237L98.2368 14.307L113.479 17.5487L122.055 19.1483L137.11 21.6419L150.767 23.5239L164.378 25.1706L178.734 26.615L178.315 33.2959Z" fill="#989898"/>
<path d="M376.69 168.294L370.77 164.671L369.325 164.294L361.588 165.283L360.842 163.871L359.537 162.836L351.753 163.071L348.304 163.495L344.015 165.612L340.846 166.882L337.816 167.447L331.57 168.105L331.617 166.176L332.409 165.565L333.668 165.235L333.994 163.448L335.812 162.271L337.63 161.566L339.727 159.825L341.778 158.743L342.104 157.237L344.015 155.449L344.342 155.92L345.507 156.014L346.626 154.32L347.418 154.132L348.63 154.273L349.469 152.391L350.634 151.262L350.867 150.415L350.914 148.768L352.965 148.815L370.91 146.181L397.711 140.394L398.644 142.652L400.322 145.71L401.44 146.839L401.72 147.921L400.601 148.016L400.974 148.298L400.834 150.274L399.623 150.886L399.343 151.874L398.737 153.238L397.012 153.991L395.894 153.85L395.194 153.756L394.449 153.144L394.588 153.756V154.226H395.474L395.847 154.838L394.961 157.802H396.919L397.199 158.555L398.271 157.472L398.877 157.237L397.991 158.931L396.546 161.189H395.94L395.428 160.954L394.169 161.236L391.745 162.365L388.715 164.859L387.131 167.07L386.245 170.129L386.012 171.258L383.821 171.493L381.444 172.199L376.69 168.294ZM399.669 155.967L400.881 154.791L402.373 153.567L403.072 153.285L403.165 152.344L402.885 149.474L402.186 148.392L401.906 147.498L402.233 147.404L403.491 149.992L403.678 152.062L403.584 153.661L402 154.367L400.695 155.496L400.182 156.061L399.669 155.967Z" fill="white"/>
<path d="M229.539 59.4694L229.352 56.5523L228.513 53.1178L227.674 46.7144L227.441 42.1507L226.556 40.6545L225.81 38.1515V33.2537L226.089 31.4424L225.25 28.8358L211.92 28.5583L203.25 28.276L190.898 27.6643L179.152 26.6481L178.733 33.4325L176.542 57.3992L203.017 59.2341L229.539 60.0339V59.4694Z" fill="#989898"/>
<path d="M229.212 96.1203L228.746 95.0382L228.513 94.2854L227.161 93.5326L224.924 92.8269L223.898 92.2623L222.686 92.3093L220.962 92.4975L219.004 93.0621L216.207 91.1331L215.182 90.1921L210.195 90.4744L190.851 89.3453L174.257 88.3102L172.253 108.871L187.681 110.423L187.029 120.35L197.143 120.821L216.068 121.386L236.483 121.668H238.581L237.555 120.256L236.343 118.421L236.39 117.339L235.737 116.069L234.852 113.622L234.665 110.47L234.013 108.541L233.78 106.189L232.708 104.448L232.242 102.237L230.936 98.5198L230.47 96.0262L229.212 96.1203Z" fill="#989898"/>
<path d="M420.972 66.4797L421.485 64.9741L420.226 64.4095L419.993 62.951L418.082 62.4335L417.942 61.022L412.489 43.3881L412.162 43.4257L411.883 44.1785L411.603 43.9432L411.137 43.4727L410.438 44.3667L410.345 45.4441L410.578 49.4009L411.463 50.7183V52.7414L409.645 54.9997L408.527 55.4232V55.7525L409.039 56.6464V60.6926L408.667 65.0211L408.573 67.2324L409.039 67.8911L408.946 70.1024L408.713 70.8082L409.179 71.3257L411.556 70.7611L417.989 69.1144L418.781 67.75L420.646 66.8561L420.972 66.4797Z" fill="#989898"/>
<path d="M393.936 107.412L393.983 106.707L395.241 106.095L396.033 104.778L396.826 103.648L398.364 102.143V101.578L395.521 99.6492L395.055 98.3789L393.796 98.2377L393.75 97.8143L393.423 96.7792L394.449 96.2617L394.542 94.8972L393.936 94.2856L394.029 93.721L394.915 92.2625V90.804L396.08 89.3455L398.69 90.5217L401.674 91.4156L402.839 91.9802L402.885 92.8271L402.652 94.0974L402.839 96.2146L401.86 97.1085L401.347 97.579L401.58 97.8143L402.839 97.6731L403.352 97.2967L404.097 98.8964L404.191 103.319L404.47 103.837L403.957 106.424L402.513 109.482L401.254 111.364L400.881 113.623L399.902 114.752H399.529L399.39 113.482L399.762 113.011L399.669 112.305L397.805 112.023L395.567 110.941L394.076 109.577L393.61 108.636L393.936 107.412Z" fill="#989898"/>
<path d="M135.944 202.027L128.16 200.804L127.601 205.321L120.236 204.38L123.033 185.701L126.296 160.671L128.346 146.133L144.194 147.968L161.627 150.038L176.542 151.356L176.402 156.437L175.75 156.39L172.301 202.357L159.063 201.51L141.304 199.769L141.631 202.733L135.944 202.027Z" fill="white"/>
<path d="M67.3803 81.677L85.4188 85.6762L97.5376 88.1227L92.5969 113.106L90.0799 127.126L88.5417 134.419L87.5629 139.641L86.351 147.357L85.5586 148.816L84.8128 148.769L84.2535 147.546L82.9484 147.31L82.3424 146.793L81.5034 146.84L81.0839 147.216L80.2449 147.828L80.1051 151.262L79.9653 151.968L79.7322 157.802L79.2195 158.649L71.4355 146.652L51.8122 117.434L46.0184 108.495L50.0037 93.157L53.7372 78.4307L67.3803 81.677Z" fill="#989898"/>
<path d="M403.118 94.097L403.351 92.8267L403.258 91.6975L401.859 90.9918L398.83 90.0508L396.033 88.8275L395.753 88.6393L394.495 88.4982L393.563 87.7924L392.584 85.0166L391.046 84.7813L389.927 83.6521L372.028 87.4631L357.299 90.286L357.066 87.2279L357.812 86.6633L358.418 86.1457L358.884 85.393L359.723 84.8754L360.609 84.0285L360.842 83.2758L361.821 82.0054L362.333 81.5349L362.24 81.0645L361.634 79.6059L360.795 79.5118L359.909 76.6419L361.261 75.795L363.312 75.0892L365.177 74.4776L366.668 74.2424L369.605 74.1483L370.49 74.7599L371.236 74.854L372.215 74.2424L373.427 73.7248L375.85 73.4896L376.829 72.6427L377.668 71.1371L378.414 70.2432H379.393L380.279 69.7257L380.372 68.6435L379.673 67.6555L379.533 66.9498L380.045 65.9618V65.256H379.206L378.367 64.8796L377.995 64.3621L377.901 63.1388L380.605 60.5511L380.884 60.1747L381.584 58.8103L382.935 56.6931L384.194 54.9523L385.173 53.8231L386.291 52.9763L387.736 52.4117L390.3 51.8L391.791 51.8941L393.889 51.1884L397.338 50.1533L397.664 52.4587L398.783 55.5169L399.156 57.8693L398.69 59.8454L399.902 61.9626L400.275 62.9036L399.855 64.4091L401.58 65.209L402.838 70.008V72.7368L402.559 77.8651L402.932 80.4058L403.258 82.0995L403.957 85.5341V89.3451L403.444 90.4272L404.423 91.6975L404.656 92.1209L403.771 92.9678L403.91 93.5795L404.516 93.4383L405.216 92.8267L406.288 91.6034L406.8 91.3211L407.546 91.6034L408.618 91.6975L412.3 89.8626L413.652 88.5923L414.258 87.8865L416.216 88.6393L414.631 90.3331L412.813 91.6975L409.504 94.1911L408.292 94.6616L405.588 95.5555L403.724 96.0731L403.258 95.8849L403.118 94.097Z" fill="#989898"/>
<path d="M319.405 99.3662L320.198 106.659L322.435 125.996L324.253 125.902L325.325 125.525L327.003 126.372L327.795 128.348L330.312 128.395L331.151 129.336H331.944L333.062 128.678L334.507 128.913L335.206 129.525L336.045 128.584L337.117 127.925L338.236 127.737L338.516 129.007L339.261 129.477L340.473 130.418L340.846 130.513L341.778 130.465L342.338 130.183V129.195L343.13 128.489L343.177 126.231L343.689 124.255L344.575 123.643L345.041 123.973L345.507 124.49L345.834 124.584L346.02 124.396L345.601 123.126V122.091L346.113 121.432L347.279 119.738L347.884 119.033L348.91 119.268L349.889 118.562L351.287 117.01L352.313 115.269L352.406 112.728L352.639 110.376V108.211L352.079 106.706L352.639 105.859L353.245 105.294L352.965 103.977L350.961 91.9325L348.071 93.6733L346.253 94.7554L344.668 96.4962L342.804 98.3311L341.312 98.7075L339.961 98.9428L337.397 100.166L336.418 100.26L334.833 98.8016L332.41 99.0839L331.198 98.3782L330.172 97.7666L319.405 99.3662Z" fill="#989898"/>
<path d="M201.993 157.566L201.154 168.999L200.734 177.468L200.828 178.22L202.692 179.914L203.484 180.338H203.904L204.323 179.35L205.023 180.244L205.768 180.291L205.908 180.197L206.001 179.679L207.306 180.338L207.12 181.984L208.891 182.22L210.057 182.69L212.014 182.972L213.086 183.725L214.252 182.925L215.883 183.255L216.908 184.713L217.468 184.76V185.842L218.446 186.172L219.612 185.184L220.451 185.466L221.709 185.513L222.036 186.595L224.086 187.442L224.879 187.301L225.764 185.325H226.37L226.883 186.313L228.841 186.689L230.426 187.301L231.824 187.677L232.57 187.348L232.896 186.078H234.993L235.879 186.501L237.137 185.607H237.79L238.07 186.266H239.748L240.68 185.419L241.752 185.701L242.544 186.736L243.943 187.536L245.527 187.96L246.413 188.524L246.273 170.834L245.621 165.705L245.574 161.659L244.875 158.554L244.595 155.355L244.642 153.332L238.769 153.473L217.188 153.238L196.353 152.249L177.009 151.403L176.823 156.437L201.993 157.566Z" fill="white"/>
<path d="M41.4368 74.7608L54.5997 78.1483L67.4271 81.2065L75.3509 82.9473L79.4527 66.4331L80.0121 64.363L81.1307 61.7753L80.8044 61.1636L79.6392 61.2107L79.0332 60.3638L79.3129 59.6581L79.4993 58.1055L81.6901 55.4237L82.5757 55.0002L82.9952 54.6238L83.3214 53.3535L83.6943 52.836L85.5122 50.1542L87.2368 48.2723L87.33 46.7385L85.7452 45.5669L85.1859 43.4262L79.0798 41.6242L71.9483 39.9916L65.0499 40.1657L64.5372 39.5494L62.16 40.4151L60.0625 40.1893L58.9439 39.4459L58.3379 39.6999L56.1565 39.5635L55.2429 38.8907L52.987 38.0579L52.4742 38.025L50.4001 37.4275L49.5797 38.1426L46.6618 38.0297L44.1868 36.2183L44.2847 31.8522L43.3292 30.2055L41.4181 29.9232L41.0918 28.747L39.9732 28.5117L37.2697 29.4997L36.1977 32.5579L34.7061 37.2628L33.2146 40.321L30.884 46.9549L27.8543 53.3535L24.0788 59.2817L23.1932 60.6461L22.8203 64.6923L22.2144 67.5152L23.4775 69.162L41.4368 74.7608Z" fill="#989898"/>
<path d="M353.338 90.427L353.944 90.1917L356.601 87.6041L356.927 90.8504L372.542 87.7923L389.742 84.1224L390.814 85.2046L392.259 85.3928L393.191 88.0275L394.309 88.9214L395.615 89.1096L395.661 89.1567L394.449 90.6622V92.1208L393.564 93.5793L393.47 94.4732L394.076 95.0848L393.983 95.9788L392.864 96.4963L393.331 98.096L393.424 98.6135L394.729 98.7547L395.148 99.9309L397.898 101.766V101.954L396.454 103.365L395.754 104.401L394.962 105.718L393.703 106.282L393.051 106.424L392.072 107.035L391.326 107.694L380.885 109.717L362.847 113.387L357.58 114.046L355.762 114.375L353.385 103.836L351.381 91.6503L353.338 90.427Z" fill="#989898"/>
<path d="M417.195 82.6645L416.822 80.5943L416.076 77.7714L418.733 77.0657L419.432 77.6773L421.017 79.7004L422.322 81.7706L421.017 82.4293L420.411 82.3352L419.898 83.182L418.779 84.076L417.474 84.5935L417.195 82.6645Z" fill="#989898"/>
<path d="M363.778 194.593L362.799 194.123L361.914 191.488L360.748 190.406L359.583 190.171L358.884 188.007L357.486 184.948L355.528 184.101L354.642 183.255L354.083 182.031L352.964 181.09L351.892 180.479L350.867 179.114L349.375 177.985L347.325 177.185L347.138 176.527L346.066 175.209L345.833 174.503L344.062 171.963L342.477 172.01L340.659 170.834L340.1 170.269L340.007 169.61L340.286 168.858L341.545 168.246L341.172 167.305L344.155 166.035L348.443 163.917L351.753 163.494L359.397 163.259L360.469 164.153L361.308 165.799L363.452 165.423L369.325 164.717L370.583 165.094L376.41 168.575L381.117 172.48L378.647 175.021L377.435 177.891L377.202 180.855L376.456 181.231L375.944 182.502L374.825 182.784L373.846 184.478L372.588 185.748L371.516 187.348L370.77 187.724L369.092 189.324L367.74 189.418L368.206 190.924L365.876 193.417L364.804 194.17L363.778 194.593Z" fill="white"/>
<path d="M229.539 85.2049L229.119 86.7105L229.306 88.122L230.518 89.0629L229.958 91.6036L229.119 93.5326L229.818 95.0852L230.145 95.6027L229.539 95.6498L229.212 94.897L228.933 93.956L227.395 93.1091L225.157 92.4034L223.992 91.7918L222.64 91.8388L220.822 92.027L219.051 92.5916L216.581 90.8037L215.322 89.6746L210.242 90.051L190.898 88.9218L174.305 87.8867L175.004 76.2186L176.309 60.222L176.495 57.8695L203.017 59.7044L229.539 60.5042V61.7746L228.933 62.4803L228.001 63.186L227.954 64.2211L228.467 65.2562L230.378 66.8559L230.611 68.1262V85.0167L229.539 85.2049Z" fill="#989898"/>
<path d="M322.667 169.188L316.561 169.752L305.701 170.787L288.175 172.058L282.675 172.246L283.094 171.964L283.514 169.847L282.954 168.153L284.772 167.071L284.959 165.894L285.518 163.871L286.916 159.402L287.149 156.767L287.289 156.673L293.022 156.579L299.361 156.202L299.408 154.367L301.039 154.32L315.209 152.768L340.379 150.321L345.18 149.615L348.722 149.521L349.841 148.627L350.447 148.769L350.4 150.321L350.214 151.074L349.095 152.109L348.35 153.803L347.417 153.615L346.299 154.038L345.273 155.591L344.621 155.497L344.248 154.932L343.735 155.12L341.731 157.002L341.358 158.461L339.4 159.496L337.396 161.19L335.625 161.895L333.574 163.213L333.294 164.906L332.129 165.142L331.197 165.941L331.104 168.2L322.667 169.188Z" fill="white"/>
<path d="M141.817 200.24L159.063 201.934L172.72 202.828L176.169 156.861L201.525 157.99L200.733 168.953L200.267 177.422L200.36 178.363L202.411 180.292L203.343 180.809H204.182L204.415 180.245L204.741 180.668L205.86 180.762L206.373 180.48V180.386L206.839 180.621L206.652 182.362L208.75 182.691L209.869 183.114L211.826 183.444L213.038 184.291L214.343 183.397L215.602 183.679L216.627 185.138L217 185.185V186.173L218.538 186.69L219.704 185.702L220.403 185.937L221.382 185.984L221.661 186.972L224.085 187.913L225.157 187.678L226.043 185.796H226.089L226.602 186.69L228.746 187.114L230.331 187.725L231.822 188.196L232.941 187.631L233.267 186.549H234.945L235.924 187.02L237.323 186.079H237.509L237.742 186.737H239.933L240.818 185.89L241.424 186.079L242.217 187.067L243.755 187.961L245.34 188.431L246.505 189.09L247.763 190.031L249.208 189.466L250.187 189.842L250.513 199.252L250.84 203.722L251.119 205.651L252.331 207.721L252.751 209.838L254.708 212.614L254.848 214.073L255.128 214.449L254.802 218.072L253.45 220.33L254.056 221.553L253.823 222.683L253.45 226.07L252.844 227.482L252.984 229.458L250.374 230.21L245.759 232.328L245.293 233.222L244.081 234.115L243.102 234.821L242.496 235.198L239.84 237.691L238.581 238.679L236.111 240.185L233.454 241.314L230.517 242.914L229.678 243.619L226.975 245.313L225.39 245.595L223.572 248.183L221.708 248.324L221.242 249.218L222.314 250.112L221.615 252.7L221.009 254.817L220.496 256.652L220.123 258.769L220.496 259.898L221.335 263.192L221.801 266.062L222.64 267.332L222.174 268.038L220.729 268.932L218.072 267.097L215.509 266.579L214.903 266.814L213.411 266.532L211.453 265.074L209.03 264.556L205.487 262.956L204.508 261.122L203.902 258.063L202.411 257.169L202.131 256.087L202.411 255.805L202.551 254.205L201.945 253.923L201.665 253.453L202.271 251.382L201.525 250.3L200.034 249.689L198.449 247.619L196.771 244.513L194.813 243.29L194.907 242.396L192.436 236.609L192.063 234.633L191.224 233.739L191.131 233.033L188.334 230.54L187.122 229.081V228.564L185.911 227.576L182.741 227.058L179.292 226.776L177.847 225.694L175.749 226.541L174.071 227.246L172.999 228.752L172.533 230.493L170.482 233.363L169.364 234.492L168.152 234.021L167.313 233.504L166.427 233.222L164.609 232.139V231.857L163.77 230.963L161.347 229.975L157.897 226.305L156.825 224.094V220.283L155.334 217.225L155.101 215.955L154.355 215.484L153.842 214.496L151.512 213.508L150.906 212.755L147.596 209.038L146.99 207.533L144.8 206.451L144.1 204.381L142.889 203.016L142.096 202.781L141.817 200.24ZM223.106 266.909L222.827 263.568L221.568 260.181L221.288 256.887L221.987 253.029L223.526 249.783L225.157 247.242L226.649 245.548L226.928 245.642L224.691 248.748L222.64 251.806L221.708 254.911L221.568 257.358L221.987 260.228L223.199 263.615L223.432 266.062L223.526 266.767L223.106 266.909Z" fill="white"/>
<path d="M116.46 143.922L127.927 145.616L128.812 139.17L132.075 115.41L133.147 105.06L118.138 103.413L119.164 97.2494L120.003 92.2623L103.829 89.3923L98.0024 88.2161L93.0617 113.105L90.5447 127.22L89.0065 134.465L88.2141 138.794L116.46 143.922Z" fill="#989898"/>
<path d="M399.063 124.773L398.969 126.09L397.618 127.878L397.431 130.042L397.664 131.642L396.825 133.995L395.8 134.889L395.101 132.724L395.287 130.184L396.033 128.208L396.359 126.655L396.313 125.855L399.063 124.773ZM370.956 145.757L352.964 148.392L350.727 148.344L349.702 148.203L348.536 149.097L345.134 149.144L340.333 149.897L337.21 150.179L339.121 148.956L341.032 147.874V146.886L343.689 143.451L345.6 141.711L346.625 140.534L348.303 142.557L350.074 142.981L351.333 142.51L352.265 141.805L353.384 142.369L355.528 141.758L356.32 139.688L357.439 140.017L358.931 138.935L359.676 139.123L360.981 137.617L361.075 136.347L360.702 135.782L362.939 130.842L363.778 128.396L364.011 126.184L364.337 126.09L364.85 126.89L365.549 127.455L367.367 127.361L368.16 123.55L369.558 123.267L369.931 122.044L371.236 121.009L371.749 120.021L372.588 117.998L372.634 115.834L374.312 116.492L377.389 117.951L377.528 115.504L379.113 116.069L378.834 117.433L382.842 118.892L383.495 119.739L383.122 121.291L382.516 121.903L382.283 122.703L382.516 123.832L383.448 124.444L385.266 125.102L386.618 125.573L388.902 125.996L389.927 126.984L391.418 127.173L391.838 127.737L391.652 129.948L392.304 130.466L392.071 131.36L392.63 131.736L392.537 132.395L391.279 132.348L391.325 133.101L392.397 133.806L392.444 134.465L393.283 135.312L393.516 136.488L392.304 137.147L393.05 137.853L395.753 137.053L397.478 139.97L370.956 145.757Z" fill="white"/>
<path d="M398.131 52.3648L399.25 55.4229L399.623 57.9165L399.157 59.7514L400.322 61.8216L400.741 62.9037L400.415 64.127L401.953 64.8327L403.305 69.914V72.4076L408.665 71.4196L408.199 70.902L408.479 70.0081L408.572 67.985L408.106 67.3263L408.199 65.115L408.572 60.7395V56.7403L408.059 55.8934V55.1406L409.364 54.6231L410.996 52.553V50.8592L410.11 49.5889L409.97 46.8647L397.805 50.0594L398.131 52.3648Z" fill="#989898"/>
<path d="M44.7275 31.8517L43.6554 29.8286L41.7444 29.4993L41.5579 28.3701L40.3927 28.0878L39.0409 27.8526L38.2019 28.3231L37.1299 26.9586L37.2697 25.5942L38.5282 25.4531L39.274 23.5711L38.0621 23.0536L38.1553 21.3128L40.2062 21.0305L38.9477 19.7602L38.2485 16.4197L38.5282 15.0553V11.3384L37.6892 9.83283L38.7613 5.41024L39.7401 5.64548L40.8588 7.0099L42.1173 8.23317L43.6088 9.1271L45.7063 10.1151L47.1513 10.3974L48.503 11.1032L50.0878 11.5736L51.1598 11.4795V10.3504L51.7658 9.83283L52.7446 9.2212L52.8844 9.73874L53.0243 10.5856L51.9522 10.8209L51.8124 11.8089L52.6514 12.5146L53.1641 13.6438L53.4437 14.5377L54.1429 14.4436L54.2361 13.832L53.77 13.2204L53.537 11.7148L53.9099 10.8679L53.6302 10.1622V8.9389L54.4692 7.24514L53.9565 6.02187L52.8378 3.76352L52.9776 3.38713L53.6302 3.01074L55.6811 3.71648L60.2024 4.9868L64.2109 5.88073L73.5331 8.56251L84.2537 11.2443L91.2453 12.8863L89.008 21.1481L86.9105 30.9484L85.3257 38.5938L85.1393 42.9129L79.1264 41.1627L71.995 39.5301L65.2363 39.6807L64.7236 38.9608L62.0668 39.9441L60.249 39.7465L59.0371 38.9044L58.2447 39.2102L56.3103 39.0925L55.5086 38.4715L53.1035 37.6152L52.5535 37.5399L50.3161 36.886L49.4212 37.6623L46.7877 37.5446L44.6389 35.9685L44.7275 31.8517ZM49.2021 5.78663L50.1344 5.69253L50.3674 6.35121L51.0666 5.59843H52.1386L52.5115 6.30417L51.8124 7.104L52.092 7.48039L51.7658 8.42137L51.1132 8.60956C51.1132 8.60956 50.6937 8.65661 50.6937 8.51546C50.6937 8.37432 51.3929 7.29219 51.3929 7.29219L50.6005 7.0099L50.4606 7.71563L50.1344 7.99793L49.4352 6.9158L49.2021 5.78663Z" fill="#989898"/>
<path d="M262.354 51.7066L263.706 51.9418L265.058 51.6596L268.507 50.154L269.859 49.2601L270.838 48.8837L271.723 49.5894L271.211 50.1069L270.325 51.5655L270.045 52.4594L270.511 52.7417L271.35 52.2712L271.863 52.1771L273.122 52.5535L273.401 53.071L273.914 53.1651L274.194 52.6476L276.058 55.1412L279.88 55.7058L283.702 56.7408L284.914 57.2584L290.647 58.4816L291.393 59.5638L293.071 60.1284L293.864 64.9274L294.609 65.586L295.309 66.0095L294.796 67.0916L293.957 67.8444L292.978 70.0557L292.372 71.1849L292.465 72.0317L293.164 72.1729L293.677 71.279L294.376 70.9026L294.749 69.8204L295.635 68.9736L296.893 67.0916L298.851 64.1275L299.224 63.8923L299.364 64.3628L299.271 65.4449L297.919 68.6442L296.66 71.326L296.427 72.8316L296.148 74.0548L296.52 74.6665L296.427 75.9368L295.542 77.066L295.309 77.9129L295.588 79.6066L295.868 81.2063L295.169 82.4296L294.796 83.794L294.33 85.2525L294.842 86.3817L295.122 89.2516L295.868 91.3689L295.775 92.7803L288.364 93.6272L280.207 94.0977H274.287L273.961 93.392L272.609 93.2038L271.397 92.5921L270.325 90.8513L270.185 89.1576L271.117 87.7931L270.884 87.1344L269.905 86.0994L269.533 84.5468L269.253 81.3474L268.274 80.1712L265.011 78.054L263.24 75.5134L261.655 75.0429L260.63 73.7255H259.138L257.787 72.1729L257.553 69.1147L257.6 67.3269L258.299 65.8683L257.926 64.3628L256.761 63.0454L257.6 60.5048L260.024 58.7169L260.77 57.823L260.676 54.012L260.77 52.6946L261.888 51.3773L262.354 51.7066Z" fill="#989898"/>
<path d="M363.733 119.645L366.437 116.822L367.649 116.446L368.394 115.74L369.094 114.705L369.606 114.846L371.051 114.752L373.195 113.058L373.894 112.823L374.5 113.294L375.712 113.858L377.111 115.27L376.924 117.293L374.407 116.07L372.17 115.223L372.123 117.999L370.911 120.68L369.56 121.809L369.187 122.892L367.788 123.127L366.996 126.938L365.691 127.032L365.178 126.561L364.619 125.62L363.593 125.856L363.36 128.255L362.521 130.655L360.191 135.83L360.61 136.489L360.564 137.43L359.538 138.606L358.792 138.418L357.348 139.5L356.042 139.123L355.203 141.429L353.432 141.899L352.267 141.288L351.102 142.182L350.03 142.511L348.538 142.135L346.767 140.017L345.135 138.982L343.97 137.806L342.618 136.065L342.385 134.983L341.08 134.183L340.801 133.572L340.707 130.937L340.847 130.984L341.966 130.89L342.805 130.419V129.384L343.597 128.679L343.644 126.232L344.063 124.538L344.576 124.209L344.763 124.35L345.229 124.868L346.021 125.103L346.534 124.491L346.068 123.033V122.28L347.513 120.116L348.072 119.504L349.004 119.739L350.216 118.892L351.661 117.293L352.78 115.364L352.873 112.729L353.106 110.471V108.165L352.593 106.754L353.013 106.142L353.386 105.813L355.39 114.893L357.394 114.517L362.615 113.905L363.733 119.645Z" fill="white"/>
<path d="M174.537 76.1724L173.838 88.1228L171.787 108.824L170.529 108.683L131.702 104.402L118.697 102.99L119.629 97.3444L122.846 78.0544L124.617 66.6685L125.223 61.399L147.689 64.6925L175.236 67.7507L174.537 76.1724Z" fill="#989898"/>
</svg>
