<svg  viewBox="0 0 805 510" fill="none" xmlns="http://www.w3.org/2000/svg">
<path d="M743.531 159.158L743.164 158.88L742.857 159.223L741.201 161.073L738.073 163.882L734.086 166.622L733.054 165.272L733.733 163.67L733.773 163.576V163.475V156.084V156.034L733.763 155.985L732.442 149.488L732.005 147.209L750.737 143.128L750.747 143.126L750.756 143.124L754.063 142.269L755.341 147.111L756.041 150.999L756.518 154.375L750.728 157.301L746.209 158.267L746.135 158.283L746.069 158.32L743.975 159.495L743.531 159.158Z" fill="#239284" stroke="#103F4A"/>
<path d="M721.718 215.265L721.962 215.429L722.223 215.297L722.577 215.118L724.26 220.516L719.558 221.388L715.606 221.627L712.44 207.706L712.431 207.666L712.416 207.628L710.395 202.656L709.245 199.251L709.248 199.246L710.924 197.807L712.093 197.112L712.074 197.324L711.642 199.334L711.203 201.108L711.155 201.303L711.255 201.478L713.106 204.683L713.188 204.825L713.338 204.891L715.204 205.711L716.783 208.734L718.358 212.891L718.414 213.04L718.546 213.128L721.718 215.265Z" fill="#239284" stroke="#103F4A"/>
<path d="M773.672 146.072L773.673 146.068L773.708 145.94L773.675 145.812L772.971 143.052L772.814 142.44L772.254 142.732L769.699 144.068L769.561 144.14L769.489 144.277L768.784 145.613L768.699 145.774L768.737 145.952L769.091 147.599L768.016 148.064L765.688 144.25L765.672 144.226L765.655 144.203L762.659 140.374L762.624 140.329L762.579 140.293L760.817 138.869L760.623 138.712L760.38 138.773L750.519 141.264L731.669 145.42L731.135 141.64L731.638 132.644L743.411 130.489L743.429 130.486L743.446 130.482L759.571 126.297L759.766 126.246L759.871 126.074L761.382 123.616L764.115 122.272L766.278 125.588L764.277 129.968L764.253 130.021L764.242 130.079L763.977 131.414L763.935 131.628L764.063 131.804L765.737 134.119L766.032 134.528L766.438 134.229L767.275 133.614H768.47L770.323 135.73L773.74 141.042L773.864 141.235L774.091 141.266L777.263 141.712L777.403 141.731L777.533 141.674L779.56 140.784L779.647 140.745L779.714 140.678L781.3 139.075L781.508 138.866L781.425 138.583L780.724 136.191L781.292 136.917L782.129 139.37L782.338 141.06L779.013 142.26L778.987 142.269L778.962 142.282L775.525 143.973L775.433 144.019L775.367 144.096L773.672 146.072ZM779.746 134.944L780.465 135.862L778.695 134.499L778.611 134.434L779.746 134.944ZM776.855 134.485L778.366 134.339L778.152 134.455L777.207 134.964L776.848 134.492L776.855 134.485ZM783.576 149.088L782.381 149.119L782.772 148.994L783.025 148.912L783.099 148.657L783.423 147.543L783.598 147.561L784.158 148.863L783.576 149.088ZM775.652 148.038L776.473 148.73L775.112 149.303L775.104 149.306L775.097 149.31L773.444 150.069L773.113 149.796L774.651 148.038H775.652Z" fill="#239284" stroke="#103F4A"/>
<path d="M705.701 219.143L705.134 220.133L704.987 218.357L706.528 217.616L706.84 217.466L706.809 217.121L706.368 212.224L706.334 211.839L705.953 211.775L704.683 211.561L704.543 211.04L705.603 207.991L706.854 206.643L707.088 206.39L706.935 206.081L706.495 205.191L706.211 204.616L705.722 205.032L704.067 206.44L702.414 207.583L702.276 207.679L702.223 207.838L702.698 207.994L702.223 207.838L702.223 207.838L702.223 207.838L702.223 207.839L702.222 207.843L702.218 207.855L702.203 207.9C702.191 207.939 702.173 207.995 702.152 208.064C702.109 208.201 702.053 208.39 701.996 208.597C701.889 208.984 701.758 209.518 701.758 209.864C701.758 209.864 701.758 209.864 701.758 209.865C701.757 209.869 701.754 209.899 701.731 209.959C701.707 210.025 701.669 210.107 701.615 210.203C701.507 210.395 701.358 210.611 701.199 210.819C701.042 211.025 700.884 211.215 700.764 211.353C700.705 211.422 700.655 211.477 700.621 211.515L700.582 211.559L700.572 211.569L700.57 211.572L700.569 211.572L700.569 211.572L700.569 211.572L700.244 211.923L700.581 212.264L701.6 213.294L701.752 214.903L700.626 219.541L700.59 219.691L700.645 219.835L702.495 224.732L702.539 224.848L702.631 224.93L704.577 226.651V228.028V228.187L704.669 228.317L705.822 229.949L705.223 231.22L703.782 231.012L701.091 230.135L701.01 230.108L700.924 230.11L697.221 230.197L694.37 229.265L692.801 228.235L692.625 227.76V226.135L694.123 223.948L694.18 223.866L694.2 223.768L694.798 220.918L696.601 218.055L696.858 217.647L696.46 217.376L693.2 215.15L692.817 214.888L692.527 215.251L690.901 217.285L686.533 215.686L686.975 213.526L687.064 213.093L686.645 212.952L682.537 211.568L681.479 210.416L681.468 210.405L681.456 210.393L679.782 208.791L679.731 208.742L679.669 208.709L677.324 207.481L676.034 206.524L675.835 206.377L675.597 206.446L673.747 206.98L673.657 207.006L673.583 207.062L671.821 208.397L671.814 208.403L671.807 208.408L669.637 210.179L667.628 210.335L666.334 209.763L665.947 209.592L665.714 209.945L664.151 212.315L663.04 213.517L660.973 214.102L660.844 214.139L660.75 214.235L657.191 217.907L655.701 210.077L688.344 203.41L688.348 203.409L707.469 199.667L708.655 203.34L708.661 203.359L708.668 203.378L710.679 208.235L714.017 223.151L714.11 223.563L714.531 223.541L719.642 223.274L719.673 223.273L719.703 223.267L724.602 222.403L724.237 225.939L722.854 229.063L716.71 231.496L716.143 231.267L713.407 227.638L713.155 227.304L712.782 227.493L711.509 228.136L708.433 227.737L706.385 225.031L706.614 222.405L707.862 221.381L708.262 221.052L707.92 220.664L706.51 219.061L706.048 218.536L705.701 219.143ZM712.819 234.087C712.776 234.151 712.72 234.225 712.657 234.303L712.083 233.301L711.918 231.802L711.91 231.727L711.88 231.657L711.155 229.993L711.78 229.86L712.261 231.455L712.265 231.47L712.284 231.55C712.301 231.618 712.325 231.716 712.354 231.834C712.411 232.072 712.488 232.39 712.565 232.717C712.642 233.044 712.718 233.377 712.774 233.643C712.803 233.777 712.826 233.89 712.841 233.976C712.846 234 712.849 234.019 712.851 234.035C712.843 234.049 712.832 234.066 712.819 234.087Z" fill="#239284" stroke="#103F4A"/>
<path d="M750.053 76.6985L760.187 109.46L760.204 109.513L760.208 109.568L760.357 111.445L763.544 112.331L763.854 112.417L763.904 112.734L764.301 115.218L765.403 115.674L766.261 110.711L766.436 106.825L766.445 106.612L766.606 106.471L767.683 105.528L766.898 102.988L766.817 102.726L766.995 102.516L769.727 99.311L770.068 98.9098L770.451 99.2723L771.631 100.39L772.443 100.074L776.861 97.4634L777.099 95.1324L777.138 94.7557L777.511 94.6907L779.843 94.2845L781.044 92.3117L780.889 91.0599L780.888 91.0462L780.888 91.0462L780.623 88.286L780.608 88.1203L780.694 87.9782L781.287 87.004L781.109 86.3409L780.037 85.0913L779.658 84.6501L780.151 84.3419L782.001 83.1844L782.448 82.9053L782.703 83.3651L784.112 85.895L785.075 85.7003L785.553 85.6037L785.662 86.0791L785.926 87.2366L785.939 87.2915V87.3479V88.3229L786.705 88.4044L787.062 86.4564L787.085 86.3287L787.168 86.2284L787.311 86.0543L786.24 85.0397L785.936 84.7514L786.167 84.4014L787.048 83.0658L787.107 82.9759L787.198 82.9184L789.222 81.6403L790.044 80.3947L790.173 80.1992L790.405 80.1731L791.991 79.995L792.453 79.9433L750.053 76.6985ZM750.053 76.6985L750.513 76.6378L751.738 76.968L752.368 77.1378V76.4852V74.206L753.055 69.4338L755.302 65.3283L755.32 65.2963L755.332 65.2622L756.654 61.7006L756.751 61.4384L756.579 61.2183L755.011 59.2172V54.2214L755.608 53.4674L755.668 53.3911L755.696 53.2977L756.401 50.8937L756.431 50.7923L756.417 50.6876L756.243 49.3743L756.072 45.2233L757.623 41.0436L757.627 41.0335L757.63 41.0231L760.174 33.1338L761.871 29.7056H762.667L763.351 29.812V30.3631V30.4934L763.415 30.6072L764.56 32.6551L764.669 32.8499L764.887 32.8988L767.266 33.4331L767.536 33.4938L767.731 33.2969L768.436 32.5846L768.581 32.4385V32.2329V31.596L771.901 29.1638L771.933 29.1403L771.96 29.1121L773.371 27.6865L774.384 27.8229L779.588 29.9265L781.055 30.7067L789.013 57.1299L789.12 57.4857H789.492H794.445L794.988 58.7873L795.16 62.9719L795.17 63.1992L795.347 63.3414L797.902 65.3893L798.039 65.4992H798.215H798.92H799.26L799.385 65.1832L799.561 64.738L799.639 64.5416L799.552 64.3489L799.374 63.953L800.937 63.671L802.394 65.2993L804.323 68.4351V69.8797L802.607 73.7622L801.147 74.2281L801.042 74.2617L800.96 74.3367L797.964 77.0969L797.943 77.1162L797.925 77.1378L793.845 81.8617H793.03C793.02 81.8483 793.008 81.8307 792.994 81.8084C792.917 81.6822 792.837 81.4914 792.764 81.2702C792.693 81.055 792.637 80.8364 792.597 80.6694C792.578 80.5865 792.563 80.5177 792.553 80.4701C792.548 80.4464 792.544 80.428 792.542 80.4158L792.539 80.4025L792.539 80.3996L792.539 80.3993L792.538 80.3992L792.538 80.3991L750.053 76.6985ZM790.424 85.9687L789.24 84.7055L790.175 83.2204L791.336 82.8098L791.708 83.6563L791.184 84.1267L791.044 84.253L791.022 84.4408L791.022 84.4409L791.022 84.4412L791.022 84.442L791.021 84.4454L791.02 84.4582L791.014 84.5071L790.994 84.6832C790.977 84.8299 790.955 85.0285 790.933 85.2357C790.907 85.4759 790.879 85.7483 790.861 85.9625C790.828 85.9652 790.791 85.9675 790.75 85.969C790.636 85.9735 790.519 85.9719 790.424 85.9687ZM791.043 85.934C791.045 85.9332 791.045 85.9336 791.041 85.9347C791.042 85.9344 791.043 85.9342 791.043 85.934ZM784.473 91.9381L783.339 90.0918L784.069 89.3538L784.818 89.9485L785.212 91.5424L784.473 91.9381Z" fill="#239284" stroke="#103F4A"/>
<path d="M746.009 77.3289L746.49 77.8154L746.506 77.8316L746.523 77.8462L747.052 78.2914L747.596 78.7491L747.843 78.0829L748.208 77.0988L758.336 109.884L758.596 112.505L758.63 112.848L758.962 112.939L762.263 113.833L762.653 116.274L762.695 116.541L762.942 116.652L764.906 117.534L764.114 119.86L763.629 120.42L760.199 122.067L760.06 122.133L759.982 122.266L758.59 124.667L746.638 127.73L742.437 128.729L741.948 128.186L742.298 127.126L742.32 127.06L742.323 126.99L742.499 122.806L742.506 122.635L742.408 122.496L741.625 121.389L741.793 117.385L742.497 109.204L742.499 109.183V109.162V101.504V101.371L742.433 101.256L741.53 99.6794V99.5344L743.322 98.8554L743.449 98.8072L743.534 98.7012L746.971 94.4273L747.081 94.2901V94.114V90.2853V90.133L746.996 90.0066L745.398 87.6267L744.968 80.311L745.128 78.456L746.009 77.3289Z" fill="#239284" stroke="#103F4A"/>
<path d="M713.931 197.706L713.944 197.659L713.947 197.61L714.016 196.564L716.134 195.534L716.267 195.469L716.344 195.342L717.833 192.864L719.294 190.779L722.169 187.962L722.319 187.815V187.605V186.536V186.272L722.1 186.123L716.858 182.563L716.032 180.31L715.926 180.019L715.619 179.985L713.637 179.762L713.593 179.359L713.587 179.31L713.572 179.263L713.083 177.709L714.643 176.921L714.897 176.793L714.916 176.509L715.092 173.927L715.108 173.702L714.949 173.541L713.983 172.565L714.102 171.844L715.726 169.166L715.798 169.046V168.907V166.322L717.65 164.002L722.23 166.068L722.26 166.082L722.292 166.091L727.893 167.771L729.795 168.694L729.863 169.943L729.434 172.289L729.421 172.356L729.427 172.423L729.758 176.184L728.09 177.709L728.089 177.709L727.12 178.6L726.738 178.951L727.103 179.32L727.543 179.765L727.714 179.937L727.954 179.91L730.334 179.643L730.466 179.628L730.574 179.549L731.051 179.198L732.159 181.577L732.333 189.841L732.336 189.962L732.393 190.068L732.836 190.889L731.914 195.55L729.225 201.248L726.866 204.779L726.806 204.868L726.789 204.975L726.107 209.11L724.498 210.967H724.47L724.277 209.213L724.854 208.483L724.986 208.317L724.958 208.107L724.782 206.772L724.733 206.399L724.361 206.343L720.911 205.82L716.816 203.837L714.119 201.367L713.363 199.839L713.931 197.706Z" fill="#239284" stroke="#103F4A"/>
<mask id="path-8-inside-1" fill="white">
<path d="M730.806 172.378L731.247 169.974L731.07 167.837L728.427 166.502L722.7 164.721L717.413 162.406L716.884 162.05L714.505 161.783L712.743 160.447L710.892 155.194L707.985 154.749L705.87 152.612L672.035 159.824L644.191 165.166L643.75 159.379L645.16 158.31L646.306 157.331L647.187 155.906L648.773 154.927L650.447 153.324L650.888 151.899L652.738 149.495L653.707 148.605L653.531 147.715L652.386 144.954L650.8 144.776L649.125 139.345L651.681 137.742L655.558 136.407L659.082 135.249L661.902 134.804L667.453 134.626L669.127 135.783L670.537 135.961L672.387 134.804L674.678 133.824L679.26 133.379L681.11 131.777L682.696 128.927L684.106 127.236H685.957L687.631 126.256L687.807 124.208L686.485 122.338L686.221 121.003L687.19 119.133V117.798H685.604L684.018 117.085L683.313 116.106L683.137 113.791L688.247 108.894L688.776 108.181L690.098 105.599L692.653 101.592L695.032 98.298L696.883 96.1611L698.997 94.5584L701.729 93.4899L706.575 92.3324L709.395 92.5105L713.36 91.1749L719.88 89.2161L720.497 93.579L722.611 99.3665L723.316 103.818L722.435 107.558L724.726 111.565L725.431 113.346L724.638 116.195L727.898 117.708L730.277 126.79V131.955L729.749 141.66L730.453 146.468L731.07 149.673L732.392 156.173V163.385L731.423 165.433L733.273 167.837L733.714 168.639L732.039 170.241L732.304 171.399L733.449 171.132L734.771 169.974L736.798 167.659L737.767 167.125L739.177 167.659L741.203 167.837L748.164 164.365L750.719 161.961L751.865 160.625L755.566 162.05L752.57 165.255L749.133 167.837L742.877 172.556L740.586 173.447L735.476 175.139L731.951 176.118L731.07 175.762L730.806 172.378Z"/>
</mask>
<path d="M730.806 172.378L731.247 169.974L731.07 167.837L728.427 166.502L722.7 164.721L717.413 162.406L716.884 162.05L714.505 161.783L712.743 160.447L710.892 155.194L707.985 154.749L705.87 152.612L672.035 159.824L644.191 165.166L643.75 159.379L645.16 158.31L646.306 157.331L647.187 155.906L648.773 154.927L650.447 153.324L650.888 151.899L652.738 149.495L653.707 148.605L653.531 147.715L652.386 144.954L650.8 144.776L649.125 139.345L651.681 137.742L655.558 136.407L659.082 135.249L661.902 134.804L667.453 134.626L669.127 135.783L670.537 135.961L672.387 134.804L674.678 133.824L679.26 133.379L681.11 131.777L682.696 128.927L684.106 127.236H685.957L687.631 126.256L687.807 124.208L686.485 122.338L686.221 121.003L687.19 119.133V117.798H685.604L684.018 117.085L683.313 116.106L683.137 113.791L688.247 108.894L688.776 108.181L690.098 105.599L692.653 101.592L695.032 98.298L696.883 96.1611L698.997 94.5584L701.729 93.4899L706.575 92.3324L709.395 92.5105L713.36 91.1749L719.88 89.2161L720.497 93.579L722.611 99.3665L723.316 103.818L722.435 107.558L724.726 111.565L725.431 113.346L724.638 116.195L727.898 117.708L730.277 126.79V131.955L729.749 141.66L730.453 146.468L731.07 149.673L732.392 156.173V163.385L731.423 165.433L733.273 167.837L733.714 168.639L732.039 170.241L732.304 171.399L733.449 171.132L734.771 169.974L736.798 167.659L737.767 167.125L739.177 167.659L741.203 167.837L748.164 164.365L750.719 161.961L751.865 160.625L755.566 162.05L752.57 165.255L749.133 167.837L742.877 172.556L740.586 173.447L735.476 175.139L731.951 176.118L731.07 175.762L730.806 172.378Z" fill="#239284" stroke="#103F4A" stroke-width="2" mask="url(#path-8-inside-1)"/>
<path d="M638.197 165.346L642.477 161.173L642.99 166.284L643.045 166.831L643.584 166.725L673.101 160.937L673.101 160.937L673.11 160.936L705.356 154.048L707.19 155.901L707.311 156.023L707.481 156.045L709.908 156.362L711.568 161.059L711.615 161.193L711.727 161.282L713.841 162.974L713.948 163.059L714.082 163.079L715.825 163.33L714.028 165.565L713.918 165.702V165.878V168.499L712.316 171.139L712.258 171.235L712.247 171.347L712.07 173.038L712.046 173.274L712.212 173.442L713.191 174.431L713.069 175.605L711.212 176.465L710.822 176.646L710.942 177.059L711.816 180.061L711.987 181.014L712.054 181.382L712.426 181.423L714.581 181.656L715.269 183.587L715.324 183.743L715.462 183.835L720.365 187.109L717.857 189.561L717.821 189.597L717.792 189.639L716.471 191.598L716.463 191.609L716.457 191.62L715.039 193.979L712.851 194.961L711.669 195.217L711.584 195.236L711.51 195.282L709.659 196.44L709.624 196.462L709.593 196.489L708.285 197.645L688.682 201.448L688.677 201.449L654.597 208.39L644.659 209.634L644.645 209.636L644.632 209.638L641.667 210.176L637.282 190.713L633.549 167.995L636.928 165.882L638.029 165.454L638.124 165.417L638.197 165.346Z" fill="#239284" stroke="#103F4A"/>
<path d="M757.911 150.671L757.91 150.662L757.908 150.654L757.203 146.736L757.2 146.717L757.195 146.697L755.912 141.838L760.195 140.699L761.281 141.65L764.232 145.421L766.392 148.852L764.559 149.779L763.573 149.625L763.241 149.574L763.068 149.861L762.145 151.387L760.158 152.977L758.349 153.695L757.911 150.671Z" fill="#239284" stroke="#103F4A"/>
<path d="M723.988 99.115L723.98 99.0648L723.963 99.0172L721.866 93.2792L721.319 89.4089L743.291 83.6327L743.524 88.1736L743.531 88.3164L743.613 88.4337L745.197 90.709V93.5843L742.304 97.2601L739.962 98.1899L739.646 98.3151V98.6546V100.079V100.219L739.718 100.338L740.616 101.821V109.229L739.912 117.488L739.912 117.499L739.911 117.51L739.735 121.695L739.728 121.865L739.826 122.004L740.608 123.111L740.443 126.703L739.933 128.333L739.848 128.605L740.039 128.817L740.323 129.132L731.659 130.731V126.613V126.547L731.642 126.484L729.087 116.868L729.026 116.641L728.812 116.542L726.288 115.383L726.796 113.475L726.838 113.317L726.779 113.165L725.986 111.118L725.973 111.084L725.956 111.053L723.851 107.31L724.683 104.031L724.707 103.933L724.693 103.834L723.988 99.115Z" fill="#239284" stroke="#103F4A"/>
<path d="M477.792 157.908L477.827 158.035L477.92 158.129L479.703 159.931L479.825 160.219L478.21 162.667L478.116 162.809L478.129 162.979L478.393 166.54L478.402 166.664L478.468 166.769L480.759 170.42L480.831 170.535L480.952 170.597L483.683 172.022L483.763 172.063L483.852 172.075L485.7 172.308L486.332 173.585L486.5 175.626L486.525 175.934L486.811 176.049L488.894 176.891L489.545 177.695L489.957 179.028L489.999 179.162L490.105 179.256L493.348 182.101L493.794 183.529L493.219 186.02L491.742 189.268L491.723 189.311L491.711 189.355L491.225 191.323L489.583 192.587L488.268 193.002L483.257 194.335L482.996 194.404L482.911 194.661L481.501 198.935L481.441 199.117L481.518 199.293L482.223 200.896L482.267 200.995L482.348 201.068L483.666 202.243L483.516 204.885L482.03 205.992L481.914 206.078L481.862 206.213L481.245 207.816L481.211 207.903V207.995V209.756L480.339 210.008L480.239 210.037L480.158 210.104L478.66 211.351L478.543 211.449L478.5 211.595L478.059 213.109L478.023 213.235L478.052 213.362L478.332 214.564L477.819 214.963L476.141 212.973L474.934 210.534L474.781 210.225L474.438 210.258L467.133 210.969L458.34 211.503L415.356 212.562L414.095 209.139L413.747 203.247L413.743 203.182L413.723 203.12L412.504 199.425L411.893 194.841L411.88 194.74L411.828 194.653L409.931 191.428L409.067 187.411L409.06 187.383L409.051 187.355L406.683 180.442L405.72 175.49L405.699 175.381L405.634 175.291L404.431 173.642L403.397 171.311L404.806 168.13L404.828 168.079L404.839 168.024L405.897 162.592L405.954 162.3L405.724 162.111L403.499 160.279L403.271 158.441L403.772 156.705L405.01 156.496L458.807 155.963V155.963L458.819 155.962L477.103 155.352L477.792 157.908Z" fill="#46C894" stroke="#103F4A"/>
<path d="M529.124 178.148L529.149 178.192L529.182 178.23L530.527 179.759L531.638 182.952L532.334 185.238L532.498 185.986L533.289 196.369L533.289 196.369L533.289 196.376L534.522 209.993L535.491 224.056L535.491 224.056L535.492 224.07L536.103 230.419L535.407 235.078L535.399 235.137L535.404 235.196L535.668 238.135L535.678 238.24L535.729 238.333L537.264 241.09L537.679 245.538L535.565 248.957L535.55 248.981L535.537 249.007L533.978 252.334L531.815 254.956L531.715 255.077L531.703 255.234L531.35 259.597L531.349 259.617V259.637V263.11L530.532 265.338L529.541 266.423L529.33 266.654L529.445 266.944L530.148 268.719L530.15 268.725L530.407 269.399L527.892 270.296L527.833 270.317L527.781 270.352L525.666 271.777L525.481 271.901L525.45 272.122L525.098 274.615L525.078 274.756L525.135 274.886L526.15 277.194V277.681L521.026 275.558L520.847 275.484L520.665 275.55L518.198 276.44L518.133 276.464L518.076 276.504L515.962 278.018L515.852 278.096L515.797 278.219L515.023 279.941L514.164 280.103L512.902 278.528L511.672 275.38L512.412 273.056L512.479 272.844L512.367 272.653L510.621 269.652L508.694 265.139L508.587 264.888L508.318 264.843L504.222 264.153L498.761 259.583L497.137 256.547L497.787 254.086L499.719 248.584L499.731 248.55L499.737 248.515L500.354 245.399L500.427 245.033L500.096 244.859L497.717 243.613L497.629 243.567L497.53 243.558L491.973 243.047L491.553 242.319V238.535V238.265L491.327 238.117L486.357 234.857L480.304 228.217L478.33 222.143L478.077 218.827L478.796 216.568L480.091 215.504L480.323 215.314L480.265 215.021L479.938 213.369L480.206 212.556L481.261 211.643L482.753 211.14L483.094 211.025V210.666V208.265L483.451 207.325L485.19 205.987L485.373 205.845L485.384 205.614L485.56 201.785L485.571 201.558L485.407 201.401L483.789 199.853L483.398 199.128L484.397 195.946L488.708 194.857L488.723 194.853L488.737 194.848L490.412 194.314L490.5 194.286L490.572 194.228L492.687 192.536L492.81 192.438L492.854 192.287L493.549 189.916L495.032 186.654L495.055 186.604L495.066 186.55L495.683 183.612L495.709 183.49L495.674 183.37L495.057 181.233L495.017 181.093L494.908 180.997L491.582 178.067L491.269 176.962L491.243 176.868L491.183 176.791L490.214 175.545L490.132 175.44L490.01 175.39L488.35 174.703L488.254 173.681H498.542H498.557L498.571 173.68L513.903 172.789L513.917 172.789L513.931 172.787L527.422 171.244L527.737 175.621L527.746 175.734L527.802 175.833L529.124 178.148Z" fill="#46C894" stroke="#103F4A"/>
<path d="M536.577 212.762L534.433 186.67L536.309 187.176L537.562 188.02L537.752 188.148L537.974 188.087L538.943 187.82L539.059 187.788L539.148 187.707L540.977 186.034L543.043 184.531L555.502 183.563L555.502 183.563L555.513 183.562L571.229 182.008L572.589 195.313L572.589 195.313L572.589 195.319L576.898 233.171L576.385 235.675L576.338 235.905L576.485 236.088L577.546 237.408L577.656 238.126L575.917 239.349L572.855 240.809L570.116 241.156L569.722 241.205L569.681 241.6L569.262 245.661L565.29 248.735L565.233 248.78L565.19 248.839L562.635 252.401L562.528 252.55L562.543 252.734L562.71 254.764L562.423 255.576H559.93L558.847 254.246L558.577 253.915L558.207 254.13L553.626 256.801L553.359 256.957L553.378 257.265L553.528 259.599L553.518 259.601L553.258 259.129L553.204 259.03L553.111 258.964L550.996 257.45L550.769 257.287L550.511 257.396L547.339 258.731L547.164 258.805L547.082 258.977L546.069 261.098L545.554 260.837L544.208 259.307L544.035 259.111L543.776 259.141L539.899 259.586L539.883 259.588L539.868 259.59L534.846 260.481L534.769 260.494L534.701 260.53L533.23 261.303V259.837L533.569 255.822L535.503 253.357L535.54 253.31L535.564 253.256L537.136 249.815L539.496 246.105L539.587 245.962L539.573 245.794L539.132 240.63L539.123 240.519L539.068 240.423L537.536 237.757L537.287 235.077L537.983 230.418L537.992 230.357L537.986 230.295L537.37 223.98L536.578 212.768L536.577 212.762Z" fill="#46C894" stroke="#103F4A"/>
<path d="M415.799 225.858H415.806H420.184L423.122 228.742L423.252 228.869L423.433 228.883L425.557 229.049L425.968 229.412V230.822L424.65 231.918L424.514 232.032L424.48 232.206L423.951 234.877L423.912 235.072L424.019 235.241L426.045 238.446L426.06 238.469L426.076 238.49L428.191 241.161L428.225 241.204L428.268 241.239L430.31 242.89L431.342 252.536L430.736 283.19L420.121 283.445L379.343 282.911L339.965 281.042L339.962 281.042L319.063 280.172L322.786 223.474L341.418 224.255L341.418 224.255L341.424 224.255L377.198 225.323V225.323L377.206 225.323L415.799 225.858Z" fill="#46C894" stroke="#103F4A"/>
<mask id="path-16-inside-2" fill="white">
<path d="M555.552 182.173L572.382 180.481L572.558 181.461L581.281 180.125L591.854 178.611L591.943 178.077L592.119 176.741L593.969 173.447L595.731 171.933L595.555 167.392L596.965 165.968L597.934 165.701L598.11 162.495L599.432 159.824L600.401 160.358L600.578 160.893L601.282 161.071L602.957 160.18L602.604 152.078L599.785 144.777L597.758 136.674L595.643 133.825L593.352 132.222L591.943 133.202L588.506 134.804L586.832 139.256L584.453 142.551L583.484 143.085L582.162 142.551C582.162 142.551 579.871 141.215 580.047 140.681C580.224 140.147 580.488 136.229 580.488 136.229L583.484 135.071L584.189 132.044L584.717 129.729L586.832 128.304L586.568 119.4L585.158 117.353L584.012 116.64L583.308 114.77L584.012 114.058L585.422 114.325L585.598 112.901L583.308 110.942L582.162 108.627H579.871L575.906 107.291L571.06 104.264H568.681L568.152 104.798L567.271 104.353L564.54 102.305L561.984 103.908L559.429 105.956L559.693 109.161L560.575 109.428L562.425 109.873L562.865 110.586L560.575 111.298L558.284 111.565L556.962 113.168L556.698 115.038L556.962 116.462L557.226 121.359L554.054 123.229L553.526 123.051V119.311L554.671 117.175L555.2 115.038L554.495 114.325L552.821 115.038L551.94 118.777L549.56 119.757L547.974 121.448L547.798 122.339L548.327 123.051L547.798 125.366L545.772 125.811V126.791L546.477 128.928L545.507 134.359L544.098 137.921L544.626 142.105L545.067 143.085L544.362 145.222L544.098 145.934L543.833 148.338L547.005 153.68L549.56 159.468L550.882 163.742L550.177 167.927L549.296 173.269L547.181 177.899L546.917 180.303L544.098 183.063L555.552 182.173ZM526.211 117.709L525.065 116.729L523.479 107.469L520.219 106.312L518.721 104.264L507.619 101.771L505.152 100.791L498.015 98.8325L491.142 97.9422L487.706 93.2231L488.322 92.7779L490.701 92.0656L493.873 90.0177V89.1273L494.402 88.5931L499.689 87.7027L501.804 86.011L505.681 84.1411L505.857 82.9836L507.531 80.4015L509.117 79.6892L510.262 78.0865L512.289 76.0386L516.166 73.9017L520.307 73.4565L521.276 74.4359L521.012 75.3263L517.752 76.2167L516.43 78.9769L514.404 79.6892L513.963 81.8261L511.848 84.6754L511.584 86.9904L512.289 87.4356L513.17 86.4562L516.342 83.874L517.488 85.0315H519.514L522.334 85.9219L523.655 86.9014L524.977 89.6616L527.356 92.0656L530.793 91.8875L532.114 90.9971L533.524 92.1546L534.934 92.5998L536.079 91.8875H537.049L538.458 90.9971L541.983 87.7917L544.979 86.8123L550.794 86.5452L554.759 84.8535L557.05 83.696L558.372 83.874V88.9492L558.812 89.2164L561.368 89.9287L563.042 89.4835L568.417 88.0589L569.386 87.0794L570.707 87.5246V93.7573L573.527 96.5175L574.673 97.0518L575.818 97.9422L574.673 98.2093L573.968 97.9422L570.707 97.497L568.857 98.0312L566.831 97.8531L564.011 99.1887H562.425L557.314 98.0312L552.733 98.2093L551.058 100.524L544.891 101.059L542.776 101.771L541.807 104.531L540.661 105.51L540.221 105.332L538.899 103.908L534.934 106.045H534.405L533.436 104.62L532.731 104.798L531.057 108.716L530.176 112.277L527.356 118.421L526.211 117.709ZM500.129 67.4019L501.715 65.532L503.654 64.8197L508.412 61.3472L510.439 60.813L510.879 61.2582L506.385 65.7992L503.478 67.4909L501.627 68.2922L500.129 67.4019ZM576.082 95.9833L576.611 98.2093L579.431 98.3874L580.576 97.3189C580.576 97.3189 580.488 95.9833 580.224 95.8943C579.959 95.7162 578.814 94.2025 578.814 94.2025L576.875 94.3806L575.466 94.5587L575.201 95.5381L576.082 95.9833Z"/>
</mask>
<path d="M555.552 182.173L572.382 180.481L572.558 181.461L581.281 180.125L591.854 178.611L591.943 178.077L592.119 176.741L593.969 173.447L595.731 171.933L595.555 167.392L596.965 165.968L597.934 165.701L598.11 162.495L599.432 159.824L600.401 160.358L600.578 160.893L601.282 161.071L602.957 160.18L602.604 152.078L599.785 144.777L597.758 136.674L595.643 133.825L593.352 132.222L591.943 133.202L588.506 134.804L586.832 139.256L584.453 142.551L583.484 143.085L582.162 142.551C582.162 142.551 579.871 141.215 580.047 140.681C580.224 140.147 580.488 136.229 580.488 136.229L583.484 135.071L584.189 132.044L584.717 129.729L586.832 128.304L586.568 119.4L585.158 117.353L584.012 116.64L583.308 114.77L584.012 114.058L585.422 114.325L585.598 112.901L583.308 110.942L582.162 108.627H579.871L575.906 107.291L571.06 104.264H568.681L568.152 104.798L567.271 104.353L564.54 102.305L561.984 103.908L559.429 105.956L559.693 109.161L560.575 109.428L562.425 109.873L562.865 110.586L560.575 111.298L558.284 111.565L556.962 113.168L556.698 115.038L556.962 116.462L557.226 121.359L554.054 123.229L553.526 123.051V119.311L554.671 117.175L555.2 115.038L554.495 114.325L552.821 115.038L551.94 118.777L549.56 119.757L547.974 121.448L547.798 122.339L548.327 123.051L547.798 125.366L545.772 125.811V126.791L546.477 128.928L545.507 134.359L544.098 137.921L544.626 142.105L545.067 143.085L544.362 145.222L544.098 145.934L543.833 148.338L547.005 153.68L549.56 159.468L550.882 163.742L550.177 167.927L549.296 173.269L547.181 177.899L546.917 180.303L544.098 183.063L555.552 182.173ZM526.211 117.709L525.065 116.729L523.479 107.469L520.219 106.312L518.721 104.264L507.619 101.771L505.152 100.791L498.015 98.8325L491.142 97.9422L487.706 93.2231L488.322 92.7779L490.701 92.0656L493.873 90.0177V89.1273L494.402 88.5931L499.689 87.7027L501.804 86.011L505.681 84.1411L505.857 82.9836L507.531 80.4015L509.117 79.6892L510.262 78.0865L512.289 76.0386L516.166 73.9017L520.307 73.4565L521.276 74.4359L521.012 75.3263L517.752 76.2167L516.43 78.9769L514.404 79.6892L513.963 81.8261L511.848 84.6754L511.584 86.9904L512.289 87.4356L513.17 86.4562L516.342 83.874L517.488 85.0315H519.514L522.334 85.9219L523.655 86.9014L524.977 89.6616L527.356 92.0656L530.793 91.8875L532.114 90.9971L533.524 92.1546L534.934 92.5998L536.079 91.8875H537.049L538.458 90.9971L541.983 87.7917L544.979 86.8123L550.794 86.5452L554.759 84.8535L557.05 83.696L558.372 83.874V88.9492L558.812 89.2164L561.368 89.9287L563.042 89.4835L568.417 88.0589L569.386 87.0794L570.707 87.5246V93.7573L573.527 96.5175L574.673 97.0518L575.818 97.9422L574.673 98.2093L573.968 97.9422L570.707 97.497L568.857 98.0312L566.831 97.8531L564.011 99.1887H562.425L557.314 98.0312L552.733 98.2093L551.058 100.524L544.891 101.059L542.776 101.771L541.807 104.531L540.661 105.51L540.221 105.332L538.899 103.908L534.934 106.045H534.405L533.436 104.62L532.731 104.798L531.057 108.716L530.176 112.277L527.356 118.421L526.211 117.709ZM500.129 67.4019L501.715 65.532L503.654 64.8197L508.412 61.3472L510.439 60.813L510.879 61.2582L506.385 65.7992L503.478 67.4909L501.627 68.2922L500.129 67.4019ZM576.082 95.9833L576.611 98.2093L579.431 98.3874L580.576 97.3189C580.576 97.3189 580.488 95.9833 580.224 95.8943C579.959 95.7162 578.814 94.2025 578.814 94.2025L576.875 94.3806L575.466 94.5587L575.201 95.5381L576.082 95.9833Z" fill="#46C894" stroke="#103F4A" stroke-width="2" mask="url(#path-16-inside-2)"/>
<path d="M397.529 53.8449L397.547 53.7284L397.511 53.6163L396.136 49.3556L421.97 49.3816L422.453 49.3821L422.471 48.8997L422.722 41.9439L422.792 41.9205L424.638 42.3259L426.01 42.9097L426.675 47.5282L426.678 47.5519L426.684 47.5752L428.005 53.0066L428.038 53.1414L428.136 53.24L429.546 54.6647L429.692 54.813H429.901H433.72L433.904 55.7456L433.98 56.1292L434.371 56.148L439.446 56.3922V57.7855V58.2855H439.946H444.175H444.574L444.663 57.8968L444.895 56.8783L445.668 56.0972L447.324 55.6608L448.274 56.3995L448.409 56.5047H448.581H450.983L454.293 58.7344L454.327 58.7573L454.364 58.7744L459.034 60.9113L459.085 60.9344L459.139 60.9459L461.254 61.3911L461.633 61.471L461.805 61.1236L462.154 60.4191L462.725 60.2267L463.067 62.2325L463.109 62.481L463.334 62.5946L465.625 63.7521L465.95 63.9163L466.206 63.6576L466.467 63.394L466.937 63.467V64.9086V65.2507L467.256 65.3746L469.547 66.265L469.634 66.299H469.728H472.459H472.578L472.685 66.2452L474.095 65.5329L474.167 65.4962L474.225 65.4384L476.936 62.6988L478.683 62.3593L479.222 63.5846L479.658 64.7303L479.78 65.0524H480.125H481.006H481.183L481.321 64.9413L482.072 64.3341L489.446 64.0829L490.882 66.5823L491.026 66.8332H491.315H491.844H492.12L492.267 66.5996L492.752 65.8291L495.676 65.5605L495.384 66.6921L492.167 68.1923L492.161 68.1951L484.067 71.8404L479.843 73.6187L479.772 73.6485L479.714 73.6981L476.982 76.0131L476.928 76.0594L476.888 76.1192L474.773 79.3246L474.766 79.3361L474.759 79.3479L472.813 82.682L471.373 83.3287L471.276 83.3725L471.205 83.4522L467.359 87.7702L466.391 87.9207L466.264 87.9405L466.162 88.0189L462.814 90.601L462.773 90.6324L462.74 90.6714L460.449 93.3426L460.341 93.469L460.33 93.6352L460.153 96.3063L460.152 96.329L460.152 96.3516L460.324 103.284L459.426 104.342L454.713 107.87L454.593 107.96L454.542 108.102L452.604 113.534L452.504 113.814L452.702 114.035L455.088 116.704L455.628 118.811L454.389 121.315L454.34 121.414L454.337 121.525L454.249 124.997L454.248 125.021L454.25 125.045L454.691 131.278L454.703 131.451L454.82 131.579L457.904 134.963L458.052 135.126H458.273H460.834L462.447 137.408L462.551 137.555L462.726 137.602L465.541 138.355L468.608 142.918L468.665 143.004L468.752 143.059L475.034 147.115L476.468 148.806L476.852 153.465L458.703 154.071L406.082 154.6V123.14V123.086L406.071 123.034L405.454 120.185L405.418 120.021L405.292 119.912L401.751 116.858L401.06 115.538V114.579L402.44 113.571L402.485 113.539L402.521 113.498L403.931 111.895L404.055 111.753V111.565V106.846V106.83L404.054 106.815L403.702 101.116L403.699 101.072L403.689 101.029L402.109 94.5552L400.529 82.6265L400.09 73.8054L400.084 73.687L400.025 73.5839L398.377 70.6737L397.006 66.3187V57.289L397.529 53.8449Z" fill="#46C894" stroke="#103F4A"/>
<path d="M510.383 290.236L510.219 290.371L510.201 290.582L509.766 295.779L508.367 300.185L505.106 301.069L501.206 300.69L501.447 299.814L504.055 297.689L504.183 297.585L504.223 297.425L504.928 294.665L504.979 294.465L504.875 294.288L502.936 290.993L502.784 290.735L502.485 290.747L473.854 291.904L473.849 291.905L453.334 292.527L453.329 292.528L432.914 292.702L432.516 288.114L433.22 252.525L433.221 252.492L433.217 252.46L432.072 242.131L432.049 241.928L431.891 241.799L429.642 239.964L427.576 237.353L425.851 234.698L426.214 233.012L427.679 231.696L427.845 231.547V231.324V228.741V228.5L427.656 228.35L426.423 227.37L426.303 227.275L426.151 227.264L424.041 227.1L421.465 224.581L418.857 221.155L416.926 218.1L417.007 216.298L417.013 216.17L416.956 216.054L416.158 214.441L458.373 213.392L458.382 213.392L458.391 213.392L467.202 212.857L467.213 212.857L467.224 212.856L473.663 212.18L474.566 214.005L474.592 214.057L474.629 214.102L476.751 216.659L476.208 218.541L476.18 218.638L476.192 218.739L476.632 222.478L476.638 222.524L476.652 222.569L478.678 229.068L478.711 229.175L478.786 229.257L485.13 236.202L485.171 236.247L485.222 236.28L489.67 239.248V242.631V242.765L489.736 242.88L490.705 244.572L490.835 244.798L491.095 244.821L497.073 245.347L498.33 246.015L497.881 248.284L495.956 253.591L495.946 253.617L495.939 253.645L495.234 256.583L495.191 256.764L495.277 256.93L497.215 260.669L497.262 260.759L497.339 260.824L503.331 265.81L503.438 265.899L503.575 265.92L507.342 266.499L508.824 270.325L508.84 270.368L508.865 270.407L510.502 273.056L509.786 275.147L509.728 275.316L509.791 275.484L511.289 279.491L511.318 279.57L511.373 279.635L513.223 281.861L513.398 282.072L513.67 282.038L515.481 281.809L516.123 282.753L515.616 283.925L515.575 284.02V284.124V286.405L514.166 287.155L514.122 287.178L514.084 287.209L510.383 290.236Z" fill="#46C894" stroke="#103F4A"/>
<path d="M303.035 102.465L307.13 57.6178L307.131 57.6104L307.131 57.6031L307.892 45.2753L329.586 47.1543L329.595 47.1551L329.605 47.1555L352.955 48.313V48.3131L352.963 48.3134L369.352 48.8477L369.358 48.8478L394.202 49.3657L395.642 53.8465L395.132 57.1577L395.126 57.1956V57.2339V66.5029V66.5757L395.147 66.6455L396.556 71.3824L396.574 71.4413L396.605 71.4942L398.217 74.2196L398.651 82.7334L398.652 82.7532L398.655 82.7728L400.241 94.891L400.244 94.9181L400.251 94.9446L401.826 101.402L402.175 106.862V107.399L352.564 105.902L303.035 102.465Z" fill="#46C894" stroke="#103F4A"/>
<path d="M401.598 176.405L401.739 176.732L402.094 176.706L404.027 176.561L404.826 180.84L404.833 180.878L404.845 180.914L407.302 187.917L408.176 192.07L408.194 192.155L408.239 192.229L410.206 195.425L410.635 199.763L410.641 199.819L410.659 199.873L411.871 203.46L412.219 209.359L412.224 209.431L412.248 209.5L413.922 214.13L413.933 214.16L413.948 214.188L415.121 216.474L415.039 218.39L415.032 218.552L415.121 218.687L417.412 222.159L417.418 222.169L417.424 222.178L418.787 224.055H415.806H415.802L377.224 223.521L377.216 223.521L341.459 222.453L341.454 222.453L322.847 221.586L324.048 203.308L324.079 202.826L323.599 202.777L294.929 199.889L298.623 161.956L329.509 163.885L329.511 163.885L366.078 166.022L366.107 166.023L366.135 166.022L375.352 165.499L377.135 167.137L377.161 167.161L377.189 167.181L382.476 170.831L382.671 170.966L382.899 170.9L386.558 169.844L389.758 169.494L391.893 169.411L393.709 170.412L393.753 170.436L393.8 170.451L397.981 171.772L400.317 173.074L400.698 174.307L400.706 174.332L400.716 174.357L401.598 176.405Z" fill="#46C894" stroke="#103F4A"/>
<path d="M583.972 231.41L583.782 231.313L583.581 231.384L581.622 232.073L578.727 232.223L574.551 196.097L574.551 196.094L573.105 182.774L592.807 179.844L594.593 180.91L594.592 180.91L594.597 180.913L596.888 182.248L597.032 182.332L597.198 182.313L601.552 181.805L604.379 184.41L604.543 184.561L604.765 184.54L606.616 184.362L606.704 184.353L606.783 184.315L611.568 182.03L614.055 181.596L614.074 181.593L614.092 181.589L616.911 180.876L617.043 180.843L617.14 180.748L620.664 177.275L620.674 177.266L620.683 177.255L623.629 174.016L627.002 172.006L627.004 172.005L631.836 169.091L635.504 191.158L635.506 191.169L635.508 191.18L635.978 193.396L635.04 194.272L634.996 194.313L634.963 194.362L633.906 195.965L633.766 196.177L633.855 196.414L634.881 199.179V203.161L634.442 207.588L634.441 207.604L634.44 207.619L634.269 212.301L632.42 215.443L629.846 218.304L628.223 219.476L626.505 219.081L626.21 219.014L626.014 219.243L624.868 220.579L624.851 220.599L624.836 220.621L622.641 223.814L621.681 225.049L621.576 225.185V225.356V227.315V227.395L621.601 227.472L622.264 229.482L622.175 229.456L621.39 228.583L621.353 228.542L621.307 228.509L620.426 227.886L620.14 227.684L619.853 227.883L618.179 229.041L618.026 229.146L617.979 229.326L617.01 233.066L616.995 233.123L616.994 233.181L616.91 237.237L615.575 238.428L615.408 238.577V238.801V240.363L614.719 240.711L613.138 240.791L612.607 240.657L610.399 238.94L610.38 238.925L610.359 238.912L609.126 238.133L608.642 235.933L608.54 235.469L608.071 235.548L605.956 235.904L605.86 235.92L605.777 235.971L603.751 237.218L603.688 237.256L603.639 237.311L602.383 238.721L601.434 237.891L601.327 237.796L601.185 237.773L598.454 237.328L598.275 237.299L598.119 237.391L596.122 238.568H594.985L593.548 236.955L593.403 236.791L593.184 236.787L588.758 236.704L587.383 233.273L587.313 233.097L587.144 233.012L583.972 231.41Z" fill="#46C894" stroke="#103F4A"/>
<path d="M402.589 155.058L402.278 155.112L402.193 155.416L401.4 158.265L401.373 158.364L401.386 158.465L401.739 161.136L401.766 161.339L401.928 161.465L403.969 163.052L402.99 167.505L401.424 171.111L401.335 171.314L401.407 171.473L398.863 170.071L398.82 170.047L398.772 170.032L394.586 168.71L392.422 167.573L392.305 167.511L392.172 167.516L389.617 167.605L389.6 167.606L389.583 167.607L386.147 167.963L386.095 167.969L386.046 167.984L382.939 168.976L378.494 165.756L376.135 163.637L375.976 163.494L375.764 163.51L366.193 164.22L329.661 162.085L329.659 162.085L298.791 160.157L300.082 138.579L302.549 108.311L302.549 108.31L302.862 104.352L352.505 107.79L352.514 107.791L352.524 107.791L402.175 109.29V111.024L401.185 112.178L399.465 113.482L399.278 113.623L399.268 113.858L399.18 115.816L399.174 115.945L399.231 116.061L400.2 118.019L400.247 118.114L400.327 118.181L403.802 121.092L404.202 123.275V154.774L402.589 155.058Z" fill="#46C894" stroke="#103F4A"/>
<path d="M464.42 92.5635L464.512 92.6286L464.623 92.6479L467.178 93.0931L467.273 93.1095L467.366 93.0899L469.922 92.5557L469.972 92.5451L470.02 92.5244L476.54 89.6752L476.58 89.6579L476.616 89.6339L479.125 87.9723L480.657 87.3826L481.673 88.1924L481.095 88.7763L481.053 88.8182L481.023 88.8687L479.349 91.6289L479.317 91.681L479.299 91.7391L478.77 93.4308L478.653 93.8045L478.988 94.0075L479.869 94.5417L480.119 94.693L480.373 94.5502L481.887 93.7005L482.656 93.5592L484.721 94.1776L485.152 94.9749L485.265 95.1859L485.501 95.2292L486.47 95.4073L486.828 95.473L487.001 95.153L487.157 94.8627L490.213 98.9543L490.337 99.1196L490.541 99.1498L497.737 100.214L504.9 102.156L507.159 103.122L507.203 103.141L507.251 103.151L517.894 105.424L519.191 107.308L519.286 107.445L519.443 107.499L522.331 108.471L523.78 117.257L523.809 117.432L523.942 117.55L525.352 118.796L525.385 118.826L525.424 118.849L526.36 119.417L525.626 120.966L524.115 122.324L524.035 122.395L523.992 122.493L522.149 126.661L521.013 128.781L520.939 128.918L520.956 129.072L521.133 130.675L521.173 131.038L521.531 131.11L522.852 131.377L523.206 131.449L523.385 131.136L524.283 129.568L525.48 128.923L525.651 128.831L525.715 128.646L526.381 126.713L527.967 125.194L528.007 125.156L528.037 125.11L530.416 121.549L530.418 121.546L534.059 116.027L534.115 115.992L534.164 116.158L534.003 118.033L531.482 124.006L529.107 129.072L529.077 129.137L529.066 129.208L528.628 132.04L528.103 134.337L528.058 134.535L528.164 134.709L528.785 135.729L528.632 137.822L527.052 139.839L526.99 139.918L526.963 140.015L526.522 141.617L526.493 141.723L526.511 141.831L527.04 145.037L527.041 145.041L527.538 147.891L526.306 150.05L526.275 150.105L526.258 150.166L525.556 152.738L524.678 155.488L524.619 155.671L524.699 155.847L525.634 157.908L526.154 163.257L526.16 163.317L526.18 163.374L527.556 167.284L527.414 169.437L513.833 170.991L498.442 171.879H487.586L487.103 170.834L486.988 170.586L486.718 170.549L484.245 170.204L482.154 169.148L480.265 166.075L480.025 163.166L481.687 160.73L481.83 160.521L481.745 160.281L481.305 159.035L481.27 158.935L481.197 158.858L479.438 156.996L478.773 154.224L478.248 148.206L478.234 148.05L478.134 147.93L476.284 145.704L476.235 145.646L476.171 145.605L470.086 141.651L466.793 136.923L466.693 136.78L466.525 136.73L463.683 135.885L461.843 133.519L461.693 133.325H461.449H458.857L456.56 130.684L456.134 125.087L456.218 121.836L457.494 119.172L457.571 119.01L457.528 118.836L456.823 115.987L456.794 115.868L456.713 115.776L454.7 113.498L456.146 109.113L460.6 105.824L460.649 105.789L460.687 105.742L462.097 104.05L462.217 103.906L462.213 103.718L462.037 96.5298L462.2 94.2237L463.913 92.2047L464.42 92.5635Z" fill="#46C894" stroke="#103F4A"/>
<path d="M541.612 409.104L541.535 409.078H541.453H539.346L537.985 396.436L537.984 396.426L537.982 396.417L535.521 379.719L535.785 367.207L535.785 367.206L536.402 339.605L536.402 339.596L536.402 339.588L536.225 324.729L536.387 319.495L546.684 318.812L546.692 318.812L546.699 318.811L567.314 316.853L567.317 316.852L574.675 316.192L574.612 317.579L574.61 317.625L574.617 317.671L575.321 322.657L575.331 322.725L575.359 322.788L578.424 329.78L581.762 343.982L581.768 344.009L581.778 344.035L583.352 348.455L584.579 354.386L584.583 354.409L584.59 354.431L586.352 360.218L586.38 360.308L586.437 360.382L588.733 363.302L589.155 366.374L589.195 366.664L589.467 366.771L590.774 367.284L590.902 368.386L589.443 372.551L589.427 372.594L589.42 372.64L588.716 377.181L588.696 377.305L588.738 377.423L590.126 381.368L590.465 385.821L589.623 388.031L589.521 388.3L589.702 388.524L590.495 389.503L590.558 389.581L590.647 389.629L591.768 390.233L592.018 391.348L587.721 391.271L587.694 391.27L587.667 391.273L581.763 391.807L581.763 391.807L581.752 391.808L559.107 394.39L559.099 394.391L559.092 394.392L549.84 395.728L549.452 395.784L549.414 396.173L549.061 399.735L549.038 399.969L549.204 400.136L550.966 401.917L550.994 401.945L551.027 401.969L553.034 403.429L553.276 409.628L549.118 411.647L548.184 411.542L549.496 410.609L549.707 410.46V410.202V409.311V409.191L549.652 409.084L546.92 403.741L546.819 403.542L546.603 403.485L544.576 402.951L544.124 402.832L543.975 403.275L542.663 407.164L541.721 409.141L541.612 409.104Z" fill="#2DA5D3" stroke="#103F4A"/>
<path d="M505.096 302.961L505.191 302.971L505.283 302.946L507.685 302.29L507.138 304.196L507.137 304.198L506.08 307.937L506.071 307.97L506.066 308.003L505.836 309.632L502.346 311.647L501.988 311.853L502.124 312.244L503.311 315.673L502.591 318.99L500.907 320.124L500.702 320.262L500.687 320.509L500.529 323.144L498.604 323.999L498.439 324.073L498.359 324.235L495.804 329.399L495.717 329.573L495.772 329.76L496.197 331.22L496.261 332.332L494.375 333.17L494.249 333.226L494.169 333.339L490.645 338.325L490.495 338.538L490.583 338.783L491.171 340.418L489.053 342.241L488.919 342.356L488.887 342.53L487.923 347.759L487.313 349.872L487.251 350.087L487.37 350.277L488.384 351.888L487.362 352.852L487.082 353.116L487.266 353.454L488.713 356.121L488.958 359.267L488.352 360.561L465.051 361.264L443.336 361.438L443.003 352.929L442.99 352.611L442.696 352.487L440.141 351.419L439.951 351.34L439.76 351.417L437.383 352.378L435.952 351.277L435.69 317.507L435.69 317.478L435.686 317.448L434.456 307.772L434.368 300.232L434.367 300.182L434.357 300.133L433.164 294.586L453.347 294.327L453.347 294.327L453.356 294.327L473.886 293.704L473.89 293.703L501.706 292.646L503.028 294.798L502.592 296.487L499.982 298.699L499.866 298.797L499.825 298.942L499.032 301.702L498.868 302.272L499.457 302.337L505.096 302.961Z" fill="#2DA5D3" stroke="#103F4A"/>
<path d="M135.744 258.348L188.735 268.052L188.744 268.054L188.752 268.055L209.937 271.188L206.129 298.298L206.128 298.303L199.962 345.573L199.96 345.583L194.746 380.359L172.864 378.008L162.134 375.892L147.406 367.034L147.402 367.032L134.457 359.378L123.802 352.616L123.792 352.609L123.782 352.604L107.261 343.152L106.963 342.551L107.161 341.552L109.203 339.806L112.31 339.467L112.535 339.442L112.665 339.257L114.163 337.12L114.209 337.053L114.233 336.975L115.026 334.304L115.197 333.726L114.598 333.664L111.406 333.333L111.223 333.038L111.667 331.842L111.696 331.762L111.698 331.677L111.781 326.822L113.176 326.154L113.251 326.118L113.31 326.06L115.953 323.478L116.083 323.351L116.101 323.171L116.534 318.887L117.881 315.824L119.171 314.357L122.074 312.977L122.114 312.958L122.15 312.932L123.648 311.864L123.817 311.743L123.851 311.538L124.203 309.401L124.25 309.117L124.029 308.934L123.121 308.184L122.596 307.351L121.645 302.545L121.63 302.468L121.592 302.399L119.203 298.089L119.523 295.421L120.787 293.378L120.856 293.266L120.861 293.134L121.3 282.043L121.557 280.746L121.565 280.709L121.566 280.671L121.821 274.84L123.379 273.565L123.974 273.51L124.868 274.338L124.98 274.442L125.131 274.465L127.156 274.78L128.101 276.85L128.225 277.12L128.52 277.141L130.987 277.319L131.308 277.342L131.462 277.06L133.312 273.677L133.354 273.6L133.368 273.514L135.658 258.828L135.744 258.348Z" fill="#2DA5D3" stroke="#103F4A"/>
<mask id="path-27-inside-3" fill="white">
<path d="M648.687 390.701L644.105 390.078L643.488 390.79L644.81 394.708L644.457 399.338L640.845 398.448L640.668 395.955H637.056L632.386 396.578L603.837 398.27L596.612 398.003L595.114 396.489L592.911 392.749H587.713L581.897 393.194L550.705 396.934L550.441 399.427L551.851 400.852L554.406 402.633L554.671 410.112L557.578 409.578L562.865 407.708L568.152 407.263L572.029 406.728L578.725 408.331L585.862 411.804L587.272 413.139L589.827 414.119L591.237 415.81L591.502 418.214L594.321 417.057H597.758L600.93 415.365L604.19 412.16L606.921 412.338L607.362 411.358L606.657 410.468L606.833 408.776L610.358 408.064H612.649L615.204 409.4L618.905 410.735L621.019 414.03L623.398 414.92L624.368 417.947L627.363 419.372L628.773 421.687L630.447 422.221L635.029 423.379L636.175 426.139L638.818 429.433V437.892L637.496 442.077L637.761 444.481L638.906 448.755L640.492 452.316L641.197 451.871L642.519 447.864L640.228 446.974L639.963 446.44L641.373 445.905L645.338 446.796L645.515 448.22L642.695 453.118L640.845 455.255L644.017 458.549L646.308 461.309L648.863 466.028L651.418 469.501L653.268 473.953L654.854 474.22L656.264 472.35L657.85 473.329L660.141 476.891L660.67 480.096L663.401 484.014L664.106 482.857L667.543 483.124L670.715 485.172L673.711 489.802L674.415 492.829L674.68 495.411L675.649 496.301L676.794 496.747L678.909 495.856L680.231 494.432L683.667 494.254L686.399 492.918L688.778 490.069L688.337 488.377L688.073 486.24L688.602 484.548L688.337 482.857L690.452 481.699L690.716 478.672L690.188 477.069L689.747 466.384L688.602 459.617L684.637 452.316L681.464 447.152L679.174 442.433L676.618 439.851L674.063 433.262L674.68 432.015L675.649 430.858L674.239 428.276L670.715 424.981L666.485 420.084L663.225 414.475L658.555 406.105L655.295 397.468L653.268 390.969L648.687 390.701ZM664.283 508.856L666.397 508.322L667.543 508.144L668.864 506.096L670.891 504.671L672.036 505.116L673.534 505.383L673.887 506.363L670.803 507.431L667.102 508.767L665.076 509.835L664.283 508.856ZM676.178 504.404L677.235 505.383L679.614 503.514L684.284 499.774L687.544 496.301L689.747 490.425L690.628 488.911L690.804 485.884L690.188 486.329L689.306 488.822L687.985 492.918L685.165 497.637L681.288 501.377L678.292 503.068L676.178 504.404Z"/>
</mask>
<path d="M648.687 390.701L644.105 390.078L643.488 390.79L644.81 394.708L644.457 399.338L640.845 398.448L640.668 395.955H637.056L632.386 396.578L603.837 398.27L596.612 398.003L595.114 396.489L592.911 392.749H587.713L581.897 393.194L550.705 396.934L550.441 399.427L551.851 400.852L554.406 402.633L554.671 410.112L557.578 409.578L562.865 407.708L568.152 407.263L572.029 406.728L578.725 408.331L585.862 411.804L587.272 413.139L589.827 414.119L591.237 415.81L591.502 418.214L594.321 417.057H597.758L600.93 415.365L604.19 412.16L606.921 412.338L607.362 411.358L606.657 410.468L606.833 408.776L610.358 408.064H612.649L615.204 409.4L618.905 410.735L621.019 414.03L623.398 414.92L624.368 417.947L627.363 419.372L628.773 421.687L630.447 422.221L635.029 423.379L636.175 426.139L638.818 429.433V437.892L637.496 442.077L637.761 444.481L638.906 448.755L640.492 452.316L641.197 451.871L642.519 447.864L640.228 446.974L639.963 446.44L641.373 445.905L645.338 446.796L645.515 448.22L642.695 453.118L640.845 455.255L644.017 458.549L646.308 461.309L648.863 466.028L651.418 469.501L653.268 473.953L654.854 474.22L656.264 472.35L657.85 473.329L660.141 476.891L660.67 480.096L663.401 484.014L664.106 482.857L667.543 483.124L670.715 485.172L673.711 489.802L674.415 492.829L674.68 495.411L675.649 496.301L676.794 496.747L678.909 495.856L680.231 494.432L683.667 494.254L686.399 492.918L688.778 490.069L688.337 488.377L688.073 486.24L688.602 484.548L688.337 482.857L690.452 481.699L690.716 478.672L690.188 477.069L689.747 466.384L688.602 459.617L684.637 452.316L681.464 447.152L679.174 442.433L676.618 439.851L674.063 433.262L674.68 432.015L675.649 430.858L674.239 428.276L670.715 424.981L666.485 420.084L663.225 414.475L658.555 406.105L655.295 397.468L653.268 390.969L648.687 390.701ZM664.283 508.856L666.397 508.322L667.543 508.144L668.864 506.096L670.891 504.671L672.036 505.116L673.534 505.383L673.887 506.363L670.803 507.431L667.102 508.767L665.076 509.835L664.283 508.856ZM676.178 504.404L677.235 505.383L679.614 503.514L684.284 499.774L687.544 496.301L689.747 490.425L690.628 488.911L690.804 485.884L690.188 486.329L689.306 488.822L687.985 492.918L685.165 497.637L681.288 501.377L678.292 503.068L676.178 504.404Z" fill="#2DA5D3" stroke="#103F4A" stroke-width="2" mask="url(#path-27-inside-3)"/>
<path d="M651.977 384.533L652.607 389.545L648.731 389.314L643.813 388.693L643.547 388.66L643.372 388.862L642.139 390.287L641.952 390.503L642.043 390.773L643.42 394.862L643.21 397.628L642.199 397.349L642.046 395.033L642.016 394.566H641.547H636.966H636.932L636.9 394.57L632.248 395.191L603.83 396.88L597.245 396.621L596.208 395.723L594.084 392.03L593.396 389.162L593.345 388.951L593.156 388.844L591.806 388.076L591.646 387.914L592.315 386.26L592.359 386.153L592.351 386.037L591.998 381.14L591.993 381.073L591.971 381.01L590.604 377.123L591.281 372.93L592.764 368.698L592.799 368.598L592.791 368.493L592.615 366.267L592.59 365.949L592.291 365.838L590.901 365.32L590.586 362.772L590.569 362.633L590.482 362.523L588.074 359.481L586.433 354.072L585.116 347.861L585.109 347.829L585.099 347.799L583.609 343.55L580.267 329.33L580.257 329.286L580.239 329.246L577.181 322.183L576.493 317.576L576.561 316.012L579.033 315.785L579.033 315.785L579.047 315.784L591.027 314.359L591.03 314.359L607.414 312.579L607.43 312.577L607.447 312.574L612.581 311.668L612.722 312.068L611.222 312.688L611.028 312.768L610.95 312.963L610.156 314.921L610.1 315.06L610.129 315.206L610.482 316.987L610.508 317.117L610.594 317.217L611.828 318.642L611.876 318.697L611.938 318.737L615.727 321.141L615.857 321.223L616.011 321.218L618.554 321.138L621.186 325.044L621.694 326.413L621.723 326.49L621.775 326.554L623.738 328.969L624.15 330.385L624.219 330.623L624.449 330.712L628.528 332.29L631.059 334.166L633.043 336.781L633.105 336.862L633.193 336.912L635.172 338.043L636.827 339.547L638.019 341.871L638.06 341.951L638.126 342.012L639.977 343.703L640.037 343.758L640.111 343.791L643.548 345.316L645.839 350.46L647.329 354.977L647.415 355.238L647.681 355.305L650.026 355.897L651.69 357.419L653.411 362.375L653.473 362.554L653.64 362.647L656.195 364.072L656.42 364.197L656.653 364.087L657.639 363.618L657.748 363.946L654.939 369.279L654.857 369.433L654.89 369.605L655.305 371.787L654.029 375.4L654.019 375.427L654.013 375.455L651.986 384.359L651.966 384.445L651.977 384.533Z" fill="#2DA5D3" stroke="#103F4A"/>
<path d="M514.338 289.385L515.036 288.814L517.11 287.678L517.361 287.541L517.37 287.255L517.455 284.425L518.199 282.92L518.331 282.655L518.161 282.412L516.824 280.505L517.36 279.287L518.96 278.155L520.743 277.451L525.931 279.599L526.084 279.663L526.244 279.622L527.654 279.266L528.032 279.17V278.781V276.822V276.705L527.98 276.6L526.996 274.611L527.284 273.009L528.736 271.928L532.361 270.707L532.863 270.538L532.666 270.047L531.466 267.057L532.117 266.4L532.196 266.32L532.233 266.213L533.221 263.385L535.439 262.344L540.292 261.468L543.274 261.143L544.336 262.369L544.407 262.451L544.505 262.496L546.444 263.387L546.88 263.587L547.098 263.159L548.6 260.208L550.552 259.404L551.735 260.247L552.385 261.398L552.573 261.73L552.943 261.636L555.057 261.102L555.459 261.001L555.434 260.587L555.276 257.959L558.109 256.344L558.985 257.229L559.127 257.373L559.329 257.377L563.294 257.466L563.645 257.474L563.772 257.147L564.565 255.099L564.607 254.99L564.597 254.874L564.437 253.096L566.577 250.018L570.829 246.861L571.004 246.731L571.028 246.515L571.427 242.889L573.339 242.591L573.412 242.58L573.478 242.548L576.826 240.945L576.867 240.926L576.903 240.9L579.37 239.119L579.615 238.942L579.573 238.644L579.308 236.774L579.29 236.64L579.205 236.533L578.298 235.388L578.597 234.12L581.921 233.96L582.002 233.956L582.077 233.927L583.716 233.296L585.907 234.441L587.424 238.274L587.547 238.584L587.88 238.59L592.595 238.675L594.036 240.293L594.185 240.46H594.409H596.436H596.572L596.69 240.391L598.639 239.242L600.52 239.622L602.092 241.043L602.461 241.377L602.796 241.01L604.951 238.659L606.567 237.679L607.149 237.588L607.49 239.175L607.536 239.39L607.726 239.501L609.372 240.464L611.452 242.081L611.62 247.278L611.624 247.38L611.667 247.474L612.46 249.165L612.53 249.314L612.674 249.392L614.766 250.53L615.157 252.268L615.181 252.378L615.251 252.466L617.894 255.85L617.906 255.865L617.919 255.88L620.122 258.284L620.17 258.336L620.23 258.372L622.634 259.845L621.192 261.512L617.604 264.695L617.567 264.727L617.538 264.766L612.251 271.711L612.157 271.834L612.149 271.988L612.076 273.4L608.885 275.136L608.868 275.146L608.852 275.156L604.02 278.295L564.403 282.112L564.398 282.113L537.638 284.959H533.876H533.388L533.376 285.447L533.299 288.636L522.667 289.233L514.338 289.385Z" fill="#2DA5D3" stroke="#103F4A"/>
<mask id="path-30-inside-4" fill="white">
<path d="M451.932 426.941L459.069 426.674L468.145 429.879L473.872 430.859L477.132 429.523L479.952 430.503L482.771 431.393L483.476 429.523L480.657 428.544L478.366 428.989L475.987 427.564L476.691 426.229L479.423 425.338L481.009 426.674L482.595 425.784L485.415 426.318L486.736 428.455L487.001 430.503L490.966 430.77L492.552 432.373L491.847 433.797L490.701 434.509L492.111 435.934L499.513 439.139L502.685 437.982L503.566 435.845L505.857 435.311L507.443 433.975L508.588 434.866L509.293 437.448L507.267 438.16L507.795 438.694L510.791 437.537L512.818 434.509L513.522 434.064L511.672 433.797L512.377 432.373L512.201 431.037L514.051 430.592L515.02 429.434L515.549 430.147L516.078 432.907L519.778 433.441L523.303 435.133L524.184 436.468H526.739L527.709 437.359L529.735 434.598V433.263H528.59L525.594 430.859L520.483 430.147L517.664 428.099L518.633 425.695L520.66 425.962L520.836 425.428L519.25 424.537V424.092H522.069L523.655 421.332L522.51 419.64L522.246 417.236L520.924 417.414L519.25 419.284L518.721 421.599L515.99 421.065L515.108 419.462L516.695 417.77L518.369 416.257L516.43 410.469L513.434 407.442L514.316 400.942L514.139 400.497L512.994 400.675L483.829 401.921L483.124 399.784L483.829 392.216L491.406 379.038L490.613 376.723L491.847 376.367L492.199 374.586L490.261 372.806L490.349 371.114L488.587 367.107L488.234 362.566L488.322 361.943L465.061 362.655L442.856 362.744L443.209 371.381L443.825 379.84L444.266 383.134L446.557 387.141L447.35 391.059L451.139 396.401L451.403 399.161L451.932 399.873L451.315 407.264L448.848 411.359L449.905 413.496L449.465 415.811L448.76 422.311L447.614 424.982L447.791 428.277L451.932 426.941Z"/>
</mask>
<path d="M451.932 426.941L459.069 426.674L468.145 429.879L473.872 430.859L477.132 429.523L479.952 430.503L482.771 431.393L483.476 429.523L480.657 428.544L478.366 428.989L475.987 427.564L476.691 426.229L479.423 425.338L481.009 426.674L482.595 425.784L485.415 426.318L486.736 428.455L487.001 430.503L490.966 430.77L492.552 432.373L491.847 433.797L490.701 434.509L492.111 435.934L499.513 439.139L502.685 437.982L503.566 435.845L505.857 435.311L507.443 433.975L508.588 434.866L509.293 437.448L507.267 438.16L507.795 438.694L510.791 437.537L512.818 434.509L513.522 434.064L511.672 433.797L512.377 432.373L512.201 431.037L514.051 430.592L515.02 429.434L515.549 430.147L516.078 432.907L519.778 433.441L523.303 435.133L524.184 436.468H526.739L527.709 437.359L529.735 434.598V433.263H528.59L525.594 430.859L520.483 430.147L517.664 428.099L518.633 425.695L520.66 425.962L520.836 425.428L519.25 424.537V424.092H522.069L523.655 421.332L522.51 419.64L522.246 417.236L520.924 417.414L519.25 419.284L518.721 421.599L515.99 421.065L515.108 419.462L516.695 417.77L518.369 416.257L516.43 410.469L513.434 407.442L514.316 400.942L514.139 400.497L512.994 400.675L483.829 401.921L483.124 399.784L483.829 392.216L491.406 379.038L490.613 376.723L491.847 376.367L492.199 374.586L490.261 372.806L490.349 371.114L488.587 367.107L488.234 362.566L488.322 361.943L465.061 362.655L442.856 362.744L443.209 371.381L443.825 379.84L444.266 383.134L446.557 387.141L447.35 391.059L451.139 396.401L451.403 399.161L451.932 399.873L451.315 407.264L448.848 411.359L449.905 413.496L449.465 415.811L448.76 422.311L447.614 424.982L447.791 428.277L451.932 426.941Z" fill="#2DA5D3" stroke="#103F4A" stroke-width="2" mask="url(#path-30-inside-4)"/>
<path d="M522.625 410.814L522.223 410.634L521.993 411.009L519.754 414.665L519.413 414.915L517.694 409.863L517.657 409.754L517.577 409.672L514.843 406.91L515.69 400.833L515.709 400.696L515.655 400.569L515.126 399.322L514.973 398.962L514.587 399.024L512.931 399.288L505.738 399.908L484.801 400.52L484.51 399.639L485.195 392.548L492.72 379.285L492.827 379.096L492.763 378.889L492.38 377.664L492.709 377.553L492.976 377.463L493.038 377.189L493.654 374.428L493.719 374.139L493.496 373.944L491.653 372.324L491.727 371.054L491.734 370.934L491.686 370.824L489.957 366.894L489.618 362.601L489.766 361.928L490.798 359.753L490.855 359.635L490.846 359.504L490.581 355.764L490.574 355.658L490.524 355.565L489.381 353.409L490.426 352.423L490.726 352.14L490.505 351.792L489.219 349.762L489.679 348.291L489.688 348.26L489.694 348.227L490.544 343.332L493.048 341.223L493.31 341.002L493.199 340.678L492.575 338.867L495.43 334.663L497.839 333.739L498.174 333.611L498.16 333.252L498.072 331.115L498.069 331.05L498.05 330.988L497.669 329.756L499.791 325.549L502.102 324.465L502.37 324.339L502.389 324.043L502.537 321.649L513.536 321.307L513.549 321.306L513.561 321.305L530.827 319.881L534.503 319.649L534.344 324.709L534.344 324.72L534.344 324.731L534.52 339.592L533.639 379.74L533.638 379.781L533.644 379.823L536.11 396.732L537.597 409.813L537.36 410.77H533.296L532.085 410.118L532.007 410.076L531.919 410.063L530.069 409.796L529.964 409.781L529.862 409.81L524.045 411.452L522.625 410.814Z" fill="#2DA5D3" stroke="#103F4A"/>
<path d="M681.164 312.407L681.137 312.385L681.108 312.367L669.917 305.511L669.854 305.473L669.782 305.454L667.051 304.742L666.957 304.717L666.861 304.729L652.578 306.555L651.33 304.191L651.281 304.098L651.199 304.032L648.732 302.074L648.589 301.96L648.406 301.965L633.691 302.411L633.668 302.411L633.645 302.414L627.125 303.215L627.041 303.226L626.964 303.263L618.875 307.262L612.948 309.64L607.288 310.696L596.067 311.88L596.136 309.037L597.365 308.087L599.645 307.49L599.953 307.409L600.01 307.096L600.588 303.925L603.801 301.844L607.189 300.527L607.265 300.498L607.328 300.446L611.253 297.184L615.084 295.161L615.29 295.052L615.339 294.825L615.923 292.128L618.998 289.247L619.285 289.661L619.42 289.856L619.656 289.875L621.859 290.053L622.154 290.077L622.316 289.83L624.322 286.79L625.542 286.5L627.745 286.757L628.11 286.799L628.259 286.463L629.806 282.99L631.94 280.92L632.037 280.826L632.074 280.694L632.514 279.091L632.53 279.033L632.532 278.973L632.606 276.354L635.986 276.431L636.028 276.432L636.07 276.426L669.993 271.44L670.01 271.438L670.026 271.434L720.282 260.571L721.885 264.458L721.896 264.484L721.909 264.508L725.081 270.295L725.115 270.357L725.164 270.407L727.184 272.448L727.531 273.791L726.006 273.92L724.707 274.029L725.746 274.816L726.235 275.187L726.01 278.373L723.972 279.403L723.776 279.502L723.717 279.713L723.198 281.549L722.145 283.921L719.19 285.213L717.216 284.963L717.212 284.963L716.035 284.804L714.735 283.737L713.604 282.809L713.93 284.234L714.182 285.337V286.171V286.671H714.682H716.075L716.518 287.399L714.908 292.795L714.716 293.438H715.387H718.74L719.147 294.537L719.42 295.271L719.971 294.714L721.595 293.073L720.681 294.824L718.109 298.849H717.346L716.476 298.449L716.323 298.379L716.158 298.416L713.779 298.95L713.726 298.962L713.677 298.985L709.095 301.122L709.038 301.148L708.989 301.189L703.262 305.908L703.211 305.95L703.173 306.003L700.177 310.188L700.127 310.257L700.103 310.34L698.429 316.127L698.424 316.146L698.42 316.165L698.053 317.945L694.274 318.351L694.229 318.356L694.185 318.369L689.946 319.629L681.164 312.407ZM730.906 284.854L731.186 284.74L731.216 284.439L731.239 284.208L731.206 284.77L729.383 285.582L729.655 285.359L730.906 284.854ZM731.356 282.191L730.966 278.178L731.021 278.294L731.362 282.083L731.356 282.191Z" fill="#2DA5D3" stroke="#103F4A"/>
<path d="M210.534 374.257L209.538 382.306L196.621 380.654L201.832 345.811L201.832 345.811L201.834 345.801L208.001 298.438L208.001 298.433L211.81 271.408L241.282 274.824L241.283 274.824L274.236 278.742L274.243 278.743L274.251 278.743L301.978 281.195L301.741 289.818L301.029 289.767L300.532 289.731L300.495 290.228L294.011 376.726L269.489 375.155L235.927 371.862L235.314 371.802L235.381 372.414L235.929 377.395L225.815 376.138L211.108 373.824L210.597 373.744L210.534 374.257Z" fill="#2DA5D3" stroke="#103F4A"/>
<path d="M351.101 292.528L351.139 292.015L350.625 291.992L303.54 289.878L303.855 281.349L339.917 282.93L339.919 282.93L379.303 284.8L379.313 284.8L379.322 284.8L420.118 285.245L420.127 285.245L420.135 285.245L430.713 284.991L430.637 288.295L430.637 288.323L430.639 288.35L431.168 294.405L431.171 294.438L431.178 294.471L432.488 300.296L432.576 307.901L432.576 307.93L432.58 307.958L433.81 317.634L434.066 350.162L433.169 349.589L433.103 349.548L433.029 349.528L430.096 348.743L427.596 347.312L426.16 345.433L426.056 345.297L425.89 345.253L423.863 344.719L423.601 344.65L423.399 344.833L421.78 346.305H419.133L418.733 345.364L418.604 345.059H418.273H417.039H416.88L416.75 345.151L414.611 346.672L413.202 345.998L413.1 345.949H412.986H409.021H408.633L408.537 346.325L407.98 348.494L406.954 348.948L404.507 348.288L401.535 347.14L401.494 347.124L401.45 347.116L397.987 346.449L397.129 344.794L396.989 344.525H396.685H395.54H395.216L395.083 344.82L393.517 348.318L392.424 348.513L388.901 347.057L388.353 345.237L388.25 344.894L387.893 344.881L385.586 344.795L384.069 344.284L383.801 344.193L383.585 344.376L381.598 346.063L380.356 345.645V343.956V343.496L379.898 343.458L379.073 343.388L377.269 340.82L377.155 340.656L376.959 340.617L373.875 339.994L373.667 339.952L373.493 340.072L371.577 341.388L369.834 340.164L369.736 340.095L369.618 340.078L365.977 339.552L363.831 338.684L363.772 338.661L363.709 338.652L360.847 338.272L361.144 335.643L361.183 335.297L360.873 335.14L358.406 333.894L357.807 333.591L357.688 334.251L357.556 334.985L356.585 334.924L355.402 333.409L354.879 332.74L354.548 333.521L353.884 335.086H353.547L352.215 334.374L348.873 331.334L348.725 330.137L349.516 314.159L351.101 292.528Z" fill="#2DA5D3" stroke="#103F4A"/>
<path d="M680.027 313.736L688.481 320.756L684.187 325.176L684.122 325.244L684.085 325.331L681.794 330.762L681.763 330.836L681.757 330.917L681.338 336.246L680.179 336.832L680.011 336.917L679.941 337.091L679.067 339.259L677.198 339.731L676.993 339.783L676.888 339.966L675.07 343.116L672.736 345.474L672.702 345.508L672.676 345.548L670.722 348.466L669.429 349.119L669.363 349.152L669.31 349.204L666.268 352.106L663.893 352.272L663.264 352.316L663.45 352.918L664.245 355.491L660.073 359.96L658.134 361.323L656.454 362.018L654.995 361.315L653.388 356.529L653.347 356.409L653.254 356.322L651.051 354.274L650.948 354.178L650.81 354.15L648.894 353.763L647.662 349.946L647.653 349.918L647.641 349.892L644.998 344.104L644.918 343.93L644.742 343.853L641.123 342.286L639.583 340.812L638.565 338.584L638.519 338.482L638.433 338.409L636.318 336.628L636.283 336.599L636.244 336.577L634.307 335.47L632.431 332.971L632.389 332.915L632.333 332.873L629.513 330.736L629.458 330.694L629.393 330.669L625.748 329.245L625.463 328.238L625.435 328.139L625.37 328.059L623.401 325.637L622.99 324.389L622.967 324.32L622.925 324.26L619.577 319.452L619.422 319.229L619.152 319.238L616.312 319.322L613.052 317.21L612.149 316.298L612.014 315.341L612.428 314.223L614.627 313.153L615.044 312.95L614.873 312.519L614.348 311.191L619.539 308.978L619.552 308.973L619.564 308.967L627.596 304.997L633.745 304.209L647.981 303.771L649.783 305.275L651.323 308.3L651.49 308.63L651.855 308.566L655.894 307.856L666.88 306.534L669.099 307.199L680.027 313.736Z" fill="#2DA5D3" stroke="#103F4A"/>
<path d="M504.427 319.728L505.198 315.829L505.224 315.7L505.183 315.576L504.251 312.751L507.343 310.908L507.544 310.788L507.581 310.557L507.929 308.359L508.976 304.565L511.617 296.115L511.633 296.063L511.638 296.01L512.054 291.298L522.691 291.123L522.702 291.123L522.712 291.122L534.696 290.41L535.154 290.383L535.166 289.924L535.242 286.925L537.853 286.849L537.873 286.849L537.893 286.846L564.673 283.909L564.679 283.908L612.254 279.279L612.266 279.278L612.278 279.276L621.324 277.945L627.991 277.767L628.159 277.763L628.29 277.658L630.215 276.118L630.725 276.237L630.651 278.713L630.347 279.94L628.342 281.798L628.266 281.868L628.225 281.963L626.977 284.8L625.609 284.524L625.468 284.495L625.333 284.546L623.218 285.348L623.067 285.405L622.978 285.54L621.214 288.213L620.517 288.113L619.936 287.232L619.718 286.901L619.346 287.038L618.377 287.394L618.281 287.429L618.207 287.499L614.418 291.06L614.312 291.16L614.276 291.301L613.626 293.846L610.121 295.702L610.073 295.727L610.032 295.762L606.305 298.915L603.032 300.22L602.988 300.238L602.947 300.264L599.07 302.757L598.884 302.877L598.847 303.096L598.375 305.961L596.51 306.338L596.382 306.364L596.283 306.449L594.521 307.963L594.356 308.104L594.347 308.321L594.189 312.169L578.67 313.988L567.134 315.056L567.132 315.056L546.608 317.015L513.492 319.418L504.427 319.728Z" fill="#2DA5D3" stroke="#103F4A"/>
<mask id="path-37-inside-5" fill="white">
<path d="M236.846 373.251L269.448 376.457L295.265 378.149L301.785 291.158L349.719 293.295L348.221 314.041L347.34 330.068L347.516 331.848L351.393 335.499L353.155 336.478H354.741L355.182 335.41L355.798 336.211L357.913 336.389L358.882 335.855V335.677L359.763 336.122L359.411 339.417L363.376 340.04L365.491 340.841L369.192 341.465L371.482 343.067L373.95 341.376L376.329 341.91L378.267 344.67L378.972 344.759V346.629L381.88 347.608L384.083 345.738L385.404 346.184L387.255 346.273L387.783 348.143L392.365 349.923L394.392 349.478L396.066 345.917H396.154L397.123 347.608L401.176 348.41L404.172 349.567L406.992 350.458L409.107 349.389L409.723 347.341H412.895L414.746 348.232L417.389 346.451H417.742L418.182 347.697H422.323L423.998 346.095L425.143 346.451L426.641 348.321L429.549 350.012L432.544 350.903L434.747 352.149L437.126 353.93L439.858 352.862L441.708 353.574L442.325 371.382L442.942 379.84L443.47 383.491L445.761 387.409L446.554 391.415L450.255 396.669L450.519 399.429L451.048 400.141L450.431 406.997L447.876 411.271L449.021 413.586L448.581 415.723L447.876 422.134L446.731 424.805L446.995 428.544L442.061 429.969L433.337 433.976L432.456 435.668L430.165 437.359L428.315 438.695L427.17 439.407L422.147 444.126L419.768 445.996L415.098 448.845L410.076 450.982L404.525 454.01L402.939 455.345L397.828 458.551L394.832 459.085L391.396 463.982L387.871 464.249L386.99 465.941L389.017 467.632L387.695 472.53L386.55 476.536L385.58 480.009L384.876 484.016L385.58 486.153L387.166 492.385L388.048 497.817L389.634 500.221L388.753 501.556L386.021 503.248L380.999 499.775L376.152 498.796L375.007 499.241L372.187 498.707L368.487 495.947L363.905 494.967L357.208 491.94L355.358 488.468L354.212 482.68L351.393 480.988L350.864 478.94L351.393 478.406L351.657 475.379L350.512 474.845L349.983 473.954L351.128 470.037L349.719 467.989L346.899 466.831L343.903 462.913L340.731 457.037L337.03 454.722L337.207 453.03L332.537 442.078L331.832 438.339L330.246 436.647L330.07 435.311L324.783 430.592L322.492 427.832V426.853L320.201 424.983L314.209 424.004L307.689 423.469L304.957 421.421L300.992 423.024L297.82 424.36L295.794 427.209L294.913 430.503L291.036 435.935L288.921 438.072L286.63 437.181L285.044 436.202L283.37 435.668L279.934 433.62V433.085L278.347 431.394L273.766 429.524L267.245 422.579L265.219 418.394V411.182L262.399 405.394L261.959 402.99L260.549 402.1L259.579 400.23L255.174 398.36L254.028 396.936L247.772 389.902L246.627 387.052L242.486 385.005L241.164 381.087L238.873 378.505L237.375 378.06L236.846 373.251ZM390.515 499.419L389.986 493.098L387.607 486.687L387.078 480.454L388.4 473.153L391.308 467.009L394.392 462.201L397.211 458.996L397.74 459.174L393.511 465.05L389.634 470.838L387.871 476.714L387.607 481.344L388.4 486.776L390.691 493.187L391.132 497.817L391.308 499.152L390.515 499.419Z"/>
</mask>
<path d="M236.846 373.251L269.448 376.457L295.265 378.149L301.785 291.158L349.719 293.295L348.221 314.041L347.34 330.068L347.516 331.848L351.393 335.499L353.155 336.478H354.741L355.182 335.41L355.798 336.211L357.913 336.389L358.882 335.855V335.677L359.763 336.122L359.411 339.417L363.376 340.04L365.491 340.841L369.192 341.465L371.482 343.067L373.95 341.376L376.329 341.91L378.267 344.67L378.972 344.759V346.629L381.88 347.608L384.083 345.738L385.404 346.184L387.255 346.273L387.783 348.143L392.365 349.923L394.392 349.478L396.066 345.917H396.154L397.123 347.608L401.176 348.41L404.172 349.567L406.992 350.458L409.107 349.389L409.723 347.341H412.895L414.746 348.232L417.389 346.451H417.742L418.182 347.697H422.323L423.998 346.095L425.143 346.451L426.641 348.321L429.549 350.012L432.544 350.903L434.747 352.149L437.126 353.93L439.858 352.862L441.708 353.574L442.325 371.382L442.942 379.84L443.47 383.491L445.761 387.409L446.554 391.415L450.255 396.669L450.519 399.429L451.048 400.141L450.431 406.997L447.876 411.271L449.021 413.586L448.581 415.723L447.876 422.134L446.731 424.805L446.995 428.544L442.061 429.969L433.337 433.976L432.456 435.668L430.165 437.359L428.315 438.695L427.17 439.407L422.147 444.126L419.768 445.996L415.098 448.845L410.076 450.982L404.525 454.01L402.939 455.345L397.828 458.551L394.832 459.085L391.396 463.982L387.871 464.249L386.99 465.941L389.017 467.632L387.695 472.53L386.55 476.536L385.58 480.009L384.876 484.016L385.58 486.153L387.166 492.385L388.048 497.817L389.634 500.221L388.753 501.556L386.021 503.248L380.999 499.775L376.152 498.796L375.007 499.241L372.187 498.707L368.487 495.947L363.905 494.967L357.208 491.94L355.358 488.468L354.212 482.68L351.393 480.988L350.864 478.94L351.393 478.406L351.657 475.379L350.512 474.845L349.983 473.954L351.128 470.037L349.719 467.989L346.899 466.831L343.903 462.913L340.731 457.037L337.03 454.722L337.207 453.03L332.537 442.078L331.832 438.339L330.246 436.647L330.07 435.311L324.783 430.592L322.492 427.832V426.853L320.201 424.983L314.209 424.004L307.689 423.469L304.957 421.421L300.992 423.024L297.82 424.36L295.794 427.209L294.913 430.503L291.036 435.935L288.921 438.072L286.63 437.181L285.044 436.202L283.37 435.668L279.934 433.62V433.085L278.347 431.394L273.766 429.524L267.245 422.579L265.219 418.394V411.182L262.399 405.394L261.959 402.99L260.549 402.1L259.579 400.23L255.174 398.36L254.028 396.936L247.772 389.902L246.627 387.052L242.486 385.005L241.164 381.087L238.873 378.505L237.375 378.06L236.846 373.251ZM390.515 499.419L389.986 493.098L387.607 486.687L387.078 480.454L388.4 473.153L391.308 467.009L394.392 462.201L397.211 458.996L397.74 459.174L393.511 465.05L389.634 470.838L387.871 476.714L387.607 481.344L388.4 486.776L390.691 493.187L391.132 497.817L391.308 499.152L390.515 499.419Z" fill="#2DA5D3" stroke="#103F4A" stroke-width="2" mask="url(#path-37-inside-5)"/>
<path d="M720.009 236.007L719.923 236.122L719.91 236.266L719.558 240.361L719.553 240.419L719.561 240.476L719.984 243.381L718.483 247.593L717.215 248.7L716.156 245.419L716.496 240.78L717.88 237.108L717.894 237.072L717.902 237.035L718.519 234.096L718.532 234.031L718.529 233.964L718.461 232.812L722.585 231.188L722.475 232.742L720.009 236.007ZM622.452 262.814L624.004 261.032L626.8 264.408L626.907 264.536L627.069 264.575L630.417 265.376L630.566 265.412L630.709 265.358L633.088 264.468L633.156 264.442L633.214 264.398L634.728 263.251L636.564 264.179L636.739 264.267L636.927 264.213L640.98 263.056L641.22 262.987L641.31 262.754L642.643 259.268L644.314 259.76L644.55 259.83L644.749 259.685L647.379 257.775L648.562 258.074L648.861 258.149L649.063 257.916L651.53 255.067L651.638 254.942L651.65 254.776L651.827 252.372L651.839 252.202L651.745 252.06L651.192 251.222L655.308 242.124L655.318 242.102L655.326 242.08L656.912 237.45L656.93 237.397L656.936 237.34L657.33 233.594L658.044 234.708L658.088 234.777L658.151 234.828L659.473 235.896L659.621 236.016L659.813 236.007L663.249 235.828L663.634 235.809L663.713 235.431L665.144 228.542L667.464 228.073L667.756 228.014L667.843 227.728L668.502 225.562L670.848 223.7L670.931 223.634L670.981 223.539L671.95 221.669L671.96 221.65L671.968 221.63L673.554 217.802L673.59 217.715L673.592 217.621L673.664 214.242L676.153 215.22L681.953 217.973L682.624 218.292L682.667 217.55L682.893 213.587L684.851 214.285L684.409 216.442L684.323 216.864L684.728 217.012L692.169 219.722L693.168 221.02L692.552 223.591L691.504 224.649L691.415 224.739L691.38 224.861L690.939 226.375L690.905 226.494L690.93 226.615L691.37 228.752L691.412 228.955L691.585 229.069L693.348 230.227L693.397 230.259L693.452 230.279L696.888 231.525L696.894 231.527L699.449 232.418L699.485 232.43L699.523 232.437L703.692 233.211L705.523 234.977L705.642 235.092L705.807 235.113L708.415 235.442L708.968 236.188L708.632 240.184L708.609 240.451L708.819 240.618L709.798 241.395L709.439 242.771L709.35 243.114L709.644 243.312L710.441 243.85L710.372 244.34L708.444 244.268L707.892 244.247L707.926 244.798L708.014 246.223L708.03 246.472L708.238 246.609L710.058 247.809L710.129 248.809L710.142 248.994L710.272 249.126L711.753 250.621L712.093 252.339L710.125 253.41L709.52 253.739L710.02 254.212L711.429 255.548L711.639 255.746L711.915 255.664L716.652 254.261L719.362 258.851L669.918 269.651L635.965 274.629L631.807 274.541L629.897 274.278L629.69 274.249L629.524 274.377L627.453 275.967L621.187 276.054L621.151 276.055L621.116 276.06L612.057 277.482L608.206 277.831L610.085 276.626L613.686 274.585L613.94 274.441V274.15V272.451L618.831 266.121L622.412 262.855L622.433 262.836L622.452 262.814Z" fill="#2DA5D3" stroke="#103F4A"/>
<path d="M655.863 220.823L656.047 221.771L656.715 221.073L661.736 215.824L663.903 215.151L664.014 215.116L664.099 215.036L665.508 213.7L665.548 213.663L665.579 213.617L666.7 211.956L667.323 212.128L667.404 212.15L667.488 212.145L670.22 211.967L670.375 211.956L670.497 211.86L674.482 208.708L675.467 208.377L676.401 209.102L676.445 209.137L676.496 209.161L678.706 210.191L681.122 212.633L680.858 215.51L676.75 213.511L676.73 213.501L676.708 213.493L672.479 211.89L671.814 211.638L671.802 212.35L671.715 217.5L669.514 222.376L667.047 224.44L666.94 224.529L666.895 224.661L666.286 226.428L663.936 226.824L663.599 226.88L663.53 227.215L662.109 234.057L660.233 234.193L659.477 233.498L658.457 231.78L658.271 231.467L657.916 231.548L655.977 231.993L655.626 232.074L655.591 232.433L655.157 236.914L653.598 241.377L649.201 251.152L649.09 251.398L649.235 251.625L649.943 252.738L649.871 254.187L648.248 256.05L647.136 255.769L646.904 255.711L646.713 255.854L644.181 257.753L641.953 257.109L641.505 256.98L641.345 257.419L639.848 261.537L636.94 262.31L634.91 261.243L634.627 261.094L634.373 261.289L632.242 262.926L630.435 263.481L627.908 262.843L624.664 258.961L624.614 258.901L624.548 258.859L621.512 256.931L619.37 254.766L616.903 251.586L616.487 249.649L616.442 249.44L616.259 249.328L613.922 247.894L613.498 246.966L613.346 242.666L615.247 242.506L615.355 242.497L615.45 242.444L617.036 241.554L617.291 241.41V241.118V239.383L618.621 238.196L618.784 238.051L618.789 237.833L618.876 233.259L619.607 230.301L620.116 229.974L620.152 230.001L621.001 230.945L621.095 231.05L621.23 231.09L622.728 231.535L623.043 231.629L623.254 231.377L624.223 230.22L624.4 230.009L624.316 229.747L623.459 227.061V225.865L626.085 221.927L626.915 221.019L628.387 221.391L628.609 221.447L628.796 221.315L631.087 219.713L631.134 219.68L631.172 219.638L633.903 216.611L633.939 216.572L633.965 216.526L636.08 212.876L636.142 212.768L636.147 212.643L636.322 207.673L636.761 203.416L636.764 203.391V203.365V199.002V198.914L636.734 198.832L635.852 196.402L636.465 195.507L636.487 195.488L640.093 211.842L640.197 212.316L640.674 212.226L644.445 211.517L653.836 210.416L655.863 220.823Z" fill="#2DA5D3" stroke="#103F4A"/>
<mask id="path-40-inside-6" fill="white">
<path d="M95.7784 337.901L78.4202 335.497L69.609 334.162L69.1684 332.559V324.189L68.9041 321.34L66.6131 317.6L65.9082 315.553L62.4718 311.813L59.9166 307.628L57.5375 307.45L54.7179 306.738L54.4536 305.847L55.7753 305.313L55.2466 302.464L53.9249 300.594L49.6955 299.882L46.2591 298.012L45.2899 295.964L42.999 291.69L40.4437 288.93H37.8884L34.452 287.06L30.487 285.457L26.7862 285.012L24.6715 282.608L25.1121 280.916L26.6981 274.595L27.403 272.903V270.766L25.9932 269.876L25.5527 267.294L24.231 264.979L21.2351 259.814L20.0897 257.054L18.768 252.869L17.3582 248.15L14.5386 244.233L14.098 241.65L14.8029 238.178H15.7722L17.6225 236.753L18.5918 233.548L17.7106 231.144L15.3316 230.699L13.6575 228.384L11.8071 225.089L11.6309 217.788L12.1595 216.096L12.6882 214.048L13.1288 211.911L8.10636 206.302V204.432L8.3707 203.987L8.63504 201.138L7.48957 197.576L5.46298 193.302L3.08394 189.296L1.49791 185.823L2.37904 182.529L2.90772 177.364L4.49374 174.604L4.75808 168.817L3.78884 165.611L2.37904 161.872L0 158.132L0.704901 155.283L2.02659 151.543L3.61262 150.831L3.87695 149.851L6.60845 147.536L11.1903 137.03L11.3665 130.441L12.8556 126.078L46.9464 136.585L69.5032 142.461L62.4542 170.33L54.8149 199.802L65.9435 216.898L103.092 272.369L118.159 295.608L117.807 298.368L120.274 302.998L121.243 307.806L122.124 309.142L122.741 309.676L122.565 310.923L121.331 311.813L118.335 313.238L116.661 315.107L115.163 318.58L114.723 322.765L112.432 324.991L110.405 325.97L110.317 331.49L109.788 333.182L110.669 334.696L113.313 334.963L112.96 336.388L111.727 338.168L108.29 338.703L95.7784 337.901ZM30.6632 294.361L31.8087 295.697L31.6324 296.854L28.8128 296.765L28.2841 295.697L27.7555 294.361H30.6632ZM32.3373 294.361L33.3947 293.827L36.5667 295.697L39.2982 296.765L38.5052 297.3L34.5401 297.122L33.1303 295.697L32.3373 294.361ZM50.5766 311.991L52.1627 314.039L52.8676 314.929L54.1893 315.464L54.7179 314.128L53.8368 312.525L51.4578 310.744L50.4885 310.923V311.991H50.5766ZM49.3431 319.737L50.9291 322.587L51.9864 324.278L50.6648 324.456L49.5193 323.388C49.5193 323.388 48.9025 322.052 48.9025 321.696V319.737H49.3431Z"/>
</mask>
<path d="M95.7784 337.901L78.4202 335.497L69.609 334.162L69.1684 332.559V324.189L68.9041 321.34L66.6131 317.6L65.9082 315.553L62.4718 311.813L59.9166 307.628L57.5375 307.45L54.7179 306.738L54.4536 305.847L55.7753 305.313L55.2466 302.464L53.9249 300.594L49.6955 299.882L46.2591 298.012L45.2899 295.964L42.999 291.69L40.4437 288.93H37.8884L34.452 287.06L30.487 285.457L26.7862 285.012L24.6715 282.608L25.1121 280.916L26.6981 274.595L27.403 272.903V270.766L25.9932 269.876L25.5527 267.294L24.231 264.979L21.2351 259.814L20.0897 257.054L18.768 252.869L17.3582 248.15L14.5386 244.233L14.098 241.65L14.8029 238.178H15.7722L17.6225 236.753L18.5918 233.548L17.7106 231.144L15.3316 230.699L13.6575 228.384L11.8071 225.089L11.6309 217.788L12.1595 216.096L12.6882 214.048L13.1288 211.911L8.10636 206.302V204.432L8.3707 203.987L8.63504 201.138L7.48957 197.576L5.46298 193.302L3.08394 189.296L1.49791 185.823L2.37904 182.529L2.90772 177.364L4.49374 174.604L4.75808 168.817L3.78884 165.611L2.37904 161.872L0 158.132L0.704901 155.283L2.02659 151.543L3.61262 150.831L3.87695 149.851L6.60845 147.536L11.1903 137.03L11.3665 130.441L12.8556 126.078L46.9464 136.585L69.5032 142.461L62.4542 170.33L54.8149 199.802L65.9435 216.898L103.092 272.369L118.159 295.608L117.807 298.368L120.274 302.998L121.243 307.806L122.124 309.142L122.741 309.676L122.565 310.923L121.331 311.813L118.335 313.238L116.661 315.107L115.163 318.58L114.723 322.765L112.432 324.991L110.405 325.97L110.317 331.49L109.788 333.182L110.669 334.696L113.313 334.963L112.96 336.388L111.727 338.168L108.29 338.703L95.7784 337.901ZM30.6632 294.361L31.8087 295.697L31.6324 296.854L28.8128 296.765L28.2841 295.697L27.7555 294.361H30.6632ZM32.3373 294.361L33.3947 293.827L36.5667 295.697L39.2982 296.765L38.5052 297.3L34.5401 297.122L33.1303 295.697L32.3373 294.361ZM50.5766 311.991L52.1627 314.039L52.8676 314.929L54.1893 315.464L54.7179 314.128L53.8368 312.525L51.4578 310.744L50.4885 310.923V311.991H50.5766ZM49.3431 319.737L50.9291 322.587L51.9864 324.278L50.6648 324.456L49.5193 323.388C49.5193 323.388 48.9025 322.052 48.9025 321.696V319.737H49.3431Z" fill="#103F4A" stroke="#103F4A" stroke-width="2" mask="url(#path-40-inside-6)"/>
<path d="M221.7 193.767L290.894 201.369L290.9 201.37L322.139 204.439L317.18 280.042L305.079 279.529L274.523 276.859L241.489 272.942L241.487 272.942L212.036 269.528L213.641 257.836L213.641 257.836L219.809 212.96L219.81 212.951L219.811 212.941L221.7 193.767Z" fill="#103F4A" stroke="#103F4A"/>
<path d="M152.993 21.5832L149.216 40.2531L149.185 40.4035L149.244 40.545L151.997 47.1344L150.898 51.09L150.853 51.2527L150.916 51.4095L152.678 55.817L152.75 55.9971L152.925 56.0815L155.579 57.3642L159.558 66.3056L159.581 66.3562L159.614 66.4006L161.879 69.4466L162.388 70.4584L162.48 70.6408L162.673 70.7068L165.398 71.6381L165.663 72.9373L159.551 88.0499L159.509 88.1555L159.516 88.2692L159.692 91.0294L159.703 91.194L159.809 91.32L162.364 94.3473L162.492 94.4981L162.687 94.5213L164.185 94.6994L164.374 94.7218L164.529 94.6138L168.698 91.7231L168.767 95.0148L168.768 95.0599L168.777 95.1042L171.156 106.768L171.192 106.946L171.334 107.06L174.204 109.345L176.211 111.697L175.653 114.031L175.629 114.132L175.647 114.233L176.264 117.794L176.305 118.03L176.514 118.146L178.276 119.126L178.577 119.293L178.841 119.071L180.834 117.393L182.662 117.239L185.54 118.522L185.706 118.596L185.88 118.546L188.023 117.94L191.202 117.856L194.54 119.24L194.67 119.293L194.809 119.271L197.629 118.826L197.95 118.776L198.034 118.461L198.592 116.368L199.857 115.759L200.247 116.301L200.581 118.497L200.608 118.674L200.741 118.793L202.919 120.749L199.613 141.935L199.612 141.94L195.378 167.436L165.225 162.095L165.213 162.092L130.428 155.062L130.42 155.061L112.69 151.166L120.319 120.241L121.366 116.537L123.47 111.399L123.554 111.195L123.46 110.995L122.49 108.948L122.349 108.649L122.019 108.662L120.026 108.739L119.769 108.308L120.042 107.55L120.06 107.498L120.067 107.444L120.402 104.824L124.027 100.308L125.504 99.6452L125.578 99.6116L125.638 99.5559L126.696 98.5765L126.794 98.4851L126.834 98.3565L127.605 95.8455L131.511 90.0569L134.926 86.163L135.041 86.0322L135.05 85.8586L135.226 82.3771L135.239 82.1151L135.031 81.9553L132.082 79.6903L131.088 75.9745L131.436 67.4815L134.423 53.0824L134.423 53.0795L138.385 34.5226L142.488 19.4845L152.993 21.5832Z" fill="#103F4A" stroke="#103F4A"/>
<path d="M204.28 109.456L203.165 118.474L202.335 117.724L202.01 115.672L201.993 115.562L201.931 115.47L200.785 113.778L200.547 113.427L200.162 113.604L197.255 114.94L197.044 115.037L196.981 115.26L196.453 117.168L194.89 117.374L191.667 116.002L191.568 115.96L191.459 115.963L187.847 116.052L187.781 116.053L187.718 116.072L185.786 116.641L183.139 115.387L183.021 115.332L182.891 115.34L180.248 115.518L180.073 115.53L179.944 115.648L178.384 117.074L178.087 116.874L177.532 114.151L178.127 111.404L178.178 111.165L178.022 110.978L175.643 108.129L175.607 108.086L175.563 108.052L172.805 105.941L170.647 94.9509L170.56 90.2757L170.555 89.9746L170.286 89.8388L168.876 89.1265L168.459 88.9158L168.221 89.3175L167.745 90.1181L164.015 92.7987L163.353 92.743L161.56 90.5374L161.403 88.3172L167.528 73.1543L167.586 73.0102L167.553 72.8585L167.024 70.4811L166.962 70.2019L166.69 70.1139L163.82 69.1861L163.558 68.5827L163.534 68.5271L163.497 68.4788L161.154 65.4103L157.125 56.1966L157.053 56.0304L156.89 55.9495L154.237 54.6257L152.79 51.164L153.889 47.2084L153.935 47.0414L153.868 46.8816L151.108 40.2835L154.853 21.9719L183.173 28.0017L183.173 28.0019L183.185 28.0042L199.398 31.0315L199.398 31.0316L199.408 31.0333L227.868 35.7523L227.868 35.7525L227.882 35.7544L253.699 39.3159L253.699 39.316L253.707 39.317L279.436 42.4335L279.446 42.4345L306.106 45.1197L305.344 57.2683L305.343 57.2827L300.674 108.136L300.674 108.14L299.572 121.161L248.016 115.343L204.849 109.023L204.343 108.949L204.28 109.456Z" fill="#103F4A" stroke="#103F4A"/>
<path d="M96.0179 149.36L96.0179 149.36L96.0254 149.362L130.125 156.93L130.125 156.93L130.134 156.932L152.556 161.463L143.312 208.255L143.312 208.255L143.311 208.263L138.554 234.79L135.648 248.583L135.647 248.583L135.645 248.594L133.795 258.477L133.794 258.485L133.793 258.492L131.515 273.009L130.211 275.413L129.418 275.363L128.485 273.32L128.377 273.082L128.119 273.036L125.785 272.615L124.743 271.723L124.59 271.593L124.39 271.604L122.804 271.693L122.628 271.703L122.498 271.82L121.724 272.516L120.158 273.658L119.963 273.801L119.953 274.042L119.69 280.503L119.434 281.801L119.426 281.839L119.425 281.878L118.989 292.79L118.5 293.599L104.219 271.564L104.215 271.558L67.1238 216.271L67.1193 216.265L56.2909 199.539L63.7693 170.725L63.77 170.722L70.7068 143.331L96.0179 149.36Z" fill="#103F4A" stroke="#103F4A"/>
<path d="M118.472 119.895L118.472 119.895L118.47 119.905L110.833 150.685L96.3382 147.497L96.3296 147.495L72.0983 141.711L72.0896 141.709L47.2274 135.304L13.4412 124.759L11.2902 121.952L12.3873 116.835L12.3935 116.806L12.3963 116.776L13.0899 109.242L14.697 106.763L14.6993 106.759L21.8364 95.5406L21.8532 95.5143L21.8665 95.486L27.5939 83.3767L27.605 83.3532L27.6137 83.3285L32.0097 70.8014L34.8166 65.04L34.8327 65.0069L34.8438 64.9719L37.6611 56.0752L39.6071 50.5179L44.3611 48.7786L46.0379 49.1316L46.5735 51.0644L46.6604 51.378L46.9822 51.4255L50.3563 51.9245L51.9712 54.7107L51.7893 62.8331L51.7835 63.0936L51.9937 63.2477L56.6725 66.6756L56.7958 66.766L56.9486 66.7719L62.4645 66.9856L62.663 66.9933L62.8126 66.8627L64.158 65.6886L67.8171 66.7438L67.8693 66.7589L67.9235 66.7624L68.82 66.82L72.9498 68.3462L74.6198 69.5774L74.7383 69.6648L74.8853 69.674L79.0089 69.9322L79.1258 69.9395L79.2337 69.8942L80.132 69.5172L82.0234 70.7755L82.1252 70.8432L82.2468 70.8563L86.2118 71.2837L86.3274 71.2962L86.4367 71.2563L90.5996 69.7386L91.3438 70.6342L91.4987 70.8206L91.741 70.8145L104.719 70.4867L118.123 73.5588L129.381 76.8846L130.367 80.6626L130.411 80.8333L130.553 80.9382L133.331 82.9939L133.182 85.449L130.041 88.88L130.016 88.907L129.996 88.9373L126.563 94.0066L125.863 94.9802L125.808 95.0567L125.784 95.148L125.205 97.4054L124.578 97.9686L122.969 98.7389L122.868 98.7872L122.797 98.8738L118.656 103.949L118.564 104.061L118.547 104.206L118.202 107.08L117.697 108.355L117.597 108.608L117.755 108.83L118.901 110.432L119.058 110.652L119.328 110.641L121.217 110.565L121.573 111.233L119.554 115.909L119.539 115.942L119.53 115.977L118.472 119.895Z" fill="#103F4A" stroke="#103F4A"/>
<path d="M154.414 161.839L164.936 163.965L164.936 163.965L164.948 163.967L195.035 169.312L193.531 178.262L193.531 178.262L191.593 189.927L191.506 190.448L192.031 190.506L219.91 193.568L217.935 212.654L211.768 257.61L210.163 269.308L188.995 266.177L136.099 256.563L137.506 248.871L140.412 235.166L140.414 235.158L140.415 235.15L145.172 208.448L145.173 208.443L154.414 161.839Z" fill="#103F4A" stroke="#103F4A"/>
<path d="M53.811 54.5915L53.8138 54.4617L53.753 54.3469L51.7264 50.5182L51.6115 50.3011L51.3695 50.2594L48.1073 49.6966L47.8128 47.9105L47.7589 47.584L47.4373 47.506L45.2345 46.9718L45.2186 46.9679L45.2024 46.9651L42.6472 46.5199L42.4718 46.4893L42.3166 46.5765L41.1041 47.2571L39.4667 45.1708L39.6694 43.1905L41.6479 42.9684L41.9464 42.9348L42.057 42.6555L43.4668 39.094L43.6459 38.6415L43.1985 38.4502L41.2289 37.6082L41.3644 35.075L44.8324 34.5972L45.8227 34.4607L45.1196 33.7502L42.8443 31.451L41.574 25.375L42.0819 22.8942L42.0921 22.8446V22.7939V15.7599V15.6301L42.029 15.5167L40.5381 12.8383L42.4011 5.1439L43.6027 5.43299L45.6109 7.8851L45.6288 7.90695L45.649 7.92664L48.0281 10.2416L48.0697 10.2822L48.1195 10.3121L50.9391 12.0038L50.9605 12.0166L50.9831 12.0273L54.9482 13.8971L55.0044 13.9236L55.0655 13.9356L57.7257 14.4559L60.2166 15.7578L60.2594 15.7802L60.3058 15.794L63.3016 16.6843L63.3929 16.7115L63.4878 16.7031L65.5144 16.5251L65.9706 16.485V16.027V14.1204L66.9128 13.3148L68.1596 12.5349L68.2415 12.8386L68.4246 13.9487L66.8613 14.2921L66.5221 14.3666L66.4735 14.7104L66.2091 16.5803L66.1704 16.8544L66.3821 17.0327L67.8816 18.2954L68.7914 20.3013L69.3109 21.9636L69.4368 22.3664L69.8549 22.31L71.1766 22.1319L71.5478 22.0819L71.6041 21.7117L71.7804 20.5542L71.8123 20.3447L71.6839 20.1761L70.8797 19.1196L70.4808 16.5399L71.127 15.0708L71.211 14.8796L71.1342 14.6854L70.6406 13.4385V11.3358L72.1748 8.23523L72.2759 8.03079L72.1878 7.82039L71.2186 5.50539L71.2125 5.49086L71.2055 5.47674L69.1865 1.39628L69.3131 1.0552L70.1932 0.546972L73.8547 1.80832L73.8683 1.81301L73.8822 1.8169L82.4291 4.22095L82.4422 4.22464L82.4555 4.22762L90.0184 5.91604L107.626 10.987L107.635 10.9895L107.643 10.9916L127.909 16.0669L127.916 16.0685L140.63 19.0577L136.535 34.1939L136.532 34.2068L136.529 34.2199L132.564 52.7667L132.563 52.7698L129.568 67.2386L129.559 67.2782L129.558 67.3185L129.233 74.8554L118.478 71.7215L118.464 71.7174L118.45 71.7142L104.969 68.6245L104.908 68.6106L104.846 68.612L92.3344 68.891L91.5188 67.7447L91.2968 67.4326L90.9377 67.5657L86.0258 69.3856L82.8335 69.0382L80.6472 67.5172L80.4292 67.3656L80.1815 67.4613L78.7853 68.0007L75.3915 67.7941L73.9979 66.7134L73.9347 66.6644L73.8594 66.6375L69.3128 65.017L69.2641 64.9997L69.2128 64.9926L68.2099 64.8552L64.0162 63.628L63.7541 63.5513L63.5479 63.7304L62.0069 65.0686L57.3794 64.8617L53.6491 62.1225L53.811 54.5915ZM64.3393 6.66182L65.5126 5.39713H67.0195L67.4234 6.16246L66.3276 7.41751L66.126 7.64831L66.0792 7.63159L64.5812 7.09735L64.0958 6.92422L64.3393 6.66182ZM66.4317 8.21813L66.674 8.5446L66.2284 9.83096L65.2892 10.1021C65.2858 10.1024 65.2822 10.1027 65.2784 10.103C65.391 9.89922 65.533 9.65817 65.678 9.41896C65.841 9.14983 66.0045 8.88831 66.1274 8.69371C66.1888 8.59651 66.2399 8.51626 66.2756 8.4604L66.317 8.3959L66.3278 8.37914L66.3305 8.37495L66.3311 8.37394L66.3313 8.37371L66.3313 8.37366L66.4317 8.21813ZM63.9228 7.47122L63.6918 8.63836L63.64 8.6832L62.6813 7.19766L62.3715 5.69504L63.1916 5.61217L63.5013 6.48837L63.7768 7.26803L64.0135 7.01296L63.9228 7.47122Z" fill="#103F4A" stroke="#103F4A"/>
<path d="M298.203 138.415L298.203 138.415L298.202 138.427L296.881 161.033L293.055 199.696L291.179 199.485L291.178 199.485L217.78 191.383L217.78 191.383L193.721 188.769L195.398 178.606L195.398 178.605L201.477 142.1L201.477 142.1L201.478 142.095L204.826 120.547L204.828 120.538L204.829 120.528L205.916 111.068L247.876 117.226L247.884 117.227L247.893 117.228L299.484 122.962L298.203 138.415Z" fill="#103F4A" stroke="#103F4A"/>
</svg>
